<?xml version="1.0" encoding="UTF-8"?>
<svg version="1.1" xmlns="http://www.w3.org/2000/svg" width="741" height="192">
<path d="M0 0 C244.53 0 489.06 0 741 0 C741 63.36 741 126.72 741 192 C496.47 192 251.94 192 0 192 C0 128.64 0 65.28 0 0 Z " fill="#FBFBFA" transform="translate(0,0)"/>
<path d="M0 0 C4.12533456 4.12533456 5.56294005 5.88597793 7.92211914 10.73168945 C10.06654452 14.16594817 11.13450405 15.71200981 15.01290894 17.00253296 C18.78189904 17.36936777 22.46869969 17.39610481 26.24609375 17.29296875 C27.62615932 17.29489296 29.00622587 17.30166842 30.38624573 17.31306458 C33.99946798 17.32998905 37.60889429 17.28149464 41.22149658 17.21887207 C44.91521801 17.16657987 48.60872407 17.17682275 52.30273438 17.18164062 C59.53637455 17.18193924 66.76714858 17.1130604 74 17 C74.29132813 16.39768555 74.58265625 15.79537109 74.8828125 15.17480469 C76.34157153 12.3350701 78.13600604 9.84040337 80 7.25 C80.70125 6.26515625 81.4025 5.2803125 82.125 4.265625 C82.74375 3.51796875 83.3625 2.7703125 84 2 C84.66 2 85.32 2 86 2 C86.98999428 10.49071044 87.18624756 18.94079032 87.18530273 27.47729492 C87.18747933 29.66670488 87.2056787 31.85560107 87.22460938 34.04492188 C87.34436137 63.86777522 80.24069223 89.45173699 60 112 C46.96689634 124.78149934 18.35091047 138 0 138 C0 92.46 0 46.92 0 0 Z " fill="#F8AF15" transform="translate(20,23)"/>
<path d="M0 0 C8.91 0 17.82 0 27 0 C29.51068812 6.2767203 31.91138864 12.4490374 34.015625 18.8515625 C34.27631775 19.63647064 34.5370105 20.42137878 34.80560303 21.23007202 C35.62326936 23.69410893 36.43671371 26.1595144 37.25 28.625 C37.80961474 30.31389525 38.36950834 32.00269813 38.9296875 33.69140625 C40.28967558 37.79321296 41.64588392 41.89625124 43 46 C43.64979568 44.72221117 44.29710534 43.44315792 44.94335938 42.16357422 C45.30409546 41.45143768 45.66483154 40.73930115 46.03649902 40.00558472 C47.11851502 37.75330393 47.86486521 35.5401836 48.5 33.125 C49.68262066 28.94472056 51.1617543 25.01139657 52.8203125 21 C54.68433927 16.25969352 56.32754703 11.44175283 57.98168945 6.62475586 C59.8953517 1.1046483 59.8953517 1.1046483 61 0 C62.85369611 -0.08737645 64.71067541 -0.10698153 66.56640625 -0.09765625 C67.69111328 -0.09443359 68.81582031 -0.09121094 69.97460938 -0.08789062 C71.15861328 -0.07951172 72.34261719 -0.07113281 73.5625 -0.0625 C74.75037109 -0.05798828 75.93824219 -0.05347656 77.16210938 -0.04882812 C80.10812226 -0.03699675 83.05403681 -0.02051287 86 0 C88.14253461 6.35165062 90.27806171 12.70562541 92.40869141 19.0612793 C93.13461036 21.22393315 93.86214259 23.38604619 94.59130859 25.54760742 C95.63802068 28.65142919 96.67894997 31.75713815 97.71875 34.86328125 C98.21091003 36.31653557 98.21091003 36.31653557 98.7130127 37.79914856 C99.01332397 38.6998558 99.31363525 39.60056305 99.62304688 40.52856445 C99.88952026 41.32132278 100.15599365 42.11408112 100.43054199 42.93086243 C101 45 101 45 101 48 C101.66 48 102.32 48 103 48 C103.09023437 47.04480469 103.18046875 46.08960938 103.2734375 45.10546875 C103.97515719 40.22888369 105.80443909 35.86517599 107.625 31.3125 C111.67499883 20.9556257 115.37003046 10.51178678 119 0 C127.25 0 135.5 0 144 0 C141.59112533 7.9974639 139.06201038 15.94599705 136.4375 23.875 C135.99845337 25.21147583 135.99845337 25.21147583 135.55053711 26.57495117 C134.32793332 30.24827133 133.07456774 33.82779824 131.53515625 37.3828125 C129.36973458 42.48505286 127.7132042 47.73157505 126 53 C122.17815174 64.75290181 122.17815174 64.75290181 120.4375 68.6875 C118.7007863 72.68949245 117.37956943 76.86129172 116 81 C106.76 81 97.52 81 88 81 C82.38168671 67.51604811 82.38168671 67.51604811 80.359375 61.51953125 C80.14686096 60.89519699 79.93434692 60.27086273 79.71539307 59.62760925 C79.05638205 57.69052779 78.40265196 55.75173226 77.75 53.8125 C77.08260739 51.83415761 76.41398606 49.85626801 75.74176025 47.87956238 C75.14211531 46.11583013 74.54700027 44.35055966 73.95214844 42.58520508 C73.24321532 40.1034988 73.24321532 40.1034988 72 39 C71.60167969 40.21816406 71.20335937 41.43632813 70.79296875 42.69140625 C70.25797544 44.31515786 69.72281004 45.93885278 69.1875 47.5625 C68.92646484 48.36236328 68.66542969 49.16222656 68.39648438 49.98632812 C66.81359243 54.77408771 65.00289555 59.36830403 63 64 C61.89253263 66.96375487 60.84991333 69.94861544 59.8125 72.9375 C58.884375 75.598125 57.95625 78.25875 57 81 C47.76 81 38.52 81 29 81 C23.37581364 67.50195273 23.37581364 67.50195273 21.76757812 62.88696289 C21.40369995 61.84870865 21.03982178 60.81045441 20.66491699 59.74073792 C20.29080688 58.66227097 19.91669678 57.58380402 19.53125 56.47265625 C19.12845825 55.32188095 18.7256665 54.17110565 18.31066895 52.98545837 C17.03708928 49.34563468 15.76817531 45.70420982 14.5 42.0625 C13.23128167 38.42455548 11.96147836 34.78700023 10.68933105 31.1502533 C9.90246546 28.90031073 9.11756579 26.64967919 8.33508301 24.39820862 C6.00799736 17.73817219 3.53618192 11.15277928 0.93664551 4.59397888 C0 2 0 2 0 0 Z " fill="#ED761C" transform="translate(113,78)"/>
<path d="M0 0 C8.91 0 17.82 0 27 0 C28.95739883 5.72909684 30.91466226 11.45823956 32.87158203 17.1875 C33.5368672 19.13511828 34.2022309 21.08270973 34.86767578 23.03027344 C35.82605479 25.8352153 36.78414811 28.64025462 37.7421875 31.4453125 C38.03809784 32.31116974 38.33400818 33.17702698 38.6388855 34.06912231 C40.10890138 38.37411222 41.56882074 42.68189262 43 47 C46.23131127 39.20478191 49.08722019 31.28635169 51.89160156 23.33056641 C52.62881406 21.23917994 53.36883746 19.14880491 54.109375 17.05859375 C56.11623496 11.3856158 58.09696863 5.70909412 60 0 C68.25 0 76.5 0 85 0 C87.56559798 6.41399495 90.02551472 12.75923422 92.234375 19.2890625 C92.51726379 20.11836273 92.80015259 20.94766296 93.09161377 21.80209351 C93.98021557 24.40889475 94.86517439 27.01691491 95.75 29.625 C96.35783053 31.41023879 96.96590144 33.19539577 97.57421875 34.98046875 C99.05225354 39.31937365 100.52702633 43.65937447 102 48 C102.28483498 47.13202789 102.28483498 47.13202789 102.57542419 46.246521 C106.19786609 35.21514592 109.94040531 24.23700077 113.875 13.3125 C114.46462524 11.67390015 114.46462524 11.67390015 115.06616211 10.00219727 C117.8645388 2.27092241 117.8645388 2.27092241 119 0 C126.92 0 134.84 0 143 0 C140.75656743 11.21716287 140.75656743 11.21716287 139.1875 15.25 C138.66349609 16.63058594 138.66349609 16.63058594 138.12890625 18.0390625 C137.75636719 19.01617187 137.38382813 19.99328125 137 21 C136.202816 23.20634764 135.41146403 25.41480848 134.625 27.625 C133.99464844 29.39230469 133.99464844 29.39230469 133.3515625 31.1953125 C131.63595873 36.01871101 129.93504346 40.84728676 128.2331543 45.67553711 C126.24710229 51.30725376 124.24556468 56.9332872 122.23046875 62.5546875 C121.35139641 65.01609006 120.47889219 67.47919476 119.61328125 69.9453125 C119.38519775 70.59218018 119.15711426 71.23904785 118.92211914 71.90551758 C118.28481518 73.71371999 117.65014376 75.5228496 117.015625 77.33203125 C116 80 116 80 115 81 C112.92737924 81.08767112 110.85179706 81.10695873 108.77734375 81.09765625 C106.88725586 81.09282227 106.88725586 81.09282227 104.95898438 81.08789062 C103.61848891 81.07953403 102.27799412 81.07106907 100.9375 81.0625 C99.59310058 81.0574866 98.2486994 81.05292342 96.90429688 81.04882812 C93.60282059 81.03699488 90.30143197 81.02050971 87 81 C85.0002153 75.36040961 83.00654838 69.71870878 81.01855469 64.07495117 C80.34120296 62.15475969 79.66217438 60.23515888 78.98144531 58.31616211 C78.00405961 55.55996291 77.03269645 52.80170549 76.0625 50.04296875 C75.75626709 49.18350143 75.45003418 48.32403412 75.13452148 47.43852234 C74.85423096 46.63791885 74.57394043 45.83731537 74.28515625 45.01245117 C74.03644775 44.3085173 73.78773926 43.60458344 73.53149414 42.87931824 C73 41 73 41 73 38 C72.34 38 71.68 38 71 38 C70.62875 39.8871875 70.62875 39.8871875 70.25 41.8125 C68.98908359 47.41753252 67.05182952 52.64145392 65 58 C64.33158102 59.76675681 63.66365737 61.53370107 62.99609375 63.30078125 C61.56957401 67.06761476 60.14217062 70.83409744 58.70703125 74.59765625 C58.25034058 75.79660522 58.25034058 75.79660522 57.78442383 77.01977539 C57 79 57 79 56 81 C46.76 81 37.52 81 28 81 C22.75020251 66.20876242 22.75020251 66.20876242 20.47265625 59.79101562 C18.93253882 55.4512233 17.39239275 51.11144115 15.85205078 46.77172852 C15.60306911 46.07023996 15.35408745 45.36875141 15.09756088 44.64600563 C14.59902936 43.24142883 14.10048664 41.836856 13.60193253 40.43228722 C12.38509423 37.00382624 11.16877458 33.5751828 9.95355225 30.14614868 C7.95930667 24.51927259 5.96401937 18.89285548 3.95019531 13.27294922 C3.66222076 12.46635361 3.37424622 11.659758 3.07754517 10.82872009 C2.57227211 9.41403572 2.06465257 8.00018591 1.55404663 6.5874176 C0 2.22519636 0 2.22519636 0 0 Z " fill="#FBC629" transform="translate(561,78)"/>
<path d="M0 0 C1.05558105 0.00805664 2.11116211 0.01611328 3.19873047 0.02441406 C11.18140539 0.22912966 17.22822692 1.34098765 24.125 5.5625 C25.1975 6.14 26.27 6.7175 27.375 7.3125 C36.06268093 14.42060258 40.62774217 22.0707265 44.125 32.5625 C44.125 38.1725 44.125 43.7825 44.125 49.5625 C24.655 49.5625 5.185 49.5625 -14.875 49.5625 C-9.90698858 57.88600963 -9.90698858 57.88600963 -1.98046875 61.109375 C7.843272 63.22357524 15.49334845 59.93744668 24.125 55.5625 C34.86759681 65.93607631 34.86759681 65.93607631 38.125 71.5625 C26.21189351 82.94613509 13.64670838 84.04056915 -2.1015625 83.83984375 C-14.97278992 83.42162249 -25.26778565 78.6645308 -34.125 69.3125 C-43.32194779 58.44504872 -44.75880393 47.3175755 -43.875 33.5625 C-42.437375 22.95282752 -35.84895755 14.49906249 -27.5 8.125 C-18.86068423 1.93304458 -10.50997548 -0.15045297 0 0 Z " fill="#F9B627" transform="translate(513.875,76.4375)"/>
<path d="M0 0 C9.24 0 18.48 0 28 0 C28 36.63 28 73.26 28 111 C18.76 111 9.52 111 0 111 C0 74.37 0 37.74 0 0 Z " fill="#F0851D" transform="translate(266,48)"/>
<path d="M0 0 C9.57 0 19.14 0 29 0 C25.62533496 10.12399513 25.62533496 10.12399513 23.83374023 14.22045898 C23.43097366 15.14674606 23.02820709 16.07303314 22.61323547 17.02738953 C21.96743782 18.49689812 21.96743782 18.49689812 21.30859375 19.99609375 C20.62152596 21.57285637 20.62152596 21.57285637 19.920578 23.18147278 C18.42961258 26.60164071 16.93354543 30.01955153 15.4375 33.4375 C13.35880764 38.20100872 11.2828161 42.96569243 9.20703125 47.73046875 C8.68566589 48.92632599 8.16430054 50.12218323 7.62713623 51.35427856 C4.22776848 59.15810255 0.85628116 66.97331801 -2.48828125 74.80078125 C-2.90858109 75.7843309 -3.32888092 76.76788055 -3.76191711 77.78123474 C-5.73763277 82.40784775 -7.70931211 87.03615515 -9.67797852 91.66577148 C-10.37642229 93.30324081 -11.07490612 94.94069305 -11.7734375 96.578125 C-12.08900101 97.32342972 -12.40456451 98.06873444 -12.72969055 98.83662415 C-14.88688317 103.88688317 -14.88688317 103.88688317 -16 105 C-18.14558827 105.08775605 -20.29404421 105.10695219 -22.44140625 105.09765625 C-23.74658203 105.09443359 -25.05175781 105.09121094 -26.39648438 105.08789062 C-27.7851569 105.07953401 -29.17382877 105.07106905 -30.5625 105.0625 C-31.95507656 105.05748666 -33.34765481 105.05292347 -34.74023438 105.04882812 C-38.1601987 105.03699434 -41.58007844 105.0205088 -45 105 C-44.38930855 103.269455 -43.77376279 101.54062268 -43.15625 99.8125 C-42.81400391 98.84957031 -42.47175781 97.88664062 -42.11914062 96.89453125 C-41.06120465 94.15829893 -39.85604117 91.59907891 -38.5 89 C-36.71490314 85.56042311 -35.27473736 82.15972984 -34 78.5 C-32.72526264 74.84027016 -31.28509686 71.43957689 -29.5 68 C-27.26763592 63.69180957 -25.62059281 59.33069696 -24.015625 54.7578125 C-22.68773029 51.15206762 -21.10316527 47.69959348 -19.48828125 44.21484375 C-13.22750819 30.85733913 -13.22750819 30.85733913 -7.875 17.125 C-5.71628803 11.22452061 -2.80982898 5.61965796 0 0 Z " fill="#F39521" transform="translate(392,54)"/>
<path d="M0 0 C4.95715699 4.11081311 8.10113559 7.81388991 8.80078125 14.3515625 C8.99918302 20.76307221 8.14221229 26.66928876 4.5625 32.125 C-0.20854337 36.23993576 -3.96962182 36.777034 -10 36.6875 C-11.1127832 36.72327148 -11.1127832 36.72327148 -12.24804688 36.75976562 C-16.48623086 36.74844367 -18.02644633 36.45225176 -21.46484375 33.71484375 C-23.4375 31.125 -23.4375 31.125 -23.4375 29.125 C-26.86328949 32.30039556 -26.86328949 32.30039556 -29.4375 36.125 C-32.66618746 36.27084064 -35.89402365 36.35924106 -39.125 36.4375 C-40.03701172 36.47939453 -40.94902344 36.52128906 -41.88867188 36.56445312 C-46.4755837 36.64785152 -48.69640897 36.67699822 -52.46875 33.8671875 C-57.1128303 27.39864708 -58.55723414 20.00131173 -57.4375 12.125 C-55.61105731 6.00424266 -51.88798971 1.42208262 -46.4375 -1.875 C-43.15936707 -3.16806938 -39.86599234 -4.07674131 -36.4375 -4.875 C-35.54611328 -5.14957031 -35.54611328 -5.14957031 -34.63671875 -5.4296875 C-22.62995371 -7.86089747 -10.65427098 -5.81142054 0 0 Z " fill="#FBFAF6" transform="translate(86.4375,55.875)"/>
<path d="M0 0 C9.24 0 18.48 0 28 0 C28 26.73 28 53.46 28 81 C18.76 81 9.52 81 0 81 C0 54.27 0 27.54 0 0 Z " fill="#F6A623" transform="translate(428,78)"/>
<path d="M0 0 C10.56 0 21.12 0 32 0 C33.588125 3.939375 35.17625 7.87875 36.8125 11.9375 C37.55463745 13.77235962 37.55463745 13.77235962 38.31176758 15.64428711 C38.71032959 16.6369458 39.1088916 17.62960449 39.51953125 18.65234375 C40.12438354 20.15269165 40.12438354 20.15269165 40.74145508 21.68334961 C41.36443481 23.32509155 41.36443481 23.32509155 42 25 C42.30596603 25.692715 42.61193207 26.38542999 42.9271698 27.09913635 C44.5754707 31.17947924 45.40859954 33.98366718 43.96362305 38.23461914 C43.342589 39.68120133 42.69039127 41.11470318 42.01171875 42.53515625 C41.67453323 43.29928329 41.33734772 44.06341034 40.98994446 44.85069275 C39.91594115 47.26775378 38.80287267 49.66429214 37.6875 52.0625 C36.94850743 53.70648719 36.21215066 55.35166189 35.47851562 56.99804688 C33.68253921 61.01307602 31.8513264 65.01020918 30 69 C29.34 69 28.68 69 28 69 C27.68474365 68.24420654 27.3694873 67.48841309 27.04467773 66.7097168 C25.79734675 63.72171585 24.54879763 60.73423071 23.29916382 57.74719238 C22.725236 56.3752945 22.15152547 55.0033057 21.57803345 53.63122559 C18.03184923 45.15130063 14.44707107 36.68962567 10.796875 28.25390625 C10.2805526 27.05860542 10.2805526 27.05860542 9.75379944 25.8391571 C8.0676409 21.93632372 6.37599037 18.0360307 4.67553711 14.1394043 C4.05819624 12.71282943 3.44107865 11.28615791 2.82421875 9.859375 C2.53734192 9.20759781 2.25046509 8.55582062 1.95489502 7.8842926 C0.74255382 5.06651217 0 3.10523351 0 0 Z " fill="#F39521" transform="translate(303,54)"/>
<path d="M0 0 C3.20429516 2.80375826 4.26778891 5.21493411 5 9.3125 C5.33672749 14.36341231 4.08395292 18.00528905 1 22 C-4.3949258 26.69123982 -9.74733841 26.60546643 -16.74609375 26.3828125 C-22.38442641 25.71947925 -24.74349357 23.42183622 -28.375 19.3125 C-30.47421689 15.0333271 -30.83218592 11.68209654 -30 7 C-27.55942096 2.20923373 -24.25334096 -1.65378995 -19.1875 -3.75 C-11.70981966 -4.60459204 -6.51599904 -3.89933801 0 0 Z " fill="#F6A726" transform="translate(455,42)"/>
<path d="M0 0 C4.20346187 1.3117186 6.65570219 3.57624885 9.4375 7 C11 10 11 10 11 14 C0.11 14 -10.78 14 -22 14 C-20.87028754 8.3514377 -20.87028754 8.3514377 -18.125 5.3125 C-17.61195313 4.73113281 -17.09890625 4.14976563 -16.5703125 3.55078125 C-11.71035892 -1.24872514 -6.43534064 -0.66687468 0 0 Z " fill="#FBF8F1" transform="translate(520,97)"/>
<path d="M0 0 C3.49406769 1.66762322 4.82670681 2.74006022 7 6 C7.50835292 9.8973724 7.32962183 11.50556726 5.125 14.8125 C2.23694003 17.78550291 1.41178991 17.95274542 -2.8125 18.4375 C-6.5555686 18.38977417 -6.95107056 18.04281326 -10 15.375 C-12.17817423 11.69933099 -12.79812987 10.16801155 -12 6 C-8.50318172 0.75477258 -6.27296016 -0.49199688 0 0 Z " fill="#F8B11B" transform="translate(49,63)"/>
<path d="M0 0 C5.50619612 3.26293103 5.50619612 3.26293103 6.55078125 6.9375 C6.81013892 10.85009577 6.20809832 12.68785252 4 16 C-0.15562097 18.77041398 -2.06667872 18.70476018 -7 18 C-10.58678172 15.24093714 -11.84693989 13.15888368 -12.4375 8.6875 C-12 5 -12 5 -9.375 2.0625 C-5.66344651 -0.20567158 -4.23403243 -0.88209009 0 0 Z " fill="#F8B019" transform="translate(79,63)"/>
</svg>
