<?xml version="1.0" encoding="UTF-8"?>
<svg version="1.1" xmlns="http://www.w3.org/2000/svg" width="741" height="192">
<path d="M0 0 C13.86 0.495 13.86 0.495 28 1 C28.98742187 3.91328125 29.97484375 6.8265625 30.9921875 9.828125 C31.9512991 12.65143847 32.91139273 15.47441618 33.87158203 18.29736328 C34.53797495 20.25827714 35.20334762 22.21953802 35.86767578 24.18115234 C36.82315864 27.00189771 37.78231275 29.8213716 38.7421875 32.640625 C39.03809784 33.51680481 39.33400818 34.39298462 39.6388855 35.29571533 C39.91902496 36.11626404 40.19916443 36.93681274 40.48779297 37.78222656 C40.73206024 38.50170471 40.97632751 39.22118286 41.22799683 39.96246338 C42.02168798 42.05724076 42.96480822 44.01488517 44 46 C44.61875 44.12634766 44.61875 44.12634766 45.25 42.21484375 C46.80395047 37.51928014 48.37657838 32.83011247 49.95166016 28.14160156 C51.01658133 24.95031006 52.06121849 21.75279469 53.10546875 18.5546875 C53.79875091 16.47371557 54.49274325 14.39298008 55.1875 12.3125 C55.50783203 11.31532959 55.82816406 10.31815918 56.15820312 9.29077148 C56.47080078 8.36594971 56.78339844 7.44112793 57.10546875 6.48828125 C57.37512451 5.66884033 57.64478027 4.84939941 57.92260742 4.00512695 C59.29564701 1.44977366 60.25485306 0.88768303 63 0 C65.56542969 -0.13525391 65.56542969 -0.13525391 68.421875 0.0234375 C69.44667969 0.075 70.47148437 0.1265625 71.52734375 0.1796875 C73.12255859 0.27636719 73.12255859 0.27636719 74.75 0.375 C75.82894531 0.43171875 76.90789062 0.4884375 78.01953125 0.546875 C80.68037699 0.68815884 83.34025231 0.83955266 86 1 C87.79741849 6.10423956 89.59384966 11.20882518 91.3894043 16.3137207 C91.99916529 18.04688689 92.6091864 19.77996159 93.21948242 21.51293945 C94.10144941 24.01749493 94.98245089 26.52238833 95.86328125 29.02734375 C96.26659416 30.17166115 96.26659416 30.17166115 96.67805481 31.33909607 C98.50613122 36.54183772 100.27077037 41.76359633 102 47 C102.37809814 45.8855249 102.75619629 44.7710498 103.14575195 43.62280273 C104.55750419 39.46397044 105.9729171 35.30639163 107.3894043 31.14916992 C108.00042051 29.35425929 108.61046104 27.5590162 109.21948242 25.76342773 C110.09814451 23.17342216 110.9803798 20.58465679 111.86328125 17.99609375 C112.13215652 17.20101913 112.4010318 16.40594452 112.67805481 15.58677673 C116.97461909 3.02538091 116.97461909 3.02538091 119 1 C120.92667507 0.91251793 122.85651861 0.89302666 124.78515625 0.90234375 C125.95498047 0.90556641 127.12480469 0.90878906 128.33007812 0.91210938 C129.56177734 0.92048828 130.79347656 0.92886719 132.0625 0.9375 C133.91584961 0.94426758 133.91584961 0.94426758 135.80664062 0.95117188 C138.87114117 0.96300392 141.93554721 0.97948827 145 1 C143.76714709 7.19726954 142.07797893 13.0459278 139.91015625 18.9765625 C139.60948746 19.81315903 139.30881866 20.64975555 138.9990387 21.51170349 C138.02523694 24.21798521 137.04396996 26.92149095 136.0625 29.625 C135.38729989 31.49646212 134.71266278 33.36812745 134.03857422 35.23999023 C133.01697785 38.07665277 131.99500469 40.91317203 130.97094727 43.74894714 C128.82335198 49.69828356 126.69859009 55.65512575 124.59765625 61.62109375 C124.34055374 62.35046143 124.08345123 63.0798291 123.81855774 63.83129883 C122.85074509 66.57798624 121.88338431 69.3248189 120.92068481 72.07330322 C120.27510869 73.91561973 119.62594291 75.75667723 118.9765625 77.59765625 C118.61643066 78.62383057 118.25629883 79.65000488 117.88525391 80.70727539 C117 83 117 83 116 84 C113.85441173 84.08775605 111.70595579 84.10695219 109.55859375 84.09765625 C108.25341797 84.09443359 106.94824219 84.09121094 105.60351562 84.08789062 C104.2148431 84.07953401 102.82617123 84.07106905 101.4375 84.0625 C100.04492344 84.05748666 98.65234519 84.05292347 97.25976562 84.04882812 C93.8398013 84.03699434 90.41992156 84.0205088 87 84 C83.28918951 75.11733731 80.21338936 66.02881753 77.12817383 56.91625977 C76.46933988 54.973302 75.80706492 53.0315424 75.14453125 51.08984375 C74.75628174 49.94378662 74.36803223 48.79772949 73.96801758 47.61694336 C73.24706108 45.10777011 73.24706108 45.10777011 72 44 C71.58113525 45.17618896 71.16227051 46.35237793 70.73071289 47.56420898 C69.18116175 51.91305104 67.62789725 56.26055888 66.07348633 60.60766602 C65.40026522 62.49206734 64.72806216 64.37683268 64.05688477 66.26196289 C63.09396235 68.96596273 62.12742891 71.66864753 61.16015625 74.37109375 C60.85908463 75.21900986 60.558013 76.06692596 60.24781799 76.9405365 C58.11387171 82.88612829 58.11387171 82.88612829 57 84 C54.85441173 84.08775605 52.70595579 84.10695219 50.55859375 84.09765625 C49.25341797 84.09443359 47.94824219 84.09121094 46.60351562 84.08789062 C45.2148431 84.07953401 43.82617123 84.07106905 42.4375 84.0625 C41.04492344 84.05748666 39.65234519 84.05292347 38.25976562 84.04882812 C34.8398013 84.03699434 31.41992156 84.0205088 28 84 C24.80550104 76.24035008 21.94845478 68.38083267 19.15625 60.46875 C18.70095724 59.18412151 18.24542671 57.89957728 17.78967285 56.6151123 C16.11571499 51.89571711 14.44606959 47.17479892 12.77630615 42.45391846 C11.3592331 38.44800109 9.94047574 34.44268768 8.51957703 30.43812561 C7.862202 28.58331313 7.20724989 26.7276425 6.55236816 24.87194824 C6.14514526 23.7237561 5.73792236 22.57556396 5.31835938 21.39257812 C4.93252686 20.30468994 4.54669434 19.21680176 4.14916992 18.09594727 C2.77696291 14.39912187 1.23517039 10.79105345 -0.39294434 7.20007324 C-1 5 -1 5 0 0 Z " fill="#EA761E" transform="translate(113,76)"/>
<path d="M0 0 C13.365 0.495 13.365 0.495 27 1 C30.375 8.875 30.375 8.875 31.53393555 12.28295898 C31.92400032 13.42334877 31.92400032 13.42334877 32.32194519 14.58677673 C32.59082047 15.38185135 32.85969574 16.17692596 33.13671875 16.99609375 C33.56317436 18.24641136 33.56317436 18.24641136 33.99824524 19.52198792 C34.89723272 22.15962546 35.79242437 24.79853274 36.6875 27.4375 C37.29987892 29.23641369 37.91250665 31.0352427 38.52539062 32.83398438 C40.01980595 37.22168232 41.51082061 41.61052236 43 46 C45.97719425 38.15728954 48.92089473 30.309516 51.66796875 22.3828125 C52.08626953 21.18011719 52.50457031 19.97742188 52.93554688 18.73828125 C53.78835879 16.27696762 54.63444884 13.81331705 55.47460938 11.34765625 C55.88904297 10.16300781 56.30347656 8.97835937 56.73046875 7.7578125 C57.09551514 6.6970752 57.46056152 5.63633789 57.83666992 4.54345703 C59 2 59 2 62 0 C64.54370117 -0.13525391 64.54370117 -0.13525391 67.54296875 0.0234375 C68.61611328 0.075 69.68925781 0.1265625 70.79492188 0.1796875 C71.91447266 0.24414062 73.03402344 0.30859375 74.1875 0.375 C75.31865234 0.43171875 76.44980469 0.4884375 77.61523438 0.546875 C80.41079047 0.68842214 83.20545841 0.83984165 86 1 C86.41362793 2.22630127 86.82725586 3.45260254 87.25341797 4.71606445 C88.78837277 9.26298206 90.32909908 13.80792619 91.87158203 18.35229492 C92.53852553 20.31985938 93.20390005 22.2879564 93.86767578 24.2565918 C94.82172815 27.08523584 95.78139602 29.91192025 96.7421875 32.73828125 C97.03809784 33.61962234 97.33400818 34.50096344 97.6388855 35.40901184 C97.91902496 36.22963608 98.19916443 37.05026031 98.48779297 37.89575195 C98.85419388 38.97830009 98.85419388 38.97830009 99.22799683 40.0827179 C100.0333709 42.27080969 100.0333709 42.27080969 102 45 C103.18977796 41.75082963 104.37667936 38.50061667 105.5625 35.25 C106.10124756 33.77406372 106.10124756 33.77406372 106.65087891 32.26831055 C108.47498591 27.25422124 110.27641283 22.23427633 112.01953125 17.19140625 C112.33269287 16.28551758 112.64585449 15.37962891 112.96850586 14.44628906 C113.56297433 12.71908038 114.15376344 10.9906 114.74047852 9.26074219 C115.00916748 8.47989258 115.27785645 7.69904297 115.5546875 6.89453125 C115.78655762 6.21237549 116.01842773 5.53021973 116.25732422 4.82739258 C117 3 117 3 119 0 C121.61376953 -0.2487793 121.61376953 -0.2487793 124.8828125 -0.07421875 C126.04941406 -0.01943359 127.21601562 0.03535156 128.41796875 0.09179688 C130.25294922 0.20104492 130.25294922 0.20104492 132.125 0.3125 C133.35605469 0.37373047 134.58710937 0.43496094 135.85546875 0.49804688 C138.90462555 0.65168656 141.95232874 0.81959151 145 1 C144.40313706 4.24499708 143.64054239 7.29445673 142.546875 10.40625 C142.11689209 11.63432373 142.11689209 11.63432373 141.67822266 12.88720703 C141.37190918 13.74942871 141.0655957 14.61165039 140.75 15.5 C140.43208496 16.40218262 140.11416992 17.30436523 139.78662109 18.23388672 C138.13555575 22.8934117 136.43703782 27.52521169 134.625 32.125 C132.08873294 38.6037812 129.83003808 45.17297194 127.5625 51.75 C127.17328369 52.87809082 126.78406738 54.00618164 126.38305664 55.16845703 C124.93122337 59.38117853 123.48061618 63.59429537 122.0390625 67.81054688 C121.21847542 70.20876707 120.39128974 72.60460515 119.5625 75 C119.21070679 76.03979004 119.21070679 76.03979004 118.85180664 77.10058594 C117.85838464 79.95782186 117.16903336 81.83096664 115 84 C112.20263672 84.22705078 112.20263672 84.22705078 108.6796875 84.1953125 C106.79443359 84.18564453 106.79443359 84.18564453 104.87109375 84.17578125 C103.55238281 84.15902344 102.23367188 84.14226562 100.875 84.125 C99.53516279 84.11496983 98.19531848 84.10584404 96.85546875 84.09765625 C93.57013427 84.07402075 90.28515535 84.04107234 87 84 C83.11738325 75.0579626 79.81555698 65.97402364 76.6875 56.75 C76.22888219 55.40742681 75.76989968 54.06497815 75.31054688 52.72265625 C74.20284152 49.48318922 73.10001672 46.24208713 72 43 C71.75878418 43.67353516 71.51756836 44.34707031 71.26904297 45.04101562 C66.60237332 58.06242195 61.89818357 71.06377159 57 84 C47.43 84 37.86 84 28 84 C22.3754368 70.50104831 22.3754368 70.50104831 20.44458008 65.02563477 C20.01095657 63.80139297 19.57733307 62.57715118 19.13056946 61.31581116 C18.67684869 60.02435739 18.22317027 58.73288874 17.76953125 57.44140625 C17.28854565 56.08036597 16.80723106 54.71944191 16.3256073 53.35862732 C15.07248357 49.8156392 13.82316506 46.27132246 12.57489014 42.72662354 C10.56822418 37.03049393 8.55557503 31.33647553 6.54306602 25.64240837 C5.845083 23.66586608 5.14869975 21.68876613 4.45259094 19.71156311 C4.02842392 18.50938644 3.6042569 17.30720978 3.16723633 16.06860352 C2.79593094 15.01447769 2.42462555 13.96035187 2.04206848 12.87428284 C1.05459321 10.01791796 1.05459321 10.01791796 -0.19795227 7.43321228 C-1 5 -1 5 0 0 Z " fill="#FBC52A" transform="translate(561,76)"/>
<path d="M0 0 C2.67779226 2.42674923 4.72448081 4.53019871 6.56794739 7.67358398 C10.12276701 13.64438252 10.12276701 13.64438252 15.95932007 17.00512695 C19.52124969 17.3552952 22.93451804 17.36915193 26.51171875 17.25 C28.4413018 17.24444092 28.4413018 17.24444092 30.40986633 17.23876953 C33.12040758 17.22796374 35.82690203 17.18077992 38.53637695 17.10449219 C42.000499 17.00794339 45.46057426 16.98202049 48.92590618 16.98059082 C52.24673716 16.97407357 55.56623308 16.92418871 58.88671875 16.875 C60.12636887 16.86629883 61.36601898 16.85759766 62.64323425 16.84863281 C69.50760559 16.88322029 69.50760559 16.88322029 75.19995117 13.59887695 C75.79396729 12.74124756 76.3879834 11.88361816 77 11 C77.94746094 9.78376953 77.94746094 9.78376953 78.9140625 8.54296875 C80.06267946 6.96165362 81.20847779 5.37828759 82.3515625 3.79296875 C82.89554687 3.20128906 83.43953125 2.60960937 84 2 C84.99 2 85.98 2 87 2 C88.08335871 11.03722717 88.21881989 20.04268141 88.24023438 29.13134766 C88.24990065 31.59963204 88.28100295 34.06706737 88.3125 36.53515625 C88.50409133 65.52153096 80.36589713 91.89451387 60.73828125 113.48828125 C47.33501567 126.66398714 27.86774171 132.86420901 10.1875 137.9375 C9.41607666 138.16147461 8.64465332 138.38544922 7.84985352 138.61621094 C2.36400625 140.12133542 2.36400625 140.12133542 -1 139 C-1.02332821 121.02430767 -1.04097879 103.04861926 -1.05181217 85.07291508 C-1.0569753 76.72707171 -1.06401831 68.38123773 -1.07543945 60.03540039 C-1.08538579 52.7638123 -1.09185331 45.49223101 -1.09408849 38.22063631 C-1.09539569 34.36800479 -1.09848208 30.51539272 -1.10573006 26.66276741 C-1.11248948 23.04067328 -1.11461712 19.41860672 -1.11310768 15.79650688 C-1.11351637 13.82502772 -1.11891197 11.85355159 -1.12442017 9.88208008 C-1.1230455 8.71955215 -1.12167084 7.55702423 -1.12025452 6.35926819 C-1.12117631 5.34253053 -1.1220981 4.32579287 -1.12304783 3.27824497 C-1 1 -1 1 0 0 Z M13.6875 38.4375 C9.7257645 44.45346872 9.21908423 49.94353221 10 57 C11.40629656 62.08483585 12.52423173 66.01615449 17 69 C20.13073749 69.45000334 23.27776653 69.37028046 26.4375 69.375 C27.29666016 69.39949219 28.15582031 69.42398438 29.04101562 69.44921875 C34.13346757 69.50423714 34.13346757 69.50423714 38.53515625 67.1640625 C40.15770719 64.97672917 40.15770719 64.97672917 41 62 C41.99 61.505 41.99 61.505 43 61 C43.268125 61.763125 43.53625 62.52625 43.8125 63.3125 C45.28119588 66.69208078 45.28119588 66.69208078 48 69 C50.88170931 69.29932215 53.49894635 69.41872379 56.375 69.375 C57.50808594 69.39240234 57.50808594 69.39240234 58.6640625 69.41015625 C63.2483577 69.38611274 66.29107814 68.96713749 70 66 C73.64325495 60.01465259 74.72957487 53.96412373 74 47 C71.8326862 40.26992031 68.43739028 36.15836512 62.25 32.8125 C47.68616441 26.12612939 25.3372356 26.15804896 13.6875 38.4375 Z " fill="#F7AD15" transform="translate(20,22)"/>
<path d="M0 0 C10.41021757 10.83910294 13.2400448 22.2709057 13.16796875 36.90234375 C13 40 13 40 12 41 C10.22096643 41.12322758 8.43713797 41.17789019 6.65405273 41.20532227 C5.5129454 41.22526749 4.37183807 41.24521271 3.19615173 41.26576233 C1.9545076 41.28247482 0.71286346 41.29918732 -0.56640625 41.31640625 C-1.83016586 41.33718735 -3.09392548 41.35796844 -4.39598083 41.37937927 C-7.76118633 41.43383714 -11.12640173 41.4840428 -14.49169922 41.53222656 C-17.92355901 41.58239759 -21.35532831 41.63810655 -24.78710938 41.69335938 C-31.52466761 41.80070191 -38.26229336 41.90244325 -45 42 C-43.81567284 45.78790329 -43.81567284 45.78790329 -40.875 48.1875 C-39.92625 48.455625 -38.9775 48.72375 -38 49 C-36.80375 49.391875 -35.6075 49.78375 -34.375 50.1875 C-27.14258788 51.87642487 -20.43240133 51.14701297 -14.0625 47.3125 C-13.37285156 46.83425781 -12.68320312 46.35601562 -11.97265625 45.86328125 C-10 45 -10 45 -8.1328125 45.484375 C-5.05034783 47.6748444 -2.46248148 50.24915932 0.1875 52.9375 C1.00637695 53.74477539 1.00637695 53.74477539 1.84179688 54.56835938 C4.27299314 57.01160618 5.89577976 58.68733927 7 62 C-3.94992867 72.36748565 -14.95947743 75.83194947 -30 76 C-44.96894863 75.10484693 -57.62381535 70.00934708 -68.10546875 59.20703125 C-76.80444619 49.07317093 -77.82202883 37.9233712 -77 25 C-75.59350588 14.20759463 -69.40890282 4.99623656 -60.91796875 -1.7265625 C-42.50760878 -13.95014163 -17.35765364 -14.74529774 0 0 Z M-44.3125 17.5 C-46.13589869 19.95993343 -46.13589869 19.95993343 -47 23 C-43.20925463 23.88563089 -39.71304102 24.11681301 -35.82421875 24.09765625 C-34.66728516 24.09443359 -33.51035156 24.09121094 -32.31835938 24.08789062 C-31.12017578 24.07951172 -29.92199219 24.07113281 -28.6875 24.0625 C-27.46998047 24.05798828 -26.25246094 24.05347656 -24.99804688 24.04882812 C-21.99864774 24.03706578 -18.99934911 24.02062826 -16 24 C-17.48814193 19.04181282 -19.01767274 16.39954766 -23 13 C-30.83498181 10.3883394 -38.5785478 11.30113276 -44.3125 17.5 Z " fill="#F8B727" transform="translate(546,86)"/>
<path d="M0 0 C9.9 0 19.8 0 30 0 C31.12504289 10.12538603 31.12504289 10.12538603 31.12698364 13.98583984 C31.12980347 14.86342453 31.13262329 15.74100922 31.13552856 16.64518738 C31.13350433 17.57438492 31.1314801 18.50358246 31.12939453 19.4609375 C31.13114685 20.46526321 31.13289917 21.46958893 31.13470459 22.50434875 C31.13907482 25.79458386 31.13620401 29.08476444 31.1328125 32.375 C31.1334865 34.6690268 31.13445733 36.96305352 31.13571167 39.25708008 C31.13718173 44.04818405 31.13505477 48.83926931 31.13037109 53.63037109 C31.12464838 59.78545605 31.12797318 65.94049765 31.13394356 72.09558105 C31.1375459 76.82399832 31.13641255 81.55240519 31.13381577 86.28082275 C31.13314692 88.55194097 31.13397344 90.82306012 31.13629532 93.09417725 C31.13881925 96.25421685 31.13498612 99.41418454 31.12939453 102.57421875 C31.13141876 103.51961014 31.13344299 104.46500153 31.13552856 105.43904114 C31.11426777 111.88573223 31.11426777 111.88573223 30 113 C20.1 113 10.2 113 0 113 C0 75.71 0 38.42 0 0 Z " fill="#ED8621" transform="translate(265,47)"/>
<path d="M0 0 C1.2463623 0.01047363 2.49272461 0.02094727 3.77685547 0.03173828 C4.77143265 0.03598312 4.77143265 0.03598312 5.78610229 0.04031372 C7.9055988 0.05151643 10.02467401 0.07662027 12.14404297 0.10205078 C13.58023479 0.11208051 15.01643322 0.12120637 16.45263672 0.12939453 C19.97490925 0.15145578 23.496935 0.18598585 27.01904297 0.22705078 C26.39800248 4.64264863 25.2763756 7.88398292 23.18701172 11.83642578 C21.79805463 14.67937474 20.69401897 17.57762729 19.58154297 20.53955078 C17.65127142 25.66720464 15.51639328 30.63587261 13.20654297 35.60205078 C12.04032713 38.18000158 10.98504858 40.77900514 9.95654297 43.41455078 C8.79477252 46.37938897 7.55700841 49.21846086 6.08154297 52.03955078 C3.76922979 56.51965756 2.08233432 61.20922775 0.30810547 65.92236328 C-1.24209888 69.89652352 -3.00080327 73.74640825 -4.79736328 77.61376953 C-5.93582289 80.12739818 -6.97372345 82.6584029 -7.98095703 85.22705078 C-10.9374178 92.7438822 -14.36970195 100.00454063 -17.98095703 107.22705078 C-27.88095703 107.22705078 -37.78095703 107.22705078 -47.98095703 107.22705078 C-48.31095703 106.56705078 -48.64095703 105.90705078 -48.98095703 105.22705078 C-48.18729685 103.25483508 -47.29282631 101.32290274 -46.35595703 99.41455078 C-44.24018922 95.09172568 -42.39878015 90.76772304 -40.69799805 86.26342773 C-38.16601725 79.6453548 -35.4555913 73.11777989 -32.67236328 66.60205078 C-32.18315903 65.45269043 -31.69395477 64.30333008 -31.18992615 63.11914062 C-30.16328712 60.70867555 -29.13552888 58.29868687 -28.10668945 55.88916016 C-26.54792299 52.23751297 -24.99368439 48.5839628 -23.43994141 44.93017578 C-22.43435214 42.57068565 -21.42850143 40.21130691 -20.42236328 37.85205078 C-19.96591934 36.77874512 -19.5094754 35.70543945 -19.03919983 34.59960938 C-16.24786414 28.07111429 -13.3376832 21.61039437 -10.32188416 15.18237305 C-8.67757232 11.55840923 -7.23120606 7.88013042 -5.84033203 4.15283203 C-4.40611313 0.93887786 -3.53787242 0.2694694 0 0 Z " fill="#F29522" transform="translate(394.98095703125,52.77294921875)"/>
<path d="M0 0 C4.11193736 0.11798252 8.22363288 0.24221059 12.33520508 0.37231445 C13.73489199 0.41571434 15.13463359 0.45738564 16.53442383 0.49731445 C18.54261495 0.55489445 20.55061149 0.61914 22.55859375 0.68359375 C23.76829834 0.72025146 24.97800293 0.75690918 26.22436523 0.79467773 C29 1 29 1 30 2 C30.10035816 4.52002451 30.13617712 7.012662 30.12939453 9.53320312 C30.13114685 10.32178207 30.13289917 11.11036102 30.13470459 11.9228363 C30.13912358 14.5423296 30.13618496 17.16175596 30.1328125 19.78125 C30.13348553 21.5934653 30.13445554 23.40568052 30.13571167 25.21789551 C30.13718871 29.02108619 30.1350339 32.82425344 30.13037109 36.62744141 C30.1246738 41.51378495 30.12795278 46.40007357 30.13394356 51.2864151 C30.13754901 55.03005389 30.13641066 58.77367955 30.13381577 62.51731873 C30.13314645 64.31953437 30.13397507 66.12175118 30.13629532 67.92396545 C30.13882159 70.43827491 30.13498162 72.95249417 30.12939453 75.46679688 C30.13141876 76.21904037 30.13344299 76.97128387 30.13552856 77.74632263 C30.1142626 82.8857374 30.1142626 82.8857374 29 84 C26.86646826 84.10003289 24.72962458 84.13081048 22.59375 84.1328125 C21.29308594 84.13410156 19.99242187 84.13539063 18.65234375 84.13671875 C17.97155762 84.13462402 17.29077148 84.1325293 16.58935547 84.13037109 C14.50871485 84.1250224 12.42829011 84.1303168 10.34765625 84.13671875 C8.39666016 84.13478516 8.39666016 84.13478516 6.40625 84.1328125 C5.20291016 84.13168457 3.99957031 84.13055664 2.75976562 84.12939453 C0 84 0 84 -1 83 C-1.10036005 80.48524626 -1.1361771 77.99793752 -1.12939453 75.48266602 C-1.13114685 74.69569336 -1.13289917 73.9087207 -1.13470459 73.09790039 C-1.13912411 70.48321358 -1.13618449 67.86859381 -1.1328125 65.25390625 C-1.13348558 63.44408658 -1.13445564 61.63426699 -1.13571167 59.82444763 C-1.13718883 56.0254531 -1.13503375 52.22648204 -1.13037109 48.42749023 C-1.12467785 43.55021322 -1.12795013 38.67299127 -1.13394356 33.79571629 C-1.13755214 30.05632612 -1.13640914 26.31694907 -1.13381577 22.57755852 C-1.13314711 20.77896048 -1.13397279 18.98036126 -1.13629532 17.1817646 C-1.13882624 14.6700537 -1.13497481 12.1584327 -1.12939453 9.64672852 C-1.13141876 8.89808029 -1.13344299 8.14943207 -1.13552856 7.37809753 C-1.11426347 2.22852694 -1.11426347 2.22852694 0 0 Z " fill="#F6A525" transform="translate(428,76)"/>
<path d="M0 0 C10.89 0 21.78 0 33 0 C35.07899579 4.50662712 37.13502263 9.01388753 39.14624023 13.54980469 C39.83465044 15.08706583 40.53404508 16.61945981 41.24487305 18.14648438 C47.90120734 32.47888653 47.90120734 32.47888653 46.06640625 38.75390625 C45.04614258 41.0625 45.04614258 41.0625 44 43 C43.62359375 43.91910156 43.2471875 44.83820313 42.859375 45.78515625 C42.49328125 46.53667969 42.1271875 47.28820312 41.75 48.0625 C39.40283527 53.04394442 37.27225077 58.09232264 35.1875 63.1875 C34.87329102 63.95521729 34.55908203 64.72293457 34.23535156 65.51391602 C33.48863658 67.34195883 32.74408335 69.17088444 32 71 C31.01 71 30.02 71 29 71 C24.3638063 62.07532712 20.34539501 52.9723603 16.5 43.6875 C15.95218228 42.37550094 15.40400605 41.0636515 14.85546875 39.75195312 C11.61340559 31.98121723 8.45880295 24.17944085 5.37084961 16.34619141 C3.66281201 12.17693703 1.76319544 8.12103287 -0.21484375 4.07421875 C-0.47394531 3.38972656 -0.73304688 2.70523438 -1 2 C-0.67 1.34 -0.34 0.68 0 0 Z " fill="#F29522" transform="translate(302,53)"/>
<path d="M0 0 C4.77792942 5.01682589 5.35682018 8.48278468 5.27734375 15.23828125 C4.75658365 20.42387831 2.16345188 22.95005562 -1.5625 26.3125 C-7.4781959 29.21656889 -13.96509679 29.98426341 -20.3125 27.9375 C-24.4524094 26.08902193 -27.07210457 23.42778001 -30 20 C-31.66619387 15.0014184 -31.62822535 10.6862891 -29.8125 5.8125 C-26.96740864 1.39770306 -24.58885032 -1.38211377 -19.625 -3.3125 C-12.03099716 -4.75274192 -6.61087806 -3.97675643 0 0 Z " fill="#F6A624" transform="translate(455,41)"/>
<path d="M0 0 C2.89490519 2.53304204 3.79773596 4.35275508 4.9375 8 C5.02708657 12.30015557 3.32603553 14.39867639 0.6640625 17.61328125 C-2.00422703 19.83685586 -4.4194683 19.52801233 -7.7734375 19.4296875 C-11.30477188 18.74820192 -12.88247849 16.77924698 -15 14 C-16.45147903 11.09704195 -16.37239025 9.22738221 -16 6 C-11.74867949 -0.86873799 -7.54610843 -1.94694968 0 0 Z " fill="#F6AF1A" transform="translate(52,63)"/>
<path d="M0 0 C2.66058731 2.14144833 3.7253011 3.56867416 4.37109375 6.93359375 C4.61139858 10.78575305 4.2437079 12.61819095 2.125 15.9375 C-1.33452544 19.29527469 -4.05139671 19.46667553 -8.734375 19.40625 C-11 19 -11 19 -14.0625 16.4375 C-16.32738586 12.41915413 -16.80968831 10.53425456 -16 6 C-11.78682779 -0.90836326 -7.53256049 -1.91324361 0 0 Z " fill="#F6AE17" transform="translate(82,63)"/>
<path d="M0 0 C9.57 0.33 19.14 0.66 29 1 C29 1.66 29 2.32 29 3 C19.76 3 10.52 3 1 3 C1 29.4 1 55.8 1 83 C9.91 83 18.82 83 28 83 C28 80.03 28 77.06 28 74 C28.66 74 29.32 74 30 74 C30.02689216 75.47906892 30.04634621 76.95827483 30.0625 78.4375 C30.07410156 79.26121094 30.08570313 80.08492188 30.09765625 80.93359375 C30 83 30 83 29 84 C26.86646826 84.10003289 24.72962458 84.13081048 22.59375 84.1328125 C21.29308594 84.13410156 19.99242187 84.13539063 18.65234375 84.13671875 C17.97155762 84.13462402 17.29077148 84.1325293 16.58935547 84.13037109 C14.50871485 84.1250224 12.42829011 84.1303168 10.34765625 84.13671875 C8.39666016 84.13478516 8.39666016 84.13478516 6.40625 84.1328125 C5.20291016 84.13168457 3.99957031 84.13055664 2.75976562 84.12939453 C0 84 0 84 -1 83 C-1.10036005 80.48524626 -1.1361771 77.99793752 -1.12939453 75.48266602 C-1.13114685 74.69569336 -1.13289917 73.9087207 -1.13470459 73.09790039 C-1.13912411 70.48321358 -1.13618449 67.86859381 -1.1328125 65.25390625 C-1.13348558 63.44408658 -1.13445564 61.63426699 -1.13571167 59.82444763 C-1.13718883 56.0254531 -1.13503375 52.22648204 -1.13037109 48.42749023 C-1.12467785 43.55021322 -1.12795013 38.67299127 -1.13394356 33.79571629 C-1.13755214 30.05632612 -1.13640914 26.31694907 -1.13381577 22.57755852 C-1.13314711 20.77896048 -1.13397279 18.98036126 -1.13629532 17.1817646 C-1.13882624 14.6700537 -1.13497481 12.1584327 -1.12939453 9.64672852 C-1.13141876 8.89808029 -1.13344299 8.14943207 -1.13552856 7.37809753 C-1.11426347 2.22852694 -1.11426347 2.22852694 0 0 Z " fill="#DAAF3B" transform="translate(428,76)"/>
<path d="M0 0 C2.5 2.3125 2.5 2.3125 5 5 C5 5.99 5 6.98 5 8 C4.34 6.68 3.68 5.36 3 4 C2.34 4 1.68 4 1 4 C1.00222061 4.69663254 1.00444122 5.39326508 1.00672913 6.11100769 C1.03409251 15.13649421 1.05194375 24.16198003 1.0625 33.1875 C1.06335602 33.91415234 1.06421204 34.64080467 1.06509399 35.38947678 C1.0951023 64.269718 0.69134067 93.12733347 0 122 C-0.33 122 -0.66 122 -1 122 C-1.02332931 106.24083256 -1.04097933 90.48166976 -1.05181217 74.72248936 C-1.05697506 67.40572598 -1.06401762 60.0889733 -1.07543945 52.7722168 C-1.08538651 46.39716982 -1.09185348 40.02213059 -1.09408849 33.64707607 C-1.09539557 30.26951986 -1.09848119 26.89198584 -1.10573006 23.51443672 C-1.11293613 19.74992657 -1.11399113 15.98546315 -1.11352539 12.22094727 C-1.1189183 10.52918114 -1.1189183 10.52918114 -1.12442017 8.80323792 C-1.1230455 7.78375061 -1.12167084 6.76426331 -1.12025452 5.71388245 C-1.12117631 4.82250863 -1.1220981 3.93113482 -1.12304783 3.01274967 C-1 1 -1 1 0 0 Z " fill="#F8BB51" transform="translate(20,22)"/>
<path d="M0 0 C4.63583841 3.99954687 5.70735175 10.03693179 6.14501953 15.96386719 C6.30902515 20.31465788 6.29498357 24.65466503 6 29 C4.29698758 30.70301242 2.10637023 30.13626608 -0.22241211 30.14526367 C-1.3370433 30.15164352 -2.4516745 30.15802338 -3.6000824 30.16459656 C-5.42032677 30.16626579 -5.42032677 30.16626579 -7.27734375 30.16796875 C-9.13257408 30.17296135 -9.13257408 30.17296135 -11.02528381 30.17805481 C-13.64730455 30.1831293 -16.26933178 30.18546298 -18.89135742 30.18530273 C-21.58706342 30.18522129 -24.28260019 30.19218657 -26.97827148 30.20581055 C-30.84884898 30.22405346 -34.71922767 30.22903586 -38.58984375 30.23046875 C-40.40705177 30.24124702 -40.40705177 30.24124702 -42.26097107 30.25224304 C-43.37875443 30.24916641 -44.49653778 30.24608978 -45.64819336 30.24291992 C-46.63556992 30.24434494 -47.62294647 30.24576996 -48.64024353 30.24723816 C-51 30 -51 30 -53 28 C-34.19 28 -15.38 28 4 28 C3.43722616 15.95156698 3.43722616 15.95156698 2 4 C1.34 4 0.68 4 0 4 C0 2.68 0 1.36 0 0 Z " fill="#F6BB56" transform="translate(553,97)"/>
<path d="M0 0 C0.33 0 0.66 0 1 0 C1 22.44 1 44.88 1 68 C2.98 68 4.96 68 7 68 C7 67.34 7 66.68 7 66 C7.639375 65.87625 8.27875 65.7525 8.9375 65.625 C9.9584375 65.315625 9.9584375 65.315625 11 65 C11.33 64.34 11.66 63.68 12 63 C12 63.99 12 64.98 12 66 C12.99 66 13.98 66 15 66 C14.34 64.68 13.68 63.36 13 62 C15.97 62.66 18.94 63.32 22 64 C18.938387 67.061613 15.17012306 67.56549557 11.0625 68.6875 C10.23814453 68.92533203 9.41378906 69.16316406 8.56445312 69.40820312 C7.37432617 69.73788086 7.37432617 69.73788086 6.16015625 70.07421875 C5.43449463 70.27619873 4.70883301 70.47817871 3.96118164 70.6862793 C2 71 2 71 -1 70 C-1.09498651 55.14120764 -0.79724555 40.29279502 -0.5 25.4375 C-0.45167219 22.96159148 -0.40349401 20.48568003 -0.35546875 18.00976562 C-0.23870227 12.00647564 -0.12009634 6.00322425 0 0 Z " fill="#F4B735" transform="translate(20,91)"/>
<path d="M0 0 C2.5625 2.75 2.5625 2.75 4 5 C3.67 5.66 3.34 6.32 3 7 C2.34 6.01 1.68 5.02 1 4 C0.01 3.855625 -0.98 3.71125 -2 3.5625 C-2.99 3.376875 -3.98 3.19125 -5 3 C-5.28875 2.34 -5.5775 1.68 -5.875 1 C-6.24625 0.34 -6.6175 -0.32 -7 -1 C-12.06782207 -2.16310671 -15.30388323 -2.47850607 -20 0 C-20.721875 0.28875 -21.44375 0.5775 -22.1875 0.875 C-24.47524377 2.29497889 -24.98454563 3.53389654 -26 6 C-26.66666667 7.33333333 -27.33333333 8.66666667 -28 10 C-28.66 10 -29.32 10 -30 10 C-30 11.32 -30 12.64 -30 14 C-28.68 14 -27.36 14 -26 14 C-25.67 14.99 -25.34 15.98 -25 17 C-25.99 17 -26.98 17 -28 17 C-27.67 17.99 -27.34 18.98 -27 20 C-26.34 20.33 -25.68 20.66 -25 21 C-25.33 21.99 -25.66 22.98 -26 24 C-29.80726834 20.43836187 -30.90159494 18.50067721 -31.25 13.1875 C-31.1607788 7.77474736 -29.14820258 4.4033587 -25.75 0.25 C-17.84589297 -6.21699666 -8.26234028 -4.99249519 0 0 Z " fill="#E8A93E" transform="translate(455,41)"/>
<path d="M0 0 C9.9 0 19.8 0 30 0 C29.19980115 4.80119308 28.45116558 7.64113904 26.4375 11.875 C25.98246094 12.84179688 25.52742188 13.80859375 25.05859375 14.8046875 C24.70925781 15.52914062 24.35992187 16.25359375 24 17 C23.67 17 23.34 17 23 17 C23 14.69 23 12.38 23 10 C23.99 9.67 24.98 9.34 26 9 C26 7.02 26 5.04 26 3 C21.70834738 2.97108051 17.41671964 2.95322882 13.125 2.9375 C11.90167969 2.92912109 10.67835938 2.92074219 9.41796875 2.91210938 C8.25136719 2.90888672 7.08476562 2.90566406 5.8828125 2.90234375 C4.80402832 2.89710693 3.72524414 2.89187012 2.61376953 2.88647461 C0.01767814 2.82116894 0.01767814 2.82116894 -2 4 C-1.34 2.68 -0.68 1.36 0 0 Z " fill="#E0983D" transform="translate(392,53)"/>
<path d="M0 0 C0.99 0 1.98 0 3 0 C4.10922798 9.11124201 4.18619359 18.1877237 4.18530273 27.35107422 C4.18748966 29.86312814 4.20570941 32.37474202 4.22460938 34.88671875 C4.25573985 44.13896849 3.80698164 52.89445058 2 62 C1.67 62 1.34 62 1 62 C0.97315321 59.35409986 0.95323643 56.70846904 0.9375 54.0625 C0.92912109 53.30775391 0.92074219 52.55300781 0.91210938 51.77539062 C0.90347559 49.85005687 0.94775667 47.92464419 1 46 C1.495 45.505 1.495 45.505 2 45 C2.10082764 42.56339554 2.13972603 40.15575299 2.1328125 37.71875 C2.13376923 36.99006714 2.13472595 36.26138428 2.13571167 35.51062012 C2.13639335 33.9672029 2.13453988 32.42378283 2.13037109 30.88037109 C2.12502262 28.510026 2.13031642 26.13987041 2.13671875 23.76953125 C2.13605797 22.27343708 2.1347768 20.77734303 2.1328125 19.28125 C2.13483673 18.56771362 2.13686096 17.85417725 2.13894653 17.11901855 C2.41648651 13.77513571 2.41648651 13.77513571 1 11 C0.85884839 8.32941149 0.95752893 5.67567762 1 3 C0.01 3.33 -0.98 3.66 -2 4 C-1.34 2.68 -0.68 1.36 0 0 Z " fill="#ECB342" transform="translate(104,24)"/>
<path d="M0 0 C1.5 1.3125 1.5 1.3125 3 3 C3 3.99 3 4.98 3 6 C4.65 6.33 6.3 6.66 8 7 C7.67 8.98 7.34 10.96 7 13 C7.66 13 8.32 13 9 13 C9 13.66 9 14.32 9 15 C8.01 15.495 8.01 15.495 7 16 C7.66 16.33 8.32 16.66 9 17 C9.6328125 18.92578125 9.6328125 18.92578125 10.125 21.3125 C10.29257812 22.09238281 10.46015625 22.87226563 10.6328125 23.67578125 C11 26 11 26 11 30 C11.66 30 12.32 30 13 30 C13.33 32.97 13.66 35.94 14 39 C11.26511815 36.26511815 10.42635438 33.05191308 9.1796875 29.47265625 C8.91616486 28.72793564 8.65264221 27.98321503 8.38113403 27.21592712 C7.82535158 25.64078401 7.27243486 24.06462724 6.72216797 22.48754883 C5.87861286 20.07284195 5.02399438 17.66226335 4.16796875 15.25195312 C3.62954114 13.72158874 3.09175898 12.19099708 2.5546875 10.66015625 C2.29847626 9.93820572 2.04226501 9.21625519 1.77828979 8.47242737 C0.7535096 5.51800128 0 3.15130375 0 0 Z " fill="#FAC72E" transform="translate(574,117)"/>
<path d="M0 0 C13.365 0.495 13.365 0.495 27 1 C27.33 1.99 27.66 2.98 28 4 C19.75 3.67 11.5 3.34 3 3 C3 6.3 3 9.6 3 13 C1.17663931 10.26495897 -0.03406278 8.12072025 -1 5 C-0.67 3.35 -0.34 1.7 0 0 Z " fill="#F1C74E" transform="translate(561,76)"/>
<path d="M0 0 C1.39120471 0.00015906 2.78241534 0.00585033 4.17358398 0.01586914 C4.90463852 0.01728409 5.63569305 0.01869904 6.38890076 0.02015686 C8.73253406 0.02577131 11.07607313 0.03832617 13.41967773 0.05102539 C15.00496282 0.05603853 16.59024939 0.06060176 18.17553711 0.06469727 C22.06945383 0.07574542 25.96329979 0.09301967 29.85717773 0.11352539 C30.84717773 3.08352539 31.83717773 6.05352539 32.85717773 9.11352539 C31.86717773 8.12352539 30.87717773 7.13352539 29.85717773 6.11352539 C29.85717773 5.12352539 29.85717773 4.13352539 29.85717773 3.11352539 C25.47893857 3.0641439 21.10084627 3.02781499 16.72241211 3.00366211 C15.23247454 2.99359496 13.74255676 2.97994022 12.25268555 2.96264648 C10.11298745 2.93842886 7.97355021 2.92704975 5.83374023 2.91821289 C4.5454834 2.90773926 3.25722656 2.89726563 1.92993164 2.88647461 C-1.24983033 2.78514875 -1.24983033 2.78514875 -3.14282227 5.11352539 C-3.70532227 3.17602539 -3.70532227 3.17602539 -4.14282227 1.11352539 C-3.14282227 0.11352539 -3.14282227 0.11352539 0 0 Z " fill="#DE9744" transform="translate(305.142822265625,52.886474609375)"/>
<path d="M0 0 C0.66 0.33 1.32 0.66 2 1 C-0.14672342 11.73361712 -3.23109923 21.63735776 -9 31 C-10 29 -10 29 -9.1875 25.4375 C-8 22 -8 22 -6 21 C-5.30862927 19.01924593 -5.30862927 19.01924593 -4.875 16.6875 C-4.62363281 15.51767578 -4.62363281 15.51767578 -4.3671875 14.32421875 C-3.89596812 11.73367445 -3.89596812 11.73367445 -4 8 C-4.66 8.66 -5.32 9.32 -6 10 C-5.67 7.36 -5.34 4.72 -5 2 C-3.68 2.66 -2.36 3.32 -1 4 C-0.67 2.68 -0.34 1.36 0 0 Z " fill="#EFB031" transform="translate(103,87)"/>
<path d="M0 0 C8.58 0 17.16 0 26 0 C23.75 10.125 23.75 10.125 22 14 C21.67 14 21.34 14 21 14 C20.67 11.69 20.34 9.38 20 7 C20.99 7 21.98 7 23 7 C23 5.68 23 4.36 23 3 C15.08 3 7.16 3 -1 3 C-0.67 2.01 -0.34 1.02 0 0 Z " fill="#D37C37" transform="translate(232,77)"/>
<path d="M0 0 C12.87 0.495 12.87 0.495 26 1 C25.25386143 4.73069283 24.46826597 7.57404607 23 11 C22 8 22 8 24 3 C17.4 3.33 10.8 3.66 4 4 C4 3.34 4 2.68 4 2 C1.49034386 2.70339566 1.49034386 2.70339566 -1 4 C-1.88693303 6.04105639 -1.88693303 6.04105639 -2 8 C-2.33 7.34 -2.66 6.68 -3 6 C-2.01 4.02 -1.02 2.04 0 0 Z " fill="#F0C55C" transform="translate(680,76)"/>
<path d="M0 0 C0 0.66 0 1.32 0 2 C-0.99 2 -1.98 2 -3 2 C-3 2.66 -3 3.32 -3 4 C-3.928125 4.45375 -4.85625 4.9075 -5.8125 5.375 C-9.03921389 6.9421633 -9.03921389 6.9421633 -12 9 C-11.67 10.32 -11.34 11.64 -11 13 C-13.65228812 14.07525194 -16.28368454 15.09456151 -19 16 C-20.00217064 19.58327753 -20.00217064 19.58327753 -19 23 C-19.99 23.33 -20.98 23.66 -22 24 C-22.66 23.67 -23.32 23.34 -24 23 C-20.44681619 13.21587066 -12.86807602 5.81559779 -3.85546875 0.80859375 C-2 0 -2 0 0 0 Z " fill="#EEB644" transform="translate(496,79)"/>
<path d="M0 0 C0.66 0.33 1.32 0.66 2 1 C1.23517162 3.06473432 0.46287235 5.1267021 -0.3125 7.1875 C-0.95638672 8.91033203 -0.95638672 8.91033203 -1.61328125 10.66796875 C-2.86086178 13.66567632 -4.19057175 16.30866554 -6 19 C-6.33 19 -6.66 19 -7 19 C-7 14.38 -7 9.76 -7 5 C-5.35 4.67 -3.7 4.34 -2 4 C-0.63979849 2.03241727 -0.63979849 2.03241727 0 0 Z " fill="#E8932D" transform="translate(397,108)"/>
<path d="M0 0 C9.57 0.33 19.14 0.66 29 1 C29 1.66 29 2.32 29 3 C19.43 3.33 9.86 3.66 0 4 C0 2.68 0 1.36 0 0 Z " fill="#E6A946" transform="translate(428,76)"/>
<path d="M0 0 C2.375 0.625 2.375 0.625 5 2 C6.3125 5.125 6.3125 5.125 7 8 C6.34 8 5.68 8 5 8 C5 9.65 5 11.3 5 13 C5.99 13 6.98 13 8 13 C8 15.97 8 18.94 8 22 C5.94735134 19.94735134 5.43471474 18.86232041 4.4921875 16.19140625 C4.22792969 15.44439453 3.96367187 14.69738281 3.69140625 13.92773438 C3.42199219 13.14720703 3.15257812 12.36667969 2.875 11.5625 C2.59785156 10.78583984 2.32070312 10.00917969 2.03515625 9.20898438 C0 3.38923953 0 3.38923953 0 0 Z " fill="#E37A2C" transform="translate(128,122)"/>
<path d="M0 0 C0.99 0.33 1.98 0.66 3 1 C4.45741472 1.09185751 5.9186012 1.13066657 7.37890625 1.1328125 C8.21744141 1.13410156 9.05597656 1.13539062 9.91992188 1.13671875 C10.79197266 1.13285156 11.66402344 1.12898438 12.5625 1.125 C13.43841797 1.12886719 14.31433594 1.13273437 15.21679688 1.13671875 C16.05404297 1.13542969 16.89128906 1.13414063 17.75390625 1.1328125 C18.52033447 1.13168457 19.2867627 1.13055664 20.07641602 1.12939453 C22.08443868 1.11868694 22.08443868 1.11868694 24 0 C23.67 1.32 23.34 2.64 23 4 C15.41 4.33 7.82 4.66 0 5 C0 3.35 0 1.7 0 0 Z " fill="#F1AB27" transform="translate(34,89)"/>
<path d="M0 0 C1.25425781 0.00902344 2.50851562 0.01804687 3.80078125 0.02734375 C4.75339844 0.03894531 5.70601562 0.05054687 6.6875 0.0625 C6.6875 0.7225 6.6875 1.3825 6.6875 2.0625 C5.89085937 2.02769531 5.09421875 1.99289063 4.2734375 1.95703125 C-4.0057684 1.6068371 -4.0057684 1.6068371 -11.3125 5.0625 C-13.67952059 8.11047373 -13.67952059 8.11047373 -15.3125 11.0625 C-13.9925 12.0525 -12.6725 13.0425 -11.3125 14.0625 C-12.9625 14.0625 -14.6125 14.0625 -16.3125 14.0625 C-17.30452689 9.98416722 -17.21927603 7.87605207 -15.3125 4.0625 C-14.3225 4.0625 -13.3325 4.0625 -12.3125 4.0625 C-12.3125 3.0725 -12.3125 2.0825 -12.3125 1.0625 C-8.15623632 0.05323521 -4.26884906 -0.03989579 0 0 Z " fill="#F5BA42" transform="translate(515.3125,96.9375)"/>
<path d="M0 0 C0.66 0 1.32 0 2 0 C2.515625 1.134375 3.03125 2.26875 3.5625 3.4375 C5.05917714 5.72870944 6.19788076 6.81826341 8.89648438 7.4296875 C13.91784958 8.01470092 18.95010562 8.03897383 24 8 C24 8.33 24 8.66 24 9 C13.11 9.495 13.11 9.495 2 10 C2 8 2 6 2 4 C0.68 4.33 -0.64 4.66 -2 5 C-1.34 3.35 -0.68 1.7 0 0 Z " fill="#EBB03C" transform="translate(61,83)"/>
<path d="M0 0 C2.32976763 1.8232964 2.99973834 2.99914028 3.875 5.875 C4.05135527 10.28388166 2.3632355 12.30910256 -0.31640625 15.6328125 C-2.54309948 17.44103206 -3.85961409 17.31045156 -6.6875 17.1875 C-7.49574219 17.16042969 -8.30398437 17.13335937 -9.13671875 17.10546875 C-9.75160156 17.07066406 -10.36648437 17.03585938 -11 17 C-11 16.67 -11 16.34 -11 16 C-9.02 15.67 -7.04 15.34 -5 15 C-4.67 14.01 -4.34 13.02 -4 12 C-2.68 12.33 -1.36 12.66 0 13 C-0.33 12.01 -0.66 11.02 -1 10 C-0.01 10 0.98 10 2 10 C2 8.35 2 6.7 2 5 C1.34 5 0.68 5 0 5 C0 3.35 0 1.7 0 0 Z " fill="#F1B036" transform="translate(53,65)"/>
<path d="M0 0 C2.4375 0.75 2.4375 0.75 4 2 C3.01 2.495 3.01 2.495 2 3 C2 3.66 2 4.32 2 5 C-0.66666667 5.66666667 -3.33333333 6.33333333 -6 7 C-6.6909375 7.185625 -7.381875 7.37125 -8.09375 7.5625 C-10.43013172 8.09871875 -12.61137163 8.06635079 -15 8 C-15 7.34 -15 6.68 -15 6 C-13.824375 5.7525 -12.64875 5.505 -11.4375 5.25 C-8.311527 4.4975534 -5.95143422 3.48454344 -3.25 1.75 C-2.1775 1.1725 -1.105 0.595 0 0 Z " fill="#F6B64A" transform="translate(536,131)"/>
<path d="M0 0 C0.66 0.66 1.32 1.32 2 2 C1.67 2.33 1.34 2.66 1 3 C0.8396444 6.02807044 0.74039552 9.03585454 0.68359375 12.06640625 C0.66281265 12.97502914 0.64203156 13.88365204 0.62062073 14.81980896 C0.55502328 17.73395946 0.4961932 20.64820304 0.4375 23.5625 C0.39432446 25.53321291 0.35071049 27.50391626 0.30664062 29.47460938 C0.19933157 34.31630988 0.09809325 39.15810437 0 44 C-0.33 44 -0.66 44 -1 44 C-1.02464513 37.8944529 -1.04283371 31.78893449 -1.05493164 25.68334961 C-1.05997288 23.60456844 -1.06680574 21.52579084 -1.07543945 19.44702148 C-1.08751422 16.46597414 -1.09323024 13.48497351 -1.09765625 10.50390625 C-1.10539818 9.10078941 -1.10539818 9.10078941 -1.11329651 7.66932678 C-1.11337204 6.80850998 -1.11344757 5.94769318 -1.11352539 5.06079102 C-1.115746 4.29912125 -1.11796661 3.53745148 -1.12025452 2.75270081 C-1 1 -1 1 0 0 Z " fill="#FBBE6B" transform="translate(20,22)"/>
<path d="M0 0 C4.455 0.99 4.455 0.99 9 2 C6.71185277 4.28814723 5.19248378 4.75451161 2.125 5.6875 C1.26132812 5.95949219 0.39765625 6.23148438 -0.4921875 6.51171875 C-3.08694932 7.01692938 -4.530785 6.85561171 -7 6 C-5.625 4.5 -5.625 4.5 -4 3 C-3.34 3 -2.68 3 -2 3 C-1.67 2.34 -1.34 1.68 -1 1 C-1 1.99 -1 2.98 -1 4 C-0.01 4 0.98 4 2 4 C1.34 2.68 0.68 1.36 0 0 Z " fill="#F1AD30" transform="translate(33,153)"/>
<path d="M0 0 C2.52062197 1.26031098 3.78515742 2.37672043 4.7109375 5.0625 C5.56605986 8.82999563 6 12.11225526 6 16 C6.66 16 7.32 16 8 16 C8.33 18.97 8.66 21.94 9 25 C6.811636 22.811636 6.28365452 21.4227652 5.2734375 18.53515625 C4.9640625 17.65279297 4.6546875 16.77042969 4.3359375 15.86132812 C4.01882813 14.93771484 3.70171875 14.01410156 3.375 13.0625 C2.88773438 11.68288086 2.88773438 11.68288086 2.390625 10.27539062 C0 3.38978795 0 3.38978795 0 0 Z " fill="#F5C74F" transform="translate(579,131)"/>
<path d="M0 0 C0.66 0 1.32 0 2 0 C2 0.99 2 1.98 2 3 C10.58 3 19.16 3 28 3 C28 2.01 28 1.02 28 0 C28.99 0 29.98 0 31 0 C30.34 1.32 29.68 2.64 29 4 C19.76 4 10.52 4 1 4 C0.67 2.68 0.34 1.36 0 0 Z " fill="#F3C84D" transform="translate(647,156)"/>
<path d="M0 0 C0.33 0.99 0.66 1.98 1 3 C0.01 3.33 -0.98 3.66 -2 4 C-2 4.99 -2 5.98 -2 7 C-1.01 6.67 -0.02 6.34 1 6 C3 9 3 9 3 12 C1.68 12 0.36 12 -1 12 C-1 10.68 -1 9.36 -1 8 C-1.99 8 -2.98 8 -4 8 C-4 8.66 -4 9.32 -4 10 C-4.99 9.67 -5.98 9.34 -7 9 C-4.69 6.03 -2.38 3.06 0 0 Z " fill="#EFB229" transform="translate(101,28)"/>
<path d="M0 0 C2.45205923 3.67808884 4.0012885 7.49058645 5.6875 11.5625 C6.02072266 12.34302734 6.35394531 13.12355469 6.69726562 13.92773438 C7.16229492 15.04825195 7.16229492 15.04825195 7.63671875 16.19140625 C7.92248779 16.87404541 8.20825684 17.55668457 8.50268555 18.26000977 C9 20 9 20 8 22 C7.67 20.68 7.34 19.36 7 18 C6.34 18 5.68 18 5 18 C5 17.34 5 16.68 5 16 C4.34 16 3.68 16 3 16 C2.814375 14.14375 2.814375 14.14375 2.625 12.25 C2.23828541 9.06661035 1.51856078 6.83464679 0 4 C0 2.68 0 1.36 0 0 Z M1 16 C1.99 16.495 1.99 16.495 3 17 C2.01 17.495 2.01 17.495 1 18 C1 17.34 1 16.68 1 16 Z " fill="#E1973B" transform="translate(338,62)"/>
<path d="M0 0 C0.33 0 0.66 0 1 0 C1 1.65 1 3.3 1 5 C10.24 5 19.48 5 29 5 C29 5.33 29 5.66 29 6 C19.1 6 9.2 6 -1 6 C-1.33 5.34 -1.66 4.68 -2 4 C-1.0625 1.875 -1.0625 1.875 0 0 Z " fill="#E2A040" transform="translate(348,154)"/>
<path d="M0 0 C5.61 0.33 11.22 0.66 17 1 C17 1.66 17 2.32 17 3 C11.06 3.33 5.12 3.66 -1 4 C-0.67 2.68 -0.34 1.36 0 0 Z " fill="#DE862E" transform="translate(113,76)"/>
<path d="M0 0 C1.32 0.66 2.64 1.32 4 2 C0.81778033 4.12147978 -0.65353465 4.40334295 -4.375 4.75 C-5.77878906 4.89695312 -5.77878906 4.89695312 -7.2109375 5.046875 C-10.25549277 4.995706 -12.26583649 4.29251366 -15 3 C-11.68929162 1.99890485 -8.69915231 1.89643866 -5.25 1.9375 C-4.26515625 1.94652344 -3.2803125 1.95554687 -2.265625 1.96484375 C-1.14414062 1.98224609 -1.14414062 1.98224609 0 2 C0 1.34 0 0.68 0 0 Z " fill="#EBAD3B" transform="translate(449,65)"/>
<path d="M0 0 C0.63550781 0.18304688 1.27101563 0.36609375 1.92578125 0.5546875 C2.25578125 1.2146875 2.58578125 1.8746875 2.92578125 2.5546875 C2.28640625 2.6784375 1.64703125 2.8021875 0.98828125 2.9296875 C0.30765625 3.1359375 -0.37296875 3.3421875 -1.07421875 3.5546875 C-1.40421875 4.2146875 -1.73421875 4.8746875 -2.07421875 5.5546875 C-2.73421875 5.5546875 -3.39421875 5.5546875 -4.07421875 5.5546875 C-4.40421875 4.8946875 -4.73421875 4.2346875 -5.07421875 3.5546875 C-7.05421875 3.5546875 -9.03421875 3.5546875 -11.07421875 3.5546875 C-7.8406058 -1.08484412 -5.14210127 -0.69010197 0 0 Z " fill="#F2AF2F" transform="translate(80.07421875,62.4453125)"/>
<path d="M0 0 C2.48262432 2.48262432 3.07286975 4.61775287 4.1875 7.9375 C4.55230469 8.99839844 4.91710937 10.05929688 5.29296875 11.15234375 C6 14 6 14 5 17 C5 16.34 5 15.68 5 15 C4.360625 14.71125 3.72125 14.4225 3.0625 14.125 C1 13 1 13 0 11 C0.31229724 9.66158328 0.64830932 8.32860925 1 7 C1 5.68 1 4.36 1 3 C0.34 3 -0.32 3 -1 3 C-0.67 2.01 -0.34 1.02 0 0 Z " fill="#D97F3B" transform="translate(146,95)"/>
<path d="M0 0 C2.88956687 1.29532308 5.01041688 2.5130211 7 5 C7.29296875 7.26171875 7.29296875 7.26171875 7.1875 9.6875 C7.16042969 10.49574219 7.13335937 11.30398437 7.10546875 12.13671875 C7.07066406 12.75160156 7.03585937 13.36648437 7 14 C6.34 14 5.68 14 5 14 C4.16235732 12.04350603 3.33000941 10.08474444 2.5 8.125 C2.0359375 7.03445312 1.571875 5.94390625 1.09375 4.8203125 C0 2 0 2 0 0 Z " fill="#E59B31" transform="translate(303,58)"/>
<path d="M0 0 C0.66 0 1.32 0 2 0 C2.185625 0.5775 2.37125 1.155 2.5625 1.75 C4.14501959 4.22698718 4.99673196 4.62366231 7.5625 5.875 C9.4453125 6.8515625 9.4453125 6.8515625 11 8 C11.9375 11.25 11.9375 11.25 12 14 C1.92020592 5.76061776 1.92020592 5.76061776 0 0 Z " fill="#EFB849" transform="translate(474,138)"/>
<path d="M0 0 C0.66 0.33 1.32 0.66 2 1 C2.6328125 3.06640625 2.6328125 3.06640625 3.125 5.5625 C3.29257812 6.38878906 3.46015625 7.21507813 3.6328125 8.06640625 C3.75398437 8.70449219 3.87515625 9.34257813 4 10 C1.69 10 -0.62 10 -3 10 C-2.690625 9.46375 -2.38125 8.9275 -2.0625 8.375 C-0.82172561 5.6015043 -0.4090325 2.99957163 0 0 Z " fill="#FAC83E" transform="translate(599,112)"/>
<path d="M0 0 C0.66 0 1.32 0 2 0 C-1.07517084 10.55808656 -1.07517084 10.55808656 -3 15 C-3.33 15 -3.66 15 -4 15 C-4 12.03 -4 9.06 -4 6 C-3.34 6 -2.68 6 -2 6 C-2 5.34 -2 4.68 -2 4 C-1.34 4 -0.68 4 0 4 C0 2.68 0 1.36 0 0 Z " fill="#D9802F" transform="translate(175,140)"/>
<path d="M0 0 C0.99 0.33 1.98 0.66 3 1 C3.984375 3.58203125 3.984375 3.58203125 4.75 6.8125 C5.14445313 8.39998047 5.14445313 8.39998047 5.546875 10.01953125 C5.97222984 12.81733936 5.94056385 14.37531844 5 17 C4.16080602 14.73117913 3.32848276 12.46022973 2.5 10.1875 C2.26152344 9.54490234 2.02304687 8.90230469 1.77734375 8.24023438 C0.72931254 5.35066261 0 3.09923939 0 0 Z " fill="#F6C854" transform="translate(636,125)"/>
<path d="M0 0 C0.33 0.66 0.66 1.32 1 2 C3.52733235 2.65555119 3.52733235 2.65555119 6 3 C5.835 3.70125 5.67 4.4025 5.5 5.125 C4.97584662 8.13888194 4.92900317 10.94713625 5 14 C2.81385576 11.81385576 2.31743465 10.46120051 1.375 7.5625 C1.11460937 6.78003906 0.85421875 5.99757812 0.5859375 5.19140625 C0 3 0 3 0 0 Z " fill="#D88034" transform="translate(136,144)"/>
<path d="M0 0 C0.721875 0.144375 1.44375 0.28875 2.1875 0.4375 C3.5796875 0.7159375 3.5796875 0.7159375 5 1 C6.66666667 1.33333333 8.33333333 1.66666667 10 2 C10 2.33 10 2.66 10 3 C8.02 3.33 6.04 3.66 4 4 C4 3.34 4 2.68 4 2 C1.49034386 2.70339566 1.49034386 2.70339566 -1 4 C-1.88693303 6.04105639 -1.88693303 6.04105639 -2 8 C-2.33 7.34 -2.66 6.68 -3 6 C-2.06553465 3.96855359 -1.06775224 1.96466413 0 0 Z " fill="#F5CD44" transform="translate(680,76)"/>
<path d="M0 0 C2.50014115 3.74095194 1.90042304 6.44209421 1.125 10.75 C0.92132813 11.92046875 0.71765625 13.0909375 0.5078125 14.296875 C0.34023437 15.18890625 0.17265625 16.0809375 0 17 C-0.33 17 -0.66 17 -1 17 C-1.02684679 14.35409986 -1.04676357 11.70846904 -1.0625 9.0625 C-1.07087891 8.30775391 -1.07925781 7.55300781 -1.08789062 6.77539062 C-1.09652441 4.85005687 -1.05224333 2.92464419 -1 1 C-0.67 0.67 -0.34 0.34 0 0 Z " fill="#EDB033" transform="translate(106,69)"/>
<path d="M0 0 C6.52307692 1.47692308 6.52307692 1.47692308 8.9375 4.125 C9.288125 4.74375 9.63875 5.3625 10 6 C9.67 6.66 9.34 7.32 9 8 C8.34 7.01 7.68 6.02 7 5 C3.93443402 4.26656572 3.93443402 4.26656572 1 4 C0.67 2.68 0.34 1.36 0 0 Z " fill="#ECA73C" transform="translate(449,40)"/>
<path d="M0 0 C-2.77280706 3.08089673 -5.06326356 4.68775452 -9 6 C-8.67 4.35 -8.34 2.7 -8 1 C-5.07175348 0.02391783 -3.04386724 -0.08226668 0 0 Z " fill="#EEB12F" transform="translate(75,139)"/>
<path d="M0 0 C0.66 0 1.32 0 2 0 C0.375 7.75 0.375 7.75 -3 10 C-3.33 8.35 -3.66 6.7 -4 5 C-3.34 5 -2.68 5 -2 5 C-1.34 3.35 -0.68 1.7 0 0 Z " fill="#F2AE2B" transform="translate(92,114)"/>
<path d="M0 0 C0.66 0 1.32 0 2 0 C4.27614919 2.27614919 4.48661411 3.35196821 5.125 6.4375 C5.29257812 7.21996094 5.46015625 8.00242187 5.6328125 8.80859375 C6 11 6 11 6 14 C3.74402173 11.74402173 3.03425808 9.95396133 1.875 7 C1.52179688 6.113125 1.16859375 5.22625 0.8046875 4.3125 C0 2 0 2 0 0 Z " fill="#E49740" transform="translate(321,100)"/>
<path d="M0 0 C2.31 0 4.62 0 7 0 C7 0.66 7 1.32 7 2 C6.01 2.33 5.02 2.66 4 3 C4.33 3.66 4.66 4.32 5 5 C4.34 6.32 3.68 7.64 3 9 C2.01 6.03 1.02 3.06 0 0 Z " fill="#E0782A" transform="translate(134,77)"/>
<path d="M0 0 C0 1.98 0 3.96 0 6 C0.66 6 1.32 6 2 6 C1.67 6.99 1.34 7.98 1 9 C-1.79872437 6.47211993 -3.45773019 4.79588866 -4 1 C-2 0 -2 0 0 0 Z " fill="#DF923D" transform="translate(332,116)"/>
<path d="M0 0 C-3.222107 3.8665284 -6.14922412 4.88059018 -11 6 C-10.67 5.34 -10.34 4.68 -10 4 C-9.34 4 -8.68 4 -8 4 C-8 3.01 -8 2.02 -8 1 C-5.07175348 0.02391783 -3.04386724 -0.08226668 0 0 Z " fill="#F1BB43" transform="translate(546,153)"/>
<path d="M0 0 C3.1875 -0.375 3.1875 -0.375 7 0 C9.1403498 1.81188028 10.38988302 3.65801167 12 6 C7.24518354 5.42365861 4.02951788 3.44931479 0 1 C0 0.67 0 0.34 0 0 Z " fill="#F2B942" transform="translate(487,152)"/>
<path d="M0 0 C1.32 0.99 2.64 1.98 4 3 C3.625 5.4375 3.625 5.4375 3 8 C2.01 8.495 2.01 8.495 1 9 C-1.125 3.375 -1.125 3.375 0 0 Z " fill="#F4B634" transform="translate(547,143)"/>
<path d="M0 0 C1.65 0 3.3 0 5 0 C4.1875 2.9375 4.1875 2.9375 3 6 C2.01 6.33 1.02 6.66 0 7 C0 4.69 0 2.38 0 0 Z " fill="#E5972B" transform="translate(332,115)"/>
<path d="M0 0 C4 0 4 0 6.25 2.125 C8.24849965 5.40824943 8.35095944 7.22718603 8 11 C6 9 6 9 4.5625 6.0625 C3.22087824 3.43292134 2.20070805 1.88632119 0 0 Z " fill="#ECBF49" transform="translate(523,99)"/>
<path d="M0 0 C0.33 0.99 0.66 1.98 1 3 C-1.40435006 4.20217503 -2.68381369 4.03897118 -5.3515625 3.87890625 C-6.20234375 3.83056641 -7.053125 3.78222656 -7.9296875 3.73242188 C-8.81914063 3.67634766 -9.70859375 3.62027344 -10.625 3.5625 C-11.5221875 3.51029297 -12.419375 3.45808594 -13.34375 3.40429688 C-15.56284012 3.2744565 -17.78149871 3.13948661 -20 3 C-20 2.67 -20 2.34 -20 2 C-19.42967041 1.97494385 -18.85934082 1.9498877 -18.27172852 1.92407227 C-15.70173843 1.80843451 -13.13214473 1.68556376 -10.5625 1.5625 C-9.66466797 1.52318359 -8.76683594 1.48386719 -7.84179688 1.44335938 C-6.98779297 1.40146484 -6.13378906 1.35957031 -5.25390625 1.31640625 C-4.46314697 1.27974854 -3.6723877 1.24309082 -2.85766602 1.20532227 C-0.98598559 1.19436743 -0.98598559 1.19436743 0 0 Z " fill="#E7B14E" transform="translate(57,89)"/>
<path d="M0 0 C2.74554724 2.37115444 3.95117186 4.53079925 5 8 C5.125 11.3125 5.125 11.3125 5 14 C3.37723842 11.56585763 2.38255208 9.68680554 1.375 7 C0.98441406 5.9790625 0.98441406 5.9790625 0.5859375 4.9375 C0 3 0 3 0 0 Z " fill="#F5C44A" transform="translate(574,117)"/>
<path d="M0 0 C1.0326802 2.78823655 1.04509293 3.8677274 0.0625 6.75 C-0.288125 7.4925 -0.63875 8.235 -1 9 C-1.33 8.01 -1.66 7.02 -2 6 C-2.99 6 -3.98 6 -5 6 C-4.67 4.68 -4.34 3.36 -4 2 C-2.02 2.495 -2.02 2.495 0 3 C0 2.01 0 1.02 0 0 Z " fill="#F7C939" transform="translate(701,86)"/>
<path d="M0 0 C1.17571451 3.67410785 1.07366746 7.16929183 1 11 C0.01 11.495 0.01 11.495 -1 12 C-2.50934217 8.98131566 -2.17510672 6.32702771 -2 3 C-1.34 2.01 -0.68 1.02 0 0 Z " fill="#F1AD35" transform="translate(68,66)"/>
<path d="M0 0 C0.66 0 1.32 0 2 0 C1.44894091 3.9492568 0.61064629 7.34920174 -1 11 C-1.33 11 -1.66 11 -2 11 C-2.33 8.69 -2.66 6.38 -3 4 C-2.01 4 -1.02 4 0 4 C0 2.68 0 1.36 0 0 Z " fill="#D57B35" transform="translate(255,80)"/>
<path d="M0 0 C0.66 0 1.32 0 2 0 C0.25 7.625 0.25 7.625 -2 11 C-2.33 8.36 -2.66 5.72 -3 3 C-2.01 3.33 -1.02 3.66 0 4 C0 2.68 0 1.36 0 0 Z " fill="#F6C745" transform="translate(621,144)"/>
<path d="M0 0 C0.33 0.66 0.66 1.32 1 2 C1.99 2 2.98 2 4 2 C4 4.97 4 7.94 4 11 C1.6870518 8.6870518 1.50419025 7.52095125 0.875 4.375 C0.70742187 3.55773437 0.53984375 2.74046875 0.3671875 1.8984375 C0.24601563 1.27195313 0.12484375 0.64546875 0 0 Z " fill="#D98632" transform="translate(132,133)"/>
<path d="M0 0 C1.32 0.66 2.64 1.32 4 2 C3.01 2.495 3.01 2.495 2 3 C2 3.66 2 4.32 2 5 C0.02 5 -1.96 5 -4 5 C-2.68 3.35 -1.36 1.7 0 0 Z " fill="#EBB53E" transform="translate(536,131)"/>
<path d="M0 0 C1.5 1.375 1.5 1.375 3 3 C3 3.66 3 4.32 3 5 C1.125 5.625 1.125 5.625 -1 6 C-1.66 5.34 -2.32 4.68 -3 4 C-3 3.34 -3 2.68 -3 2 C-2.01 1.34 -1.02 0.68 0 0 Z " fill="#F8B335" transform="translate(501,130)"/>
<path d="M0 0 C1.39195915 4.17587745 -0.17676781 6.13474776 -2 10 C-2.99 8.68 -3.98 7.36 -5 6 C-4.34 5.34 -3.68 4.68 -3 4 C-2.34 4.33 -1.68 4.66 -1 5 C-0.67 3.35 -0.34 1.7 0 0 Z " fill="#E0832B" transform="translate(248,102)"/>
<path d="M0 0 C1.15941038 3.47823115 0.70820884 5.45895578 0 9 C-1.98 9 -3.96 9 -6 9 C-5.071875 7.88625 -5.071875 7.88625 -4.125 6.75 C-2.39562719 4.51198812 -1.13893339 2.56260013 0 0 Z " fill="#F1AF3A" transform="translate(92,82)"/>
<path d="M0 0 C1.32 0 2.64 0 4 0 C4.33 1.98 4.66 3.96 5 6 C3.35 5.67 1.7 5.34 0 5 C0 3.35 0 1.7 0 0 Z " fill="#E57E22" transform="translate(202,96)"/>
<path d="M0 0 C1.39195915 4.17587745 -0.17676781 6.13474776 -2 10 C-4 6.25 -4 6.25 -4 4 C-3.01 4 -2.02 4 -1 4 C-0.67 2.68 -0.34 1.36 0 0 Z " fill="#DE903C" transform="translate(382,144)"/>
<path d="M0 0 C1.9375 0.625 1.9375 0.625 4 2 C4.75 5.125 4.75 5.125 5 8 C4.67 7.34 4.34 6.68 4 6 C3.34 5.67 2.68 5.34 2 5 C0 4 0 4 -1 2 C-0.67 1.34 -0.34 0.68 0 0 Z " fill="#E4812A" transform="translate(147,104)"/>
<path d="M0 0 C0.99 0.99 1.98 1.98 3 3 C2.21625 3.309375 1.4325 3.61875 0.625 3.9375 C-1.92330128 4.92875038 -1.92330128 4.92875038 -4 6 C-3.67 4.35 -3.34 2.7 -3 1 C-2.01 0.67 -1.02 0.34 0 0 Z " fill="#EFB934" transform="translate(482,89)"/>
<path d="M0 0 C0.66 1.32 1.32 2.64 2 4 C1.34 4.66 0.68 5.32 0 6 C-0.64767793 8.57061311 -0.64767793 8.57061311 -1 11 C-2.1875 9.4375 -2.1875 9.4375 -3 7 C-1.625 3.25 -1.625 3.25 0 0 Z " fill="#D17A38" transform="translate(230,81)"/>
<path d="M0 0 C1.5 1 1.5 1 3 3 C3.27345479 5.71846235 3.13491285 8.25677199 3 11 C2.67 11 2.34 11 2 11 C2 8.69 2 6.38 2 4 C1.01 4.33 0.02 4.66 -1 5 C-1 2 -1 2 0 0 Z " fill="#EFA93A" transform="translate(83,65)"/>
<path d="M0 0 C0.66 0.66 1.32 1.32 2 2 C1.64644564 4.26274788 1.02455574 5.95088852 0 8 C-0.66 8 -1.32 8 -2 8 C-1.125 2.25 -1.125 2.25 0 0 Z " fill="#DB842E" transform="translate(219,112)"/>
<path d="M0 0 C2.52259061 1.97420135 2.9929808 2.96745642 3.6875 6.1875 C3.790625 7.115625 3.89375 8.04375 4 9 C3.34 9 2.68 9 2 9 C2 7.68 2 6.36 2 5 C1.34 5 0.68 5 0 5 C0 3.35 0 1.7 0 0 Z " fill="#E9B330" transform="translate(53,65)"/>
<path d="M0 0 C3.16115776 1.36983503 3.9927092 1.9890638 6 5 C4.68 5.33 3.36 5.66 2 6 C1.34 4.02 0.68 2.04 0 0 Z " fill="#E8953B" transform="translate(303,58)"/>
<path d="M0 0 C1.32 0.33 2.64 0.66 4 1 C4 1.66 4 2.32 4 3 C3.34 3 2.68 3 2 3 C2 3.99 2 4.98 2 6 C1.34 6 0.68 6 0 6 C0 4.02 0 2.04 0 0 Z " fill="#FBC43A" transform="translate(630,115)"/>
<path d="M0 0 C0.66 0 1.32 0 2 0 C2.66 1.65 3.32 3.3 4 5 C2.02 5 0.04 5 -2 5 C-1.34 3.35 -0.68 1.7 0 0 Z " fill="#F1C13E" transform="translate(61,83)"/>
</svg>
