<?xml version="1.0" encoding="UTF-8"?>
<svg version="1.1" xmlns="http://www.w3.org/2000/svg" width="741" height="192">
<path d="M0 0 C1.16781006 0.00523682 2.33562012 0.01047363 3.53881836 0.01586914 C4.79887695 0.0190918 6.05893555 0.02231445 7.35717773 0.02563477 C8.6976732 0.03399136 10.03816799 0.04245632 11.37866211 0.05102539 C12.72306153 0.05603879 14.06746271 0.06060197 15.41186523 0.06469727 C18.71334151 0.07653051 22.01473014 0.09301568 25.31616211 0.11352539 C25.50186264 0.66254013 25.68756317 1.21155487 25.87889099 1.77720642 C27.80569597 7.47181536 29.73659626 13.16502348 31.66992188 18.85742188 C32.39168576 20.98434085 33.11239121 23.1116193 33.83203125 25.23925781 C34.86434823 28.29073851 35.90041781 31.34092213 36.93725586 34.39086914 C37.26020126 35.34815414 37.58314667 36.30543915 37.9158783 37.29173279 C38.21611404 38.17257034 38.51634979 39.0534079 38.82568359 39.9609375 C39.08993637 40.74037216 39.35418915 41.51980682 39.62644958 42.32286072 C40.17473606 44.10733135 40.17473606 44.10733135 41.31616211 45.11352539 C41.72979004 43.89246094 42.14341797 42.67139648 42.56958008 41.41333008 C44.10607662 36.87995611 45.6463417 32.34787012 47.18774414 27.81616211 C47.85413706 25.85524825 48.51950973 23.89398737 49.18383789 21.93237305 C50.13932075 19.11162768 51.09847486 16.29215379 52.05834961 13.47290039 C52.35425995 12.59672058 52.65017029 11.72054077 52.95504761 10.81781006 C53.23518707 9.99726135 53.51532654 9.17671265 53.80395508 8.33129883 C54.04822235 7.61182068 54.29248962 6.89234253 54.54415894 6.15106201 C55.32877837 4.08022747 56.32581032 2.09422897 57.31616211 0.11352539 C65.89616211 0.11352539 74.47616211 0.11352539 83.31616211 0.11352539 C84.79260187 4.25324527 86.26804423 8.39329712 87.74121094 12.53417969 C88.24002018 13.9354136 88.73934828 15.33646294 89.23925781 16.73730469 C92.71947422 26.49102297 96.07963658 36.27601587 99.31616211 46.11352539 C99.59138199 45.31545723 99.59138199 45.31545723 99.87216187 44.50126648 C101.78129985 38.96797024 103.6964008 33.43676429 105.61499023 27.90673828 C106.33039285 25.84216552 107.04426924 23.77706325 107.7565918 21.71142578 C108.78025705 18.74379456 109.80938151 15.77810589 110.83959961 12.81274414 C111.15738373 11.88765549 111.47516785 10.96256683 111.80258179 10.00944519 C112.25282211 8.71844658 112.25282211 8.71844658 112.7121582 7.40136719 C112.97419037 6.64413864 113.23622253 5.8869101 113.50619507 5.10673523 C114.31616211 3.11352539 114.31616211 3.11352539 116.31616211 0.11352539 C118.92993164 -0.22705078 118.92993164 -0.22705078 122.19897461 -0.17944336 C123.36557617 -0.16977539 124.53217773 -0.16010742 125.73413086 -0.15014648 C126.95745117 -0.12500977 128.18077148 -0.09987305 129.44116211 -0.07397461 C131.28774414 -0.05367188 131.28774414 -0.05367188 133.17163086 -0.03295898 C136.22024054 0.00248997 139.26798711 0.0519046 142.31616211 0.11352539 C140.86941679 7.50198412 138.5873014 14.36245114 136.00366211 21.42602539 C135.34231683 23.25445058 134.68097756 25.08287794 134.01983643 26.91137695 C133.30291046 28.89138078 132.58338313 30.87042558 131.86352539 32.84936523 C130.19920788 37.42927937 128.55240514 42.01542717 126.90600586 46.60180664 C126.03653629 49.02096148 125.16675164 51.4400027 124.29678345 53.85897827 C123.73212082 55.42934738 123.16780284 56.99984047 122.60385132 58.57046509 C121.80403415 60.79641208 121.00180214 63.02147513 120.19897461 65.24633789 C119.96697861 65.89335159 119.7349826 66.5403653 119.49595642 67.20698547 C117.55725002 72.56821269 115.43755776 77.81003626 113.31616211 83.11352539 C103.74616211 83.11352539 94.17616211 83.11352539 84.31616211 83.11352539 C82.93428711 79.27727539 81.55241211 75.44102539 80.12866211 71.48852539 C79.68111572 70.24699707 79.23356934 69.00546875 78.77246094 67.72631836 C77.05003528 62.9454183 75.32850916 58.16447344 73.64038086 53.37133789 C73.20338867 52.13125977 72.76639648 50.89118164 72.31616211 49.61352539 C71.94491211 48.55133789 71.57366211 47.48915039 71.19116211 46.39477539 C70.51969793 44.18140207 70.51969793 44.18140207 69.31616211 43.11352539 C62.4218345 61.22854888 62.4218345 61.22854888 56.19116211 79.57836914 C55.31616211 82.11352539 55.31616211 82.11352539 54.31616211 83.11352539 C52.17057384 83.20128144 50.0221179 83.22047758 47.87475586 83.21118164 C46.56958008 83.20795898 45.2644043 83.20473633 43.91967773 83.20141602 C42.53100521 83.1930594 41.14233334 83.18459444 39.75366211 83.17602539 C38.36108555 83.17101205 36.96850729 83.16644886 35.57592773 83.16235352 C32.15596341 83.15051973 28.73608367 83.13403419 25.31616211 83.11352539 C19.88462648 68.49478609 14.59955374 53.824972 9.35302734 39.13891602 C8.2177903 35.96132435 7.07960302 32.78479752 5.94076824 29.6084938 C4.83866482 26.53275171 3.73972833 23.45587839 2.64038086 20.37915039 C2.23518723 19.24995178 1.82999359 18.12075317 1.41252136 16.95733643 C-0.45762022 11.71187391 -2.24717157 6.49489579 -3.68383789 1.11352539 C-2.68383789 0.11352539 -2.68383789 0.11352539 0 0 Z " fill="#BC5154" transform="translate(115.683837890625,76.886474609375)"/>
<path d="M0 0 C9.24 0 18.48 0 28 0 C31.375 7.875 31.375 7.875 32.53393555 11.28295898 C32.92400032 12.42334877 32.92400032 12.42334877 33.32194519 13.58677673 C33.59082047 14.38185135 33.85969574 15.17692596 34.13671875 15.99609375 C34.56317436 17.24641136 34.56317436 17.24641136 34.99824524 18.52198792 C35.89723272 21.15962546 36.79242437 23.79853274 37.6875 26.4375 C38.29987892 28.23641369 38.91250665 30.0352427 39.52539062 31.83398438 C41.01980595 36.22168232 42.51082061 40.61052236 44 45 C47.95621118 35.98009285 51.1633034 26.79734859 54.1875 17.4375 C55.05073664 14.76778432 55.92006023 12.10016038 56.79296875 9.43359375 C57.35794067 7.68647095 57.35794067 7.68647095 57.93432617 5.90405273 C59 3 59 3 61 0 C63.61376953 -0.34057617 63.61376953 -0.34057617 66.8828125 -0.29296875 C68.04941406 -0.28330078 69.21601562 -0.27363281 70.41796875 -0.26367188 C71.64128906 -0.23853516 72.86460937 -0.21339844 74.125 -0.1875 C75.97158203 -0.16719727 75.97158203 -0.16719727 77.85546875 -0.14648438 C80.90407843 -0.11103543 83.951825 -0.06162079 87 0 C87.41362793 1.21582764 87.82725586 2.43165527 88.25341797 3.68432617 C89.79146687 8.20415135 91.33126303 12.72337965 92.87158203 17.24243164 C93.53742217 19.19669676 94.20279125 21.15112244 94.86767578 23.10571289 C95.82460081 25.91855754 96.78323012 28.73081642 97.7421875 31.54296875 C98.03809784 32.41398727 98.33400818 33.2850058 98.6388855 34.18241882 C99.99858469 38.16470927 101.37891678 42.11427049 103 46 C103.41362793 44.78417236 103.82725586 43.56834473 104.25341797 42.31567383 C105.79146687 37.79584865 107.33126303 33.27662035 108.87158203 28.75756836 C109.53742217 26.80330324 110.20279125 24.84887756 110.86767578 22.89428711 C111.82460081 20.08144246 112.78323012 17.26918358 113.7421875 14.45703125 C114.03809784 13.58601273 114.33400818 12.7149942 114.6388855 11.81758118 C114.91902496 10.997108 115.19916443 10.17663483 115.48779297 9.33129883 C115.73206024 8.61404129 115.97632751 7.89678375 116.22799683 7.15779114 C117.08989756 4.74873139 118.04975925 2.37560187 119 0 C127.58 0 136.16 0 145 0 C146 2 146 2 145.40185547 4.22607422 C145.06041504 5.1595166 144.71897461 6.09295898 144.3671875 7.0546875 C143.97950195 8.12686523 143.59181641 9.19904297 143.19238281 10.30371094 C142.75764648 11.48223633 142.32291016 12.66076172 141.875 13.875 C141.19130046 15.75678272 140.50761265 17.63856975 139.82434082 19.52050781 C139.08098857 21.56438125 138.33417164 23.6069655 137.58691406 25.64941406 C135.92568146 30.19576856 134.28576383 34.74967843 132.6484375 39.3046875 C123.76156737 64.00896296 123.76156737 64.00896296 119.671875 75.015625 C119.41819153 75.70388367 119.16450806 76.39214233 118.90313721 77.10125732 C117.1162714 81.8837286 117.1162714 81.8837286 116 83 C113.92737924 83.08767112 111.85179706 83.10695873 109.77734375 83.09765625 C107.88725586 83.09282227 107.88725586 83.09282227 105.95898438 83.08789062 C104.61848891 83.07953403 103.27799412 83.07106907 101.9375 83.0625 C100.59310058 83.0574866 99.2486994 83.05292342 97.90429688 83.04882812 C94.60282059 83.03699488 91.30143197 83.02050971 88 83 C84.11738325 74.0579626 80.81555698 64.97402364 77.6875 55.75 C77.22888219 54.40742681 76.76989968 53.06497815 76.31054688 51.72265625 C75.20284152 48.48318922 74.10001672 45.24208713 73 42 C72.01742735 44.72704865 71.0350473 47.45416633 70.05297852 50.18139648 C69.22473054 52.48063634 68.39578956 54.77962668 67.56616211 57.07836914 C64.93230314 64.38190091 64.93230314 64.38190091 62.359375 71.70703125 C61.93140625 72.93808594 61.5034375 74.16914063 61.0625 75.4375 C60.70285156 76.48808594 60.34320312 77.53867188 59.97265625 78.62109375 C59 81 59 81 57 83 C54.20263672 83.22705078 54.20263672 83.22705078 50.6796875 83.1953125 C48.79443359 83.18564453 48.79443359 83.18564453 46.87109375 83.17578125 C45.55238281 83.15902344 44.23367188 83.14226562 42.875 83.125 C41.53516279 83.11496983 40.19531848 83.10584404 38.85546875 83.09765625 C35.57012547 83.07402069 32.28518117 83.03938652 29 83 C25.54190478 74.92994689 22.41575537 66.79894068 19.53125 58.5078125 C19.12845825 57.35940887 18.7256665 56.21100525 18.31066895 55.02780151 C17.03714122 51.39468147 15.76841835 47.75990661 14.5 44.125 C13.23299142 40.50476832 11.96499844 36.88488276 10.69677734 33.26507568 C9.88614409 30.94989583 9.07655227 28.63435103 8.26806641 26.31842041 C6.63189136 21.63465313 4.99293821 16.95304138 3.29296875 12.29199219 C2.93241394 11.30149368 2.93241394 11.30149368 2.5645752 10.29098511 C1.96752092 8.65960321 1.36401016 7.03058787 0.75976562 5.40185547 C0 3 0 3 0 0 Z " fill="#B74454" transform="translate(560,77)"/>
<path d="M0 0 C2.75024906 2.41688554 4.67623901 4.35602476 6.33856201 7.66246033 C9.36717622 13.66708312 9.36717622 13.66708312 14.90661621 17.06692505 C18.52332063 17.5079695 21.99706083 17.60347259 25.640625 17.56640625 C26.9585907 17.58404526 28.2765564 17.60168427 29.63446045 17.61985779 C32.41959209 17.64952267 35.2008584 17.6381951 37.98583984 17.59887695 C41.52850189 17.55311347 45.05864704 17.62114172 48.5998764 17.71808815 C63.99043023 18.70528027 63.99043023 18.70528027 77.37304688 12.77294922 C80.26163118 9.47180501 82.23632122 6.00271903 84 2 C84.99 2.33 85.98 2.66 87 3 C88.1160498 12.50848473 88.24164372 22.00266738 88.25 31.5625 C88.25100708 32.36302795 88.25201416 33.16355591 88.25305176 33.98834229 C88.24316947 45.5979921 87.82818101 56.68727596 85 68 C84.73316406 69.19109375 84.46632813 70.3821875 84.19140625 71.609375 C79.13988127 91.81547492 67.13800774 111.19024758 49.09448242 122.09106445 C38.22757167 128.39622503 26.97933381 132.88068554 14.9375 136.375 C14.03249756 136.63812988 13.12749512 136.90125977 12.19506836 137.17236328 C11.33534424 137.41196777 10.47562012 137.65157227 9.58984375 137.8984375 C8.82534912 138.11161621 8.06085449 138.32479492 7.27319336 138.54443359 C4.79761556 139.04055949 2.51836081 139.07834283 0 139 C-1.03358335 135.89924994 -1.12574761 133.7712711 -1.12698364 130.52084351 C-1.12980347 129.38225388 -1.13262329 128.24366425 -1.13552856 127.0705719 C-1.13350433 125.82057907 -1.1314801 124.57058624 -1.12939453 123.28271484 C-1.13114685 121.96715103 -1.13289917 120.65158722 -1.13470459 119.29615784 C-1.13926733 115.68686997 -1.13749435 112.07761065 -1.1343255 108.46832228 C-1.13179699 104.69580984 -1.13414072 100.92329988 -1.13571167 97.15078735 C-1.13753148 90.8173173 -1.13513153 84.48385891 -1.13037109 78.15039062 C-1.12492414 70.81868189 -1.12669503 63.48700094 -1.1321975 56.15529287 C-1.1367284 49.8673683 -1.13737943 43.57945211 -1.13475883 37.29152644 C-1.13319653 33.53284094 -1.13300109 29.77416852 -1.13629532 26.01548386 C-1.13970754 21.82980438 -1.13498471 17.64417321 -1.12939453 13.45849609 C-1.13141876 12.2044548 -1.13344299 10.95041351 -1.13552856 9.65837097 C-1.13270874 8.52542099 -1.12988892 7.39247101 -1.12698364 6.22518921 C-1.12660662 5.23447104 -1.12622959 4.24375286 -1.12584114 3.22301292 C-1 1 -1 1 0 0 Z M13.125 39 C9.23553975 44.49100271 9.36029525 50.43870396 10 57 C11.39729717 62.08422486 12.52830827 66.01887218 17 69 C20.10805035 69.49946755 23.23105467 69.46223489 26.375 69.5 C27.22578125 69.54125 28.0765625 69.5825 28.953125 69.625 C33.65178756 69.77001729 33.65178756 69.77001729 37.64550781 67.62890625 C38.83748183 66.14221819 39.92680211 64.57457605 41 63 C41.66 63 42.32 63 43 63 C43.680625 63.97582031 44.36125 64.95164063 45.0625 65.95703125 C46.6569199 67.94245808 47.54261126 68.86911133 50.01171875 69.57568359 C52.36638825 69.77139238 54.63898257 69.76990564 57 69.6875 C58.19109375 69.70973633 58.19109375 69.70973633 59.40625 69.73242188 C63.67166504 69.67199516 65.49978362 69.39222265 68.94921875 66.6875 C73.23931603 61.06542966 74.59711737 55.51786559 74.34765625 48.45703125 C73.57648507 43.00684394 71.16251205 39.31155205 67.5625 35.25 C53.38675123 24.84739829 25.16296427 25.42309144 13.125 39 Z " fill="#7F2E9A" transform="translate(20,22)"/>
<path d="M0 0 C10.12999912 10.54733991 13.24471142 21.68790615 13.16796875 36.0234375 C13 39 13 39 12 41 C-16.215 41.495 -16.215 41.495 -45 42 C-43.63281181 46.93886428 -43.63281181 46.93886428 -40.875 48.1875 C-39.92625 48.455625 -38.9775 48.72375 -38 49 C-36.80375 49.391875 -35.6075 49.78375 -34.375 50.1875 C-27.14258788 51.87642487 -20.43240133 51.14701297 -14.0625 47.3125 C-13.37285156 46.83425781 -12.68320312 46.35601562 -11.97265625 45.86328125 C-10 45 -10 45 -8.1328125 45.484375 C-5.05034783 47.6748444 -2.46248148 50.24915932 0.1875 52.9375 C1.00637695 53.74477539 1.00637695 53.74477539 1.84179688 54.56835938 C4.27299314 57.01160618 5.89577976 58.68733927 7 62 C-3.94992867 72.36748565 -14.95947743 75.83194947 -30 76 C-44.96894863 75.10484693 -57.62381535 70.00934708 -68.10546875 59.20703125 C-76.80444619 49.07317093 -77.82202883 37.9233712 -77 25 C-75.59350588 14.20759463 -69.40890282 4.99623656 -60.91796875 -1.7265625 C-42.50760878 -13.95014163 -17.35765364 -14.74529774 0 0 Z M-43 16 C-44.51265559 17.94416549 -45.74155963 19.87033168 -47 22 C-46.67 22.66 -46.34 23.32 -46 24 C-36.1 24 -26.2 24 -16 24 C-17.88651353 18.3404594 -18.70173413 16.66925136 -23 13 C-30.0599877 10.64667077 -37.38951872 10.80004174 -43 16 Z " fill="#F0A115" transform="translate(546,86)"/>
<path d="M0 0 C9.9 0 19.8 0 30 0 C31.12504289 10.12538603 31.12504289 10.12538603 31.12698364 13.98583984 C31.12980347 14.86342453 31.13262329 15.74100922 31.13552856 16.64518738 C31.13350433 17.57438492 31.1314801 18.50358246 31.12939453 19.4609375 C31.13114685 20.46526321 31.13289917 21.46958893 31.13470459 22.50434875 C31.13907482 25.79458386 31.13620401 29.08476444 31.1328125 32.375 C31.1334865 34.6690268 31.13445733 36.96305352 31.13571167 39.25708008 C31.13718173 44.04818405 31.13505477 48.83926931 31.13037109 53.63037109 C31.12464838 59.78545605 31.12797318 65.94049765 31.13394356 72.09558105 C31.1375459 76.82399832 31.13641255 81.55240519 31.13381577 86.28082275 C31.13314692 88.55194097 31.13397344 90.82306012 31.13629532 93.09417725 C31.13881925 96.25421685 31.13498612 99.41418454 31.12939453 102.57421875 C31.13141876 103.51961014 31.13344299 104.46500153 31.13552856 105.43904114 C31.11426777 111.88573223 31.11426777 111.88573223 30 113 C20.1 113 10.2 113 0 113 C0 75.71 0 38.42 0 0 Z " fill="#E56525" transform="translate(265,47)"/>
<path d="M0 0 C1.2463623 0.01047363 2.49272461 0.02094727 3.77685547 0.03173828 C4.77143265 0.03598312 4.77143265 0.03598312 5.78610229 0.04031372 C7.9055988 0.05151643 10.02467401 0.07662027 12.14404297 0.10205078 C13.58023479 0.11208051 15.01643322 0.12120637 16.45263672 0.12939453 C19.97490925 0.15145578 23.496935 0.18598585 27.01904297 0.22705078 C26.39800248 4.64264863 25.2763756 7.88398292 23.18701172 11.83642578 C21.79805463 14.67937474 20.69401897 17.57762729 19.58154297 20.53955078 C17.31054392 26.56536114 14.7386487 32.39291307 12.01904297 38.22705078 C9.67387176 43.30974124 7.54954402 48.42267881 5.58154297 53.66455078 C3.75582345 58.47376316 1.69248397 63.01232026 -0.66455078 67.57861328 C-4.89568433 76.09110154 -8.35318834 84.97587504 -11.60986328 93.89892578 C-13.48555794 98.45189401 -15.77878764 102.822712 -17.98095703 107.22705078 C-27.88095703 107.22705078 -37.78095703 107.22705078 -47.98095703 107.22705078 C-48.31095703 106.56705078 -48.64095703 105.90705078 -48.98095703 105.22705078 C-48.16543804 103.21346025 -47.25107728 101.23957168 -46.29345703 99.28955078 C-44.28430752 95.08607669 -42.44070307 90.94274181 -40.91845703 86.53955078 C-39.71282927 83.09066479 -38.36779534 79.89770743 -36.66845703 76.66455078 C-33.85278031 71.24112424 -31.74204048 65.59580752 -29.56762695 59.89501953 C-27.64638769 54.87882709 -25.5690435 49.98699108 -23.28955078 45.12158203 C-21.60880364 41.40386969 -20.07897031 37.63158387 -18.54345703 33.85205078 C-15.9760392 27.54114965 -13.23292528 21.34506206 -10.32861328 15.18017578 C-8.67643377 11.55974764 -7.23130068 7.88038397 -5.84033203 4.15283203 C-4.40611313 0.93887786 -3.53787242 0.2694694 0 0 Z " fill="#FC7F07" transform="translate(394.98095703125,52.77294921875)"/>
<path d="M0 0 C4.11193736 0.11798252 8.22363288 0.24221059 12.33520508 0.37231445 C13.73489199 0.41571434 15.13463359 0.45738564 16.53442383 0.49731445 C18.54261495 0.55489445 20.55061149 0.61914 22.55859375 0.68359375 C23.76829834 0.72025146 24.97800293 0.75690918 26.22436523 0.79467773 C29 1 29 1 30 2 C30.10035816 4.52002451 30.13617712 7.012662 30.12939453 9.53320312 C30.13114685 10.32178207 30.13289917 11.11036102 30.13470459 11.9228363 C30.13912358 14.5423296 30.13618496 17.16175596 30.1328125 19.78125 C30.13348553 21.5934653 30.13445554 23.40568052 30.13571167 25.21789551 C30.13718871 29.02108619 30.1350339 32.82425344 30.13037109 36.62744141 C30.1246738 41.51378495 30.12795278 46.40007357 30.13394356 51.2864151 C30.13754901 55.03005389 30.13641066 58.77367955 30.13381577 62.51731873 C30.13314645 64.31953437 30.13397507 66.12175118 30.13629532 67.92396545 C30.13882159 70.43827491 30.13498162 72.95249417 30.12939453 75.46679688 C30.13141876 76.21904037 30.13344299 76.97128387 30.13552856 77.74632263 C30.1142626 82.8857374 30.1142626 82.8857374 29 84 C26.86646826 84.10003289 24.72962458 84.13081048 22.59375 84.1328125 C21.29308594 84.13410156 19.99242187 84.13539063 18.65234375 84.13671875 C17.97155762 84.13462402 17.29077148 84.1325293 16.58935547 84.13037109 C14.50871485 84.1250224 12.42829011 84.1303168 10.34765625 84.13671875 C8.39666016 84.13478516 8.39666016 84.13478516 6.40625 84.1328125 C5.20291016 84.13168457 3.99957031 84.13055664 2.75976562 84.12939453 C0 84 0 84 -1 83 C-1.10036005 80.48524626 -1.1361771 77.99793752 -1.12939453 75.48266602 C-1.13114685 74.69569336 -1.13289917 73.9087207 -1.13470459 73.09790039 C-1.13912411 70.48321358 -1.13618449 67.86859381 -1.1328125 65.25390625 C-1.13348558 63.44408658 -1.13445564 61.63426699 -1.13571167 59.82444763 C-1.13718883 56.0254531 -1.13503375 52.22648204 -1.13037109 48.42749023 C-1.12467785 43.55021322 -1.12795013 38.67299127 -1.13394356 33.79571629 C-1.13755214 30.05632612 -1.13640914 26.31694907 -1.13381577 22.57755852 C-1.13314711 20.77896048 -1.13397279 18.98036126 -1.13629532 17.1817646 C-1.13882624 14.6700537 -1.13497481 12.1584327 -1.12939453 9.64672852 C-1.13141876 8.89808029 -1.13344299 8.14943207 -1.13552856 7.37809753 C-1.11426347 2.22852694 -1.11426347 2.22852694 0 0 Z " fill="#FEA204" transform="translate(428,76)"/>
<path d="M0 0 C10.89 0 21.78 0 33 0 C35.07703427 4.52542486 37.13282438 9.0518511 39.14624023 13.60473633 C39.83532418 15.14851056 40.53474623 16.68771541 41.24487305 18.22192383 C47.90174125 32.63500249 47.90174125 32.63500249 46.10546875 38.10546875 C45.44340375 39.42436567 44.74299249 40.72493871 44 42 C43.50379912 43.2501955 43.02648646 44.50808798 42.5703125 45.7734375 C39.00588867 54.65559635 35.3224702 63.45329755 31 72 C27.94183827 69.21304754 26.21034546 66.80517217 24.62158203 62.99462891 C24.20079376 61.99903961 23.78000549 61.00345032 23.34646606 59.97769165 C22.68383255 58.36838272 22.68383255 58.36838272 22.0078125 56.7265625 C21.53938934 55.61123138 21.07096619 54.49590027 20.58834839 53.34677124 C19.09131351 49.77663621 17.60790595 46.20102361 16.125 42.625 C15.13502858 40.25612824 14.14415256 37.88763431 13.15234375 35.51953125 C11.71534266 32.08781963 10.28019347 28.6554244 8.8526001 25.2197876 C6.91528258 20.55806552 4.97362834 15.90160319 2.93261719 11.28417969 C2.64031219 10.62082611 2.3480072 9.95747253 2.04684448 9.27401733 C1.31283895 7.62013168 0.56881193 5.9707029 -0.17626953 4.32177734 C-0.44810059 3.55559082 -0.71993164 2.7894043 -1 2 C-0.67 1.34 -0.34 0.68 0 0 Z " fill="#F86C0D" transform="translate(302,53)"/>
<path d="M0 0 C4.77662686 5.0154582 5.36174105 8.48306002 5.2734375 15.23828125 C4.88380138 19.17360604 3.71351411 21.14733132 1 24 C-4.33972353 27.95139541 -9.35021245 29.25054145 -16 29 C-22.24720991 27.8500711 -25.94361291 24.74894098 -30 20 C-31.66619387 15.0014184 -31.62822535 10.6862891 -29.8125 5.8125 C-26.96740864 1.39770306 -24.58885032 -1.38211377 -19.625 -3.3125 C-12.03099716 -4.75274192 -6.61087806 -3.97675643 0 0 Z " fill="#FB9309" transform="translate(455,41)"/>
<path d="M0 0 C2.61376953 -0.34057617 2.61376953 -0.34057617 5.8828125 -0.29296875 C7.04941406 -0.28330078 8.21601563 -0.27363281 9.41796875 -0.26367188 C10.64128906 -0.23853516 11.86460937 -0.21339844 13.125 -0.1875 C14.97158203 -0.16719727 14.97158203 -0.16719727 16.85546875 -0.14648438 C19.90407843 -0.11103543 22.951825 -0.06162079 26 0 C24.55324417 7.38851239 22.27086611 14.24879102 19.6875 21.3125 C19.0272427 23.13988504 18.36698841 24.96727118 17.70683289 26.79469299 C16.99051817 28.77435853 16.27151087 30.75302743 15.55175781 32.73144531 C12.99862802 39.75040244 10.46338939 46.77583791 7.9256897 53.80038452 C7.07849612 56.14326338 6.22929169 58.48540468 5.37963867 60.82739258 C2.83228913 67.85716356 0.31153057 74.88821779 -2 82 C-3.65 82 -5.3 82 -7 82 C-7.33 80.35 -7.66 78.7 -8 77 C-5 76 -5 76 -3 76 C-0.35527522 69.71724311 -0.35527522 69.71724311 0 63 C0.66 63 1.32 63 2 63 C1.855625 62.38511719 1.71125 61.77023438 1.5625 61.13671875 C1.376875 60.32847656 1.19125 59.52023438 1 58.6875 C0.814375 57.88699219 0.62875 57.08648437 0.4375 56.26171875 C0 54 0 54 0 51 C1.98 51 3.96 51 6 51 C6.12117188 50.40832031 6.24234375 49.81664062 6.3671875 49.20703125 C7.27079102 44.94619309 8.27882752 41.01606913 10 37 C10.35858516 35.67323492 10.7018576 34.34164079 11 33 C10.34 33 9.68 33 9 33 C9.75 31.0625 9.75 31.0625 11 29 C13.078125 28.37109375 13.078125 28.37109375 15 28 C15.1687539 25.60429729 15.33506836 23.20846637 15.5 20.8125 C15.54769531 20.13896484 15.59539062 19.46542969 15.64453125 18.77148438 C15.89023821 15.17363248 16.05601984 11.60627694 16 8 C16.66 8 17.32 8 18 8 C17.505 5.03 17.505 5.03 17 2 C15.54119891 2.14107747 14.08296449 2.28802415 12.625 2.4375 C11.81289062 2.51871094 11.00078125 2.59992188 10.1640625 2.68359375 C7.95727195 2.89090114 7.95727195 2.89090114 6 4 C6 3.34 6 2.68 6 2 C3.4251788 3.00916823 3.4251788 3.00916823 1 5 C0.15827178 8.39132451 0.15827178 8.39132451 0 12 C-0.165 12.804375 -0.33 13.60875 -0.5 14.4375 C-1.03931501 16.88998685 -1.03931501 16.88998685 -1.109375 18.98046875 C-1.25 21.125 -1.25 21.125 -2 25 C-3.63631892 26.04892238 -5.30485863 27.04906703 -7 28 C-8.56618811 31.91547029 -9.61148877 34.97127807 -8 39 C-8.66 39 -9.32 39 -10 39 C-10.33 39.99 -10.66 40.98 -11 42 C-11.66 42 -12.32 42 -13 42 C-13.268125 42.928125 -13.53625 43.85625 -13.8125 44.8125 C-15.46341463 49.24390244 -15.46341463 49.24390244 -18 51 C-19.32 51 -20.64 51 -22 51 C-21.95875 50.13375 -21.9175 49.2675 -21.875 48.375 C-22.00457721 44.87641532 -22.76019656 42.25448403 -24 39 C-23.34 38.34 -22.68 37.68 -22 37 C-18.89381244 39.54142619 -18.1716635 42.24048843 -17 46 C-16.72478012 45.20193184 -16.72478012 45.20193184 -16.44400024 44.38774109 C-14.53486226 38.85444485 -12.61976131 33.3232389 -10.70117188 27.79321289 C-9.98576926 25.72864013 -9.27189287 23.66353786 -8.55957031 21.59790039 C-7.53590506 18.63026917 -6.5067806 15.6645805 -5.4765625 12.69921875 C-4.99988632 11.31158577 -4.99988632 11.31158577 -4.51358032 9.8959198 C-4.2134201 9.03525406 -3.91325989 8.17458832 -3.60400391 7.2878418 C-3.34197174 6.53061325 -3.07993958 5.7733847 -2.80996704 4.99320984 C-2 3 -2 3 0 0 Z " fill="#D66033" transform="translate(232,77)"/>
<path d="M0 0 C9.24 0 18.48 0 28 0 C31.375 7.875 31.375 7.875 32.1875 11.9375 C32.34605469 12.70964844 32.50460937 13.48179688 32.66796875 14.27734375 C32.77753906 14.84582031 32.88710938 15.41429688 33 16 C31 15 31 15 30 12 C28.08333333 11.16666667 28.08333333 11.16666667 26 11 C25.01 11.495 25.01 11.495 24 12 C24 10.35 24 8.7 24 7 C24.66 7 25.32 7 26 7 C25.67 6.34 25.34 5.68 25 5 C24.34 5 23.68 5 23 5 C22.67 5.66 22.34 6.32 22 7 C21.34 7 20.68 7 20 7 C20 5.35 20 3.7 20 2 C17.36 2.66 14.72 3.32 12 4 C12 3.34 12 2.68 12 2 C10.02 2.99 10.02 2.99 8 4 C8.020625 5.134375 8.04125 6.26875 8.0625 7.4375 C8 11 8 11 7 12 C7.66 12.33 8.32 12.66 9 13 C8.773125 13.763125 8.54625 14.52625 8.3125 15.3125 C8.1578125 16.6428125 8.1578125 16.6428125 8 18 C9.33378575 19.8354799 9.33378575 19.8354799 11 21 C12.65 20.34 14.3 19.68 16 19 C15.690625 19.598125 15.38125 20.19625 15.0625 20.8125 C13.89790296 23.08956772 13.89790296 23.08956772 13 26 C13.495 26.433125 13.99 26.86625 14.5 27.3125 C16 29 16 29 16 32 C15.67 32.66 15.34 33.32 15 34 C15.33 34.99 15.66 35.98 16 37 C16 39 16 41 16 43 C16.66 43 17.32 43 18 43 C18 43.66 18 44.32 18 45 C19.98 45.33 21.96 45.66 24 46 C23.505 46.45375 23.01 46.9075 22.5 47.375 C20.77390663 48.87635519 20.77390663 48.87635519 21 51 C21.66 51 22.32 51 23 51 C23.95261487 55.76307437 24.08333357 60.1666528 24 65 C24.66 65 25.32 65 26 65 C26 65.66 26 66.32 26 67 C27.65 67.33 29.3 67.66 31 68 C30.79375 68.556875 30.5875 69.11375 30.375 69.6875 C29.88994151 72.67869404 30.85145569 74.22998138 32 77 C32 78.65 32 80.3 32 82 C40.25 82 48.5 82 57 82 C57 82.33 57 82.66 57 83 C47.76 83 38.52 83 29 83 C25.61071434 74.86571442 22.42044575 66.81242255 19.53125 58.5078125 C19.12845825 57.35940887 18.7256665 56.21100525 18.31066895 55.02780151 C17.03714122 51.39468147 15.76841835 47.75990661 14.5 44.125 C13.23299142 40.50476832 11.96499844 36.88488276 10.69677734 33.26507568 C9.88614409 30.94989583 9.07655227 28.63435103 8.26806641 26.31842041 C6.63189136 21.63465313 4.99293821 16.95304138 3.29296875 12.29199219 C2.93241394 11.30149368 2.93241394 11.30149368 2.5645752 10.29098511 C1.96752092 8.65960321 1.36401016 7.03058787 0.75976562 5.40185547 C0 3 0 3 0 0 Z " fill="#C06245" transform="translate(560,77)"/>
<path d="M0 0 C4.11193736 0.11798252 8.22363288 0.24221059 12.33520508 0.37231445 C13.73489199 0.41571434 15.13463359 0.45738564 16.53442383 0.49731445 C18.54261495 0.55489445 20.55061149 0.61914 22.55859375 0.68359375 C23.76829834 0.72025146 24.97800293 0.75690918 26.22436523 0.79467773 C29 1 29 1 30 2 C30.10035816 4.52002451 30.13617712 7.012662 30.12939453 9.53320312 C30.13114685 10.32178207 30.13289917 11.11036102 30.13470459 11.9228363 C30.13912358 14.5423296 30.13618496 17.16175596 30.1328125 19.78125 C30.13348553 21.5934653 30.13445554 23.40568052 30.13571167 25.21789551 C30.13718871 29.02108619 30.1350339 32.82425344 30.13037109 36.62744141 C30.1246738 41.51378495 30.12795278 46.40007357 30.13394356 51.2864151 C30.13754901 55.03005389 30.13641066 58.77367955 30.13381577 62.51731873 C30.13314645 64.31953437 30.13397507 66.12175118 30.13629532 67.92396545 C30.13882159 70.43827491 30.13498162 72.95249417 30.12939453 75.46679688 C30.13141876 76.21904037 30.13344299 76.97128387 30.13552856 77.74632263 C30.1142626 82.8857374 30.1142626 82.8857374 29 84 C26.86646826 84.10003289 24.72962458 84.13081048 22.59375 84.1328125 C21.29308594 84.13410156 19.99242187 84.13539063 18.65234375 84.13671875 C17.97155762 84.13462402 17.29077148 84.1325293 16.58935547 84.13037109 C14.50871485 84.1250224 12.42829011 84.1303168 10.34765625 84.13671875 C8.39666016 84.13478516 8.39666016 84.13478516 6.40625 84.1328125 C5.20291016 84.13168457 3.99957031 84.13055664 2.75976562 84.12939453 C0 84 0 84 -1 83 C-1.10036005 80.48524626 -1.1361771 77.99793752 -1.12939453 75.48266602 C-1.13114685 74.69569336 -1.13289917 73.9087207 -1.13470459 73.09790039 C-1.13912411 70.48321358 -1.13618449 67.86859381 -1.1328125 65.25390625 C-1.13348558 63.44408658 -1.13445564 61.63426699 -1.13571167 59.82444763 C-1.13718883 56.0254531 -1.13503375 52.22648204 -1.13037109 48.42749023 C-1.12467785 43.55021322 -1.12795013 38.67299127 -1.13394356 33.79571629 C-1.13755214 30.05632612 -1.13640914 26.31694907 -1.13381577 22.57755852 C-1.13314711 20.77896048 -1.13397279 18.98036126 -1.13629532 17.1817646 C-1.13882624 14.6700537 -1.13497481 12.1584327 -1.12939453 9.64672852 C-1.13141876 8.89808029 -1.13344299 8.14943207 -1.13552856 7.37809753 C-1.11426347 2.22852694 -1.11426347 2.22852694 0 0 Z M1 4 C1 30.07 1 56.14 1 83 C9.58 83 18.16 83 27 83 C28.50252915 79.9949417 28.12992759 76.90743067 28.11352539 73.61279297 C28.11367142 72.85172241 28.11381744 72.09065186 28.1139679 71.30651855 C28.11326993 68.78504611 28.10548294 66.26364708 28.09765625 63.7421875 C28.09579166 61.99626709 28.09436795 60.25034616 28.09336853 58.50442505 C28.08954659 53.90454672 28.07971905 49.30469986 28.06866455 44.70483398 C28.05844349 40.0128624 28.05386942 35.32088575 28.04882812 30.62890625 C28.03809651 21.41925699 28.02102394 12.20963111 28 3 C26.3942023 2.8360673 24.78830793 2.67308134 23.18237305 2.51049805 C21.84096504 2.37420235 21.84096504 2.37420235 20.47245789 2.2351532 C17.91355139 1.99177795 15.38307849 1.83462202 12.8125 1.8125 C12.05582031 1.79832031 11.29914063 1.78414063 10.51953125 1.76953125 C7.19714357 1.99468428 7.19714357 1.99468428 1 4 Z " fill="#D59C30" transform="translate(428,76)"/>
<path d="M0 0 C8.58 0 17.16 0 26 0 C27 2 27 2 26.41772461 4.1784668 C25.91511108 5.54998901 25.91511108 5.54998901 25.40234375 6.94921875 C25.01933105 8.0072168 24.63631836 9.06521484 24.24169922 10.15527344 C23.81131348 11.3209082 23.38092773 12.48654297 22.9375 13.6875 C22.26252483 15.54486088 21.5875738 17.40223064 20.91333008 19.25985718 C20.16464556 21.3197207 19.4126936 23.37837442 18.66064453 25.43701172 C15.85098093 33.14173367 13.09560355 40.86609821 10.32962036 48.58657837 C8.79214751 52.87617726 7.25156918 57.16465982 5.7109375 61.453125 C5.18277958 62.92350247 4.65462199 64.39388006 4.12646484 65.86425781 C3.75473145 66.89905273 3.38299805 67.93384766 3 69 C1.05841983 65.48375245 0.81688932 63.0284349 1 59 C1.99 58.505 1.99 58.505 3 58 C2.34 57.67 1.68 57.34 1 57 C1.33 55.35 1.66 53.7 2 52 C2.99 52 3.98 52 5 52 C5.99 51.505 5.99 51.505 7 51 C8.26761762 46.70418473 9 43.49055702 9 39 C9.66 39 10.32 39 11 39 C11 38.34 11 37.68 11 37 C10.34 37 9.68 37 9 37 C8.875 34.125 8.875 34.125 9 31 C11 29 11 29 14 27 C14.66 27.33 15.32 27.66 16 28 C16.66 23.71 17.32 19.42 18 15 C18.66 15 19.32 15 20 15 C19.67 14.01 19.34 13.02 19 12 C19.33 11.34 19.66 10.68 20 10 C19.01 9.67 18.02 9.34 17 9 C17.33 6.69 17.66 4.38 18 2 C12.88034734 1.89811637 8.02587943 1.9490848 3 3 C0.56319616 5.38635242 -0.32828877 7.68672773 -1 11 C-0.34 11.33 0.32 11.66 1 12 C1 13.98 1 15.96 1 18 C-3.75 19 -3.75 19 -6 19 C-5.28738609 14.7161256 -3.93024731 10.74851738 -2.4375 6.6875 C-1.633125 4.480625 -0.82875 2.27375 0 0 Z M19 2 C19 2.66 19 3.32 19 4 C19.66 4 20.32 4 21 4 C21 3.34 21 2.68 21 2 C20.34 2 19.68 2 19 2 Z " fill="#943861" transform="translate(679,77)"/>
<path d="M0 0 C3.20767206 2.96092806 4.78080112 5.61602248 5 10 C4.20042216 13.27826915 3.1384284 14.8536614 0.8125 17.3125 C-2.78147168 19.46888301 -4.86672399 19.5166595 -9 19 C-12.20446952 17.64700176 -13.59719544 16.67744403 -15.375 13.6875 C-16.15298948 10.34214525 -15.96231918 8.29938004 -15 5 C-11.01545372 -0.97681942 -6.88663998 -2.0271158 0 0 Z " fill="#7028A4" transform="translate(52,63)"/>
<path d="M0 0 C2.3181362 1.89111111 3.66914015 3.33828031 5 6 C5.12339449 10.56559624 4.83352347 13.99486876 1.875 17.5625 C-1.74924937 19.37462469 -3.98973424 19.50128322 -8 19 C-10.79348323 17.7584519 -12.45140815 16.67327182 -14.375 14.3125 C-15.33974605 10.74293961 -15.01783466 7.54061056 -14 4 C-9.97596198 -1.23124943 -6.23098548 -1.42110195 0 0 Z " fill="#7F3095" transform="translate(81,63)"/>
<path d="M0 0 C1.32 0.66 2.64 1.32 4 2 C3.91621094 2.58007812 3.83242187 3.16015625 3.74609375 3.7578125 C3.13606754 8.43725404 2.94248186 12.3469202 4 17 C4.165 17.886875 4.33 18.77375 4.5 19.6875 C4.98668635 22.14105507 4.98668635 22.14105507 6 25 C6.66 25.33 7.32 25.66 8 26 C8.33 26.99 8.66 27.98 9 29 C9.66 29.33 10.32 29.66 11 30 C11.20086443 33.71599191 11.1519437 34.77208445 9 38 C9.99 38.33 10.98 38.66 12 39 C11.01 39.495 11.01 39.495 10 40 C10.474375 40.721875 10.94875 41.44375 11.4375 42.1875 C12.94152903 44.89475226 13.56599182 46.96194275 14 50 C15.98 49.505 15.98 49.505 18 49 C18.2165625 50.5778125 18.2165625 50.5778125 18.4375 52.1875 C18.76444457 54.40345766 19.12321031 56.61605157 19.5625 58.8125 C20 61 20 61 20 63 C23.93743833 63.05797565 27.87476719 63.09358789 31.8125 63.125 C32.93205078 63.14175781 34.05160156 63.15851563 35.20507812 63.17578125 C36.81479492 63.18544922 36.81479492 63.18544922 38.45703125 63.1953125 C39.44678955 63.20578613 40.43654785 63.21625977 41.45629883 63.22705078 C44.2443952 63.18267404 44.2443952 63.18267404 47 61 C46.67 62.32 46.34 63.64 46 65 C36.43 65 26.86 65 17 65 C12.30151258 52.2749299 7.61152603 39.54700595 3.00830078 26.78710938 C2.32527754 24.89912068 1.63864265 23.01243536 0.94873047 21.12695312 C-0.06368361 18.35852267 -1.06432154 15.58608968 -2.0625 12.8125 C-2.37380859 11.96888916 -2.68511719 11.12527832 -3.00585938 10.25610352 C-3.28365234 9.47678467 -3.56144531 8.69746582 -3.84765625 7.89453125 C-4.09523682 7.21237549 -4.34281738 6.53021973 -4.59790039 5.82739258 C-5 4 -5 4 -4 1 C-3.01 1.33 -2.02 1.66 -1 2 C-0.67 1.34 -0.34 0.68 0 0 Z " fill="#874374" transform="translate(124,95)"/>
<path d="M0 0 C2.82970118 2.4867071 4.6847745 4.14438792 6.01171875 7.74609375 C7.60118533 11.60192909 8.65217086 13.42573857 12 16 C20.14158091 17.75952526 28.71989728 17.31380155 37 17 C37 17.66 37 18.32 37 19 C32.89589245 19.05796132 28.79188984 19.09358313 24.6875 19.125 C23.52025391 19.14175781 22.35300781 19.15851562 21.15039062 19.17578125 C19.47299805 19.18544922 19.47299805 19.18544922 17.76171875 19.1953125 C16.2142395 19.21102295 16.2142395 19.21102295 14.63549805 19.22705078 C12 19 12 19 9 17 C8.34 17.33 7.68 17.66 7 18 C6.896875 17.360625 6.79375 16.72125 6.6875 16.0625 C6.460625 15.381875 6.23375 14.70125 6 14 C5.01 13.67 4.02 13.34 3 13 C2.814375 14.216875 2.62875 15.43375 2.4375 16.6875 C2.33308594 17.37199219 2.22867187 18.05648437 2.12109375 18.76171875 C1.89897608 21.02365966 1.89897608 21.02365966 2.5 23.28076172 C3.03908675 26.21257235 3.02155422 28.77096922 2.87890625 31.74609375 C2.83056641 32.83083984 2.78222656 33.91558594 2.73242188 35.03320312 C2.67634766 36.15662109 2.62027344 37.28003906 2.5625 38.4375 C2.45861216 40.6653171 2.35571593 42.89318071 2.25390625 45.12109375 C2.20564697 46.1052124 2.1573877 47.08933105 2.10766602 48.10327148 C1.99733794 51.07162215 1.98209613 54.02988644 2 57 C1.01 57 0.02 57 -1 57 C-1.02312916 49.71578452 -1.04091801 42.4315769 -1.05181217 35.14733219 C-1.05703975 31.76528187 -1.06413511 28.3832566 -1.07543945 25.0012207 C-1.08834267 21.11670223 -1.09322924 17.23219403 -1.09765625 13.34765625 C-1.10281754 12.12788589 -1.10797882 10.90811554 -1.11329651 9.65138245 C-1.11337204 8.53029587 -1.11344757 7.40920929 -1.11352539 6.25415039 C-1.115746 5.26153702 -1.11796661 4.26892365 -1.12025452 3.24623108 C-1 1 -1 1 0 0 Z " fill="#6132A1" transform="translate(20,22)"/>
<path d="M0 0 C2.61376953 -0.34057617 2.61376953 -0.34057617 5.8828125 -0.29296875 C7.04941406 -0.28330078 8.21601563 -0.27363281 9.41796875 -0.26367188 C10.64128906 -0.23853516 11.86460937 -0.21339844 13.125 -0.1875 C14.97158203 -0.16719727 14.97158203 -0.16719727 16.85546875 -0.14648438 C19.90407843 -0.11103543 22.951825 -0.06162079 26 0 C25.67 1.65 25.34 3.3 25 5 C24.505 3.02 24.505 3.02 24 1 C17.07 1 10.14 1 3 1 C1.0192126 4.9615748 0.53249028 7.66400773 0 12 C-0.165 12.804375 -0.33 13.60875 -0.5 14.4375 C-1.03931501 16.88998685 -1.03931501 16.88998685 -1.109375 18.98046875 C-1.25 21.125 -1.25 21.125 -2 25 C-3.63631892 26.04892238 -5.30485863 27.04906703 -7 28 C-8.56618811 31.91547029 -9.61148877 34.97127807 -8 39 C-8.66 39 -9.32 39 -10 39 C-10.33 39.99 -10.66 40.98 -11 42 C-11.66 42 -12.32 42 -13 42 C-13.268125 42.928125 -13.53625 43.85625 -13.8125 44.8125 C-15.46341463 49.24390244 -15.46341463 49.24390244 -18 51 C-19.32 51 -20.64 51 -22 51 C-21.95875 50.13375 -21.9175 49.2675 -21.875 48.375 C-22.00457721 44.87641532 -22.76019656 42.25448403 -24 39 C-23.34 38.34 -22.68 37.68 -22 37 C-18.89381244 39.54142619 -18.1716635 42.24048843 -17 46 C-16.72478012 45.20193184 -16.72478012 45.20193184 -16.44400024 44.38774109 C-14.53486226 38.85444485 -12.61976131 33.3232389 -10.70117188 27.79321289 C-9.98576926 25.72864013 -9.27189287 23.66353786 -8.55957031 21.59790039 C-7.53590506 18.63026917 -6.5067806 15.6645805 -5.4765625 12.69921875 C-4.99988632 11.31158577 -4.99988632 11.31158577 -4.51358032 9.8959198 C-4.2134201 9.03525406 -3.91325989 8.17458832 -3.60400391 7.2878418 C-3.34197174 6.53061325 -3.07993958 5.7733847 -2.80996704 4.99320984 C-2 3 -2 3 0 0 Z " fill="#BF5D45" transform="translate(232,77)"/>
<path d="M0 0 C9.24 0 18.48 0 28 0 C31.375 7.875 31.375 7.875 32.1875 11.9375 C32.34605469 12.70964844 32.50460937 13.48179688 32.66796875 14.27734375 C32.77753906 14.84582031 32.88710938 15.41429688 33 16 C31 15 31 15 30 12 C28.08333333 11.16666667 28.08333333 11.16666667 26 11 C25.01 11.495 25.01 11.495 24 12 C24 10.35 24 8.7 24 7 C24.66 7 25.32 7 26 7 C25.67 6.34 25.34 5.68 25 5 C24.34 5 23.68 5 23 5 C22.67 5.66 22.34 6.32 22 7 C21.34 7 20.68 7 20 7 C20 5.35 20 3.7 20 2 C17.36 2.66 14.72 3.32 12 4 C12 3.34 12 2.68 12 2 C10.02 2.99 10.02 2.99 8 4 C8.020625 5.134375 8.04125 6.26875 8.0625 7.4375 C8 11 8 11 7 12 C7.66 12.33 8.32 12.66 9 13 C8.773125 13.763125 8.54625 14.52625 8.3125 15.3125 C8.1578125 16.6428125 8.1578125 16.6428125 8 18 C9.33378575 19.8354799 9.33378575 19.8354799 11 21 C12.65 20.34 14.3 19.68 16 19 C15.71125 19.53625 15.4225 20.0725 15.125 20.625 C13.83288192 23.35280484 12.91441408 26.12612718 12 29 C10 28 10 28 9.3671875 26.15234375 C9.20476563 25.42144531 9.04234375 24.69054687 8.875 23.9375 C8.70742188 23.20402344 8.53984375 22.47054687 8.3671875 21.71484375 C8.24601563 21.14894531 8.12484375 20.58304688 8 20 C7.34 20 6.68 20 6 20 C4.99422987 17.23113877 3.99519853 14.46015896 3 11.6875 C2.71382812 10.90181641 2.42765625 10.11613281 2.1328125 9.30664062 C1.86210938 8.54931641 1.59140625 7.79199219 1.3125 7.01171875 C1.06113281 6.31522217 0.80976562 5.61872559 0.55078125 4.90112305 C0 3 0 3 0 0 Z " fill="#C07048" transform="translate(560,77)"/>
<path d="M0 0 C0.99 0.33 1.98 0.66 3 1 C4.11609507 10.50887047 4.23941926 20.00243325 4.25 29.5625 C4.25167175 30.35970459 4.25334351 31.15690918 4.25506592 31.97827148 C4.2585258 59.4829484 4.2585258 59.4829484 -1 70 C-1 67.03 -1 64.06 -1 61 C-0.34 61 0.32 61 1 61 C0.98839844 59.95199219 0.97679687 58.90398437 0.96484375 57.82421875 C0.95546345 56.44531428 0.9463635 55.06640789 0.9375 53.6875 C0.92912109 52.99720703 0.92074219 52.30691406 0.91210938 51.59570312 C0.89692094 48.4516975 0.99806673 46.00579981 2 43 C1.34 43 0.68 43 0 43 C0.33 42.01 0.66 41.02 1 40 C1.33 40.33 1.66 40.66 2 41 C2.33 32.42 2.66 23.84 3 15 C1.35 15.33 -0.3 15.66 -2 16 C-2 15.01 -2 14.02 -2 13 C-2.96945557 13.48895752 -3.93891113 13.97791504 -4.93774414 14.48168945 C-9.32710024 16.35387872 -13.28088477 16.38479613 -17.99609375 16.29296875 C-18.82963882 16.28872391 -19.6631839 16.28447906 -20.52198792 16.28010559 C-23.16083311 16.26343314 -25.79888916 16.22580358 -28.4375 16.1875 C-30.23631703 16.17243833 -32.03514613 16.15875253 -33.83398438 16.14648438 C-38.22295615 16.11356728 -42.61134469 16.06186567 -47 16 C-47 15.67 -47 15.34 -47 15 C-45.96705811 15.04302246 -44.93411621 15.08604492 -43.86987305 15.13037109 C-39.98740576 15.27296265 -36.1082572 15.3206937 -32.22338867 15.34179688 C-30.55196696 15.36368128 -28.88065977 15.41031169 -27.21069336 15.48339844 C-17.65697225 16.09398935 -17.65697225 16.09398935 -9.11138916 12.5592041 C-5.41832128 8.79112829 -2.63961587 4.54831786 0 0 Z " fill="#8E3489" transform="translate(104,24)"/>
<path d="M0 0 C1.24112549 0.02618408 2.48225098 0.05236816 3.76098633 0.0793457 C4.42262283 0.08642044 5.08425934 0.09349518 5.76594543 0.1007843 C7.87612742 0.12874188 9.98364018 0.19146848 12.09301758 0.25512695 C13.52461983 0.28020872 14.95626375 0.30302212 16.38793945 0.32348633 C19.89466408 0.37856849 23.39983029 0.46484406 26.90551758 0.56762695 C26.28551251 4.97586301 25.17140061 8.21287862 23.08129883 12.1574707 C21.14412442 16.12835645 19.68087121 20.27765284 18.15161133 24.41918945 C16.90339677 27.57298548 15.4649342 30.55727487 13.90551758 33.56762695 C12.97128113 30.55730952 12.86101847 29.70112428 13.90551758 26.56762695 C14.56551758 26.56762695 15.22551758 26.56762695 15.90551758 26.56762695 C16.56551758 23.26762695 17.22551758 19.96762695 17.90551758 16.56762695 C18.56551758 16.56762695 19.22551758 16.56762695 19.90551758 16.56762695 C19.41051758 14.09262695 19.41051758 14.09262695 18.90551758 11.56762695 C19.56551758 11.56762695 20.22551758 11.56762695 20.90551758 11.56762695 C21.28614978 9.24154125 21.61821703 6.90707431 21.90551758 4.56762695 C20.86758985 3.305816 20.86758985 3.305816 18.58886719 3.45410156 C17.08851929 3.46195679 17.08851929 3.46195679 15.55786133 3.4699707 C14.47827148 3.47319336 13.39868164 3.47641602 12.28637695 3.47973633 C10.58191406 3.49230469 10.58191406 3.49230469 8.84301758 3.50512695 C7.13275391 3.51189453 7.13275391 3.51189453 5.38793945 3.51879883 C2.56041406 3.53062948 -0.26700882 3.54711286 -3.09448242 3.56762695 C-3.42448242 4.88762695 -3.75448242 6.20762695 -4.09448242 7.56762695 C-4.75448242 7.56762695 -5.41448242 7.56762695 -6.09448242 7.56762695 C-6.31104492 9.17637695 -6.31104492 9.17637695 -6.53198242 10.81762695 C-6.93197685 13.48425645 -7.37040166 15.98162424 -8.09448242 18.56762695 C-8.75448242 18.56762695 -9.41448242 18.56762695 -10.09448242 18.56762695 C-10.22725586 19.19411133 -10.3600293 19.8205957 -10.49682617 20.46606445 C-10.67342773 21.28333008 -10.8500293 22.1005957 -11.03198242 22.94262695 C-11.29301758 24.16079102 -11.29301758 24.16079102 -11.55932617 25.40356445 C-12.09448242 27.56762695 -12.09448242 27.56762695 -13.09448242 29.56762695 C-13.45061339 31.22957148 -13.7865655 32.89607795 -14.09448242 34.56762695 C-16.07448242 35.06262695 -16.07448242 35.06262695 -18.09448242 35.56762695 C-15.77531687 25.16878785 -10.81555035 15.06135919 -6.09448242 5.56762695 C-5.71138916 4.69340088 -5.3282959 3.8191748 -4.93359375 2.91845703 C-3.09448242 0.56762695 -3.09448242 0.56762695 0 0 Z " fill="#E59032" transform="translate(395.094482421875,52.432373046875)"/>
<path d="M0 0 C0.33 0 0.66 0 1 0 C1.04254356 1.99954746 1.04080783 4.00041636 1 6 C0.67 6.33 0.34 6.66 0 7 C-0.07148199 8.35243917 -0.08399454 9.70834367 -0.0625 11.0625 C-0.041875 12.361875 -0.02125 13.66125 0 15 C-1.65 15.33 -3.3 15.66 -5 16 C-5.144375 17.093125 -5.28875 18.18625 -5.4375 19.3125 C-6 23 -6 23 -7 26 C-6.79375 26.5775 -6.5875 27.155 -6.375 27.75 C-5.75951126 31.44293242 -7.27233407 33.77502361 -9 37 C-10.64639965 38.35827971 -12.31295807 39.69254251 -14 41 C-14.99 42.98 -15.98 44.96 -17 47 C-8.09 47 0.82 47 10 47 C10 47.33 10 47.66 10 48 C0.43 48 -9.14 48 -19 48 C-19.33 47.34 -19.66 46.68 -20 46 C-19.18448101 43.98640947 -18.27012025 42.0125209 -17.3125 40.0625 C-15.30335049 35.85902591 -13.45974604 31.71569103 -11.9375 27.3125 C-10.38650246 22.87741614 -8.46517445 18.80337215 -6.3046875 14.63671875 C-3.94613194 9.87017683 -1.99029631 4.92915937 0 0 Z " fill="#EC721C" transform="translate(366,112)"/>
<path d="M0 0 C1.02029297 -0.00128906 2.04058594 -0.00257812 3.09179688 -0.00390625 C4.15076172 -0.00003906 5.20972656 0.00382812 6.30078125 0.0078125 C7.37134766 0.00394531 8.44191406 0.00007813 9.54492188 -0.00390625 C11.06956055 -0.00197266 11.06956055 -0.00197266 12.625 0 C13.55787842 0.00112793 14.49075684 0.00225586 15.4519043 0.00341797 C17.61328125 0.1328125 17.61328125 0.1328125 18.61328125 1.1328125 C18.70764654 3.37211136 18.73070452 5.61443 18.72680664 7.85571289 C18.72695267 8.558116 18.72709869 9.2605191 18.72724915 9.98420715 C18.72654997 12.31632528 18.71875742 14.6483645 18.7109375 16.98046875 C18.70907333 18.59329688 18.70764943 20.20612557 18.70664978 21.81895447 C18.70282448 26.07196607 18.6929941 30.32494374 18.6819458 34.57794189 C18.67173194 38.9145868 18.66715221 43.25123717 18.66210938 47.58789062 C18.65137184 56.10288019 18.63429528 64.61784213 18.61328125 73.1328125 C17.12828125 73.6278125 17.12828125 73.6278125 15.61328125 74.1328125 C15.94328125 50.3728125 16.27328125 26.6128125 16.61328125 2.1328125 C3.06802296 1.99598006 3.06802296 1.99598006 -10.38671875 3.1328125 C-9.38671875 1.1328125 -9.38671875 1.1328125 -7.66088867 0.51611328 C-5.07053733 0.07952159 -2.62746776 0.00316535 0 0 Z " fill="#FC9D3D" transform="translate(439.38671875,76.8671875)"/>
<path d="M0 0 C1.16781006 0.00523682 2.33562012 0.01047363 3.53881836 0.01586914 C4.79887695 0.0190918 6.05893555 0.02231445 7.35717773 0.02563477 C8.6976732 0.03399136 10.03816799 0.04245632 11.37866211 0.05102539 C12.72306153 0.05603879 14.06746271 0.06060197 15.41186523 0.06469727 C18.71334151 0.07653051 22.01473014 0.09301568 25.31616211 0.11352539 C26.17945984 2.56899505 27.03205647 5.02730582 27.87866211 7.48852539 C28.24894531 8.5365332 28.24894531 8.5365332 28.62670898 9.60571289 C29.2470726 11.42311615 29.78722735 13.26743936 30.31616211 15.11352539 C29.98616211 15.77352539 29.65616211 16.43352539 29.31616211 17.11352539 C27.31616211 14.11352539 27.31616211 14.11352539 27.31616211 11.11352539 C25.33616211 11.11352539 23.35616211 11.11352539 21.31616211 11.11352539 C20.51663073 7.82656306 20.21957275 6.40329347 21.31616211 3.11352539 C16.36616211 2.78352539 11.41616211 2.45352539 6.31616211 2.11352539 C3.12503832 6.30662031 3.12503832 6.30662031 2.56616211 11.28930664 C3.1352663 13.23493159 3.72462635 15.17460263 4.31616211 17.11352539 C3.65616211 17.77352539 2.99616211 18.43352539 2.31616211 19.11352539 C0.33616211 13.17352539 -1.64383789 7.23352539 -3.68383789 1.11352539 C-2.68383789 0.11352539 -2.68383789 0.11352539 0 0 Z " fill="#934B6F" transform="translate(115.683837890625,76.886474609375)"/>
<path d="M0 0 C6.25944629 5.56395225 9.93170334 12.61589963 11 21 C11.55375254 33.89249493 11.55375254 33.89249493 10 37 C-8.81 37 -27.62 37 -47 37 C-47 36.67 -47 36.34 -47 36 C-45.68394775 35.97494385 -44.36789551 35.9498877 -43.01196289 35.92407227 C-38.09732467 35.82941316 -33.18280867 35.72933876 -28.26831055 35.62768555 C-26.14724602 35.58455675 -24.02615169 35.54286764 -21.9050293 35.50268555 C-18.84414717 35.44444466 -15.78341206 35.38090952 -12.72265625 35.31640625 C-11.78478775 35.29969376 -10.84691925 35.28298126 -9.88063049 35.26576233 C-4.19831355 35.13987001 1.37851955 34.87409208 7 34 C8.49386624 31.01226752 8.14371602 27.9596842 8.125 24.6875 C8.12757813 23.37136719 8.13015625 22.05523437 8.1328125 20.69921875 C8.02300644 17.64079706 7.72160244 14.9608608 7 12 C5.68 11.67 4.36 11.34 3 11 C2.87625 10.21625 2.7525 9.4325 2.625 8.625 C2.20882007 5.85942178 2.20882007 5.85942178 0 4 C0 2.68 0 1.36 0 0 Z " fill="#D1994E" transform="translate(548,90)"/>
<path d="M0 0 C0.66 0 1.32 0 2 0 C2.33773437 1.12019531 2.67546875 2.24039063 3.0234375 3.39453125 C3.47370046 4.86726636 3.92423553 6.33991831 4.375 7.8125 C4.59671875 8.55048828 4.8184375 9.28847656 5.046875 10.04882812 C5.37558594 11.11713867 5.37558594 11.11713867 5.7109375 12.20703125 C5.90993652 12.8616333 6.10893555 13.51623535 6.31396484 14.19067383 C7.03415708 16.29355136 7.03415708 16.29355136 9 19 C10.45381147 22.96349333 11.70353758 26.98096651 13 31 C21.25 31.33 29.5 31.66 38 32 C38 30.02 38 28.04 38 26 C38.99 25.67 39.98 25.34 41 25 C41.33 23.02 41.66 21.04 42 19 C42.66 19.33 43.32 19.66 44 20 C43.54803755 21.60597325 43.08817673 23.20972508 42.625 24.8125 C42.24214844 26.15248047 42.24214844 26.15248047 41.8515625 27.51953125 C41 30 41 30 39 33 C36.20263672 33.34057617 36.20263672 33.34057617 32.6796875 33.29296875 C31.42285156 33.28330078 30.16601562 33.27363281 28.87109375 33.26367188 C27.55238281 33.23853516 26.23367188 33.21339844 24.875 33.1875 C23.53517097 33.17245483 22.19532596 33.15876613 20.85546875 33.14648438 C17.56991158 33.11102872 14.28515418 33.06160849 11 33 C7.96402394 25.8897638 5.09823789 18.7842078 2.6875 11.4375 C2.42388672 10.65826172 2.16027344 9.87902344 1.88867188 9.07617188 C0.85157999 5.94873376 0 3.31710694 0 0 Z " fill="#984159" transform="translate(637,127)"/>
<path d="M0 0 C0.94082428 0.00007553 1.88164856 0.00015106 2.85098267 0.00022888 C3.86872772 0.00539017 4.88647278 0.01055145 5.93505859 0.01586914 C7.49563492 0.01799156 7.49563492 0.01799156 9.08773804 0.02015686 C12.4196863 0.02576673 15.75156804 0.03832092 19.08349609 0.05102539 C21.33870346 0.05603912 23.59391187 0.06060225 25.84912109 0.06469727 C31.38560223 0.07573936 36.92204441 0.09248712 42.45849609 0.11352539 C42.45849609 0.44352539 42.45849609 0.77352539 42.45849609 1.11352539 C27.60849609 1.44352539 12.75849609 1.77352539 -2.54150391 2.11352539 C-1.32012513 7.9688909 -1.32012513 7.9688909 1.58349609 9.36352539 C2.53224609 9.61102539 3.48099609 9.85852539 4.45849609 10.11352539 C5.65474609 10.50540039 6.85099609 10.89727539 8.08349609 11.30102539 C14.44940333 12.8501435 21.20516424 11.82296424 27.45849609 10.11352539 C27.45849609 10.77352539 27.45849609 11.43352539 27.45849609 12.11352539 C23.16014982 14.22499374 19.21992229 14.41588111 14.52099609 14.36352539 C13.48555664 14.37512695 13.48555664 14.37512695 12.42919922 14.38696289 C8.06429591 14.37041349 4.51334111 13.7126192 0.45849609 12.11352539 C0.45849609 11.45352539 0.45849609 10.79352539 0.45849609 10.11352539 C-0.53150391 9.78352539 -1.52150391 9.45352539 -2.54150391 9.11352539 C-2.87150391 7.46352539 -3.20150391 5.81352539 -3.54150391 4.11352539 C-4.20150391 4.11352539 -4.86150391 4.11352539 -5.54150391 4.11352539 C-5.87150391 3.12352539 -6.20150391 2.13352539 -6.54150391 1.11352539 C-4.14568045 -0.08438634 -2.67372853 -0.00714901 0 0 Z " fill="#E7A837" transform="translate(503.54150390625,124.886474609375)"/>
<path d="M0 0 C4.26173035 1.66135251 7.03991533 4.74435318 10.1875 7.9375 C10.73341797 8.47568359 11.27933594 9.01386719 11.84179688 9.56835938 C14.27299314 12.01160618 15.89577976 13.68733927 17 17 C15.73113036 18.12721436 14.45982438 19.25168658 13.1875 20.375 C12.47980469 21.00148437 11.77210938 21.62796875 11.04296875 22.2734375 C6.63348416 26 6.63348416 26 3 26 C3 25.34 3 24.68 3 24 C4.11375 23.5875 5.2275 23.175 6.375 22.75 C8.90505575 21.67370612 9.81712645 21.27431033 11.375 18.9375 C11.58125 18.298125 11.7875 17.65875 12 17 C12.33 16.34 12.66 15.68 13 15 C11.68 15 10.36 15 9 15 C8.34 13.68 7.68 12.36 7 11 C7.66 11 8.32 11 9 11 C8.01 10.01 7.02 9.02 6 8 C5.67 9.32 5.34 10.64 5 12 C3.68 12 2.36 12 1 12 C1.66666667 10 2.33333333 8 3 6 C3 5.34 3 4.68 3 4 C0.69 4 -1.62 4 -4 4 C-2.68 2.68 -1.36 1.36 0 0 Z " fill="#E8A024" transform="translate(536,131)"/>
<path d="M0 0 C0.66 0.33 1.32 0.66 2 1 C-0.64 7.6 -3.28 14.2 -6 21 C-6.99 21 -7.98 21 -9 21 C-9.98929461 19.13032395 -10.96600469 17.25398622 -11.9375 15.375 C-12.75541016 13.80878906 -12.75541016 13.80878906 -13.58984375 12.2109375 C-14.96669717 9.07583082 -15.59842216 6.38545368 -16 3 C-15.01 3.495 -15.01 3.495 -14 4 C-13.375 6.5625 -13.375 6.5625 -13 9 C-12.01 9 -11.02 9 -10 9 C-10 9.66 -10 10.32 -10 11 C-7.83125748 10.49396008 -6.00032373 10.00016187 -4 9 C-2.87293294 6.88984046 -2.87293294 6.88984046 -1.875 4.4375 C-1.52179688 3.61121094 -1.16859375 2.78492187 -0.8046875 1.93359375 C-0.53914063 1.29550781 -0.27359375 0.65742187 0 0 Z " fill="#ED691C" transform="translate(340,103)"/>
<path d="M0 0 C1.98 0.495 1.98 0.495 4 1 C4.09765625 7.15234375 4.09765625 7.15234375 4 9 C3.67 9.33 3.34 9.66 3 10 C3.66 10.33 4.32 10.66 5 11 C4.773125 11.763125 4.54625 12.52625 4.3125 13.3125 C4.209375 14.199375 4.10625 15.08625 4 16 C5.33378575 17.8354799 5.33378575 17.8354799 7 19 C8.65 18.34 10.3 17.68 12 17 C11.71125 17.53625 11.4225 18.0725 11.125 18.625 C9.83288192 21.35280484 8.91441408 24.12612718 8 27 C6 26 6 26 5.3671875 24.15234375 C5.20476563 23.42144531 5.04234375 22.69054687 4.875 21.9375 C4.62363281 20.83728516 4.62363281 20.83728516 4.3671875 19.71484375 C4.24601563 19.14894531 4.12484375 18.58304688 4 18 C3.34 18 2.68 18 2 18 C-0.44563344 12.29352198 -1.42801938 8.20628094 -1 2 C-0.67 1.34 -0.34 0.68 0 0 Z " fill="#CE693A" transform="translate(564,79)"/>
<path d="M0 0 C9.24 0 18.48 0 28 0 C26.88310038 7.81829733 26.88310038 7.81829733 24.75 12.125 C22.19572397 17.45566302 20.12049781 22.88787251 18.11328125 28.4453125 C17 31 17 31 15 32 C15.33 29.69 15.66 27.38 16 25 C16.66 25 17.32 25 18 25 C18.66 21.7 19.32 18.4 20 15 C20.66 15 21.32 15 22 15 C21.67 13.35 21.34 11.7 21 10 C21.66 10 22.32 10 23 10 C23.38063221 7.6739143 23.71269945 5.33944736 24 3 C22.31699331 1.31699331 20.17991273 1.77190923 17.87109375 1.68359375 C16.83662109 1.64169922 15.80214844 1.59980469 14.73632812 1.55664062 C13.64771484 1.51732422 12.55910156 1.47800781 11.4375 1.4375 C10.34501953 1.39431641 9.25253906 1.35113281 8.12695312 1.30664062 C5.41810436 1.20017932 2.70916008 1.09816484 0 1 C0 0.67 0 0.34 0 0 Z " fill="#F38E1C" transform="translate(393,54)"/>
<path d="M0 0 C0.66 0 1.32 0 2 0 C2.06058594 1.00160156 2.12117188 2.00320312 2.18359375 3.03515625 C2.26808405 4.37761331 2.35272768 5.72006072 2.4375 7.0625 C2.55931641 9.02896484 2.55931641 9.02896484 2.68359375 11.03515625 C2.97898249 14.73663238 3.43265388 18.33370448 4 22 C4.66 22 5.32 22 6 22 C6.17015625 22.54269531 6.3403125 23.08539063 6.515625 23.64453125 C8.4086373 29.33442907 8.4086373 29.33442907 13 33 C13.99 33.33 14.98 33.66 16 34 C16.12375 35.175625 16.12375 35.175625 16.25 36.375 C16.72806339 39.14749104 16.72806339 39.14749104 19.0625 40.3125 C19.701875 40.539375 20.34125 40.76625 21 41 C20.01 41.495 20.01 41.495 19 42 C9.98157962 34.43616355 1.516022 26.26422926 0 14 C-0.15120352 9.32781137 -0.11812744 4.67259645 0 0 Z " fill="#E6B134" transform="translate(469,112)"/>
<path d="M0 0 C0.14308594 0.57492188 0.28617188 1.14984375 0.43359375 1.7421875 C0.79583255 3.18614631 1.16258661 4.62898469 1.53515625 6.0703125 C3 11.77777778 3 11.77777778 3 14 C6.93743833 14.05797565 10.87476719 14.09358789 14.8125 14.125 C16.49182617 14.15013672 16.49182617 14.15013672 18.20507812 14.17578125 C19.81479492 14.18544922 19.81479492 14.18544922 21.45703125 14.1953125 C22.44678955 14.20578613 23.43654785 14.21625977 24.45629883 14.22705078 C27.2443952 14.18267404 27.2443952 14.18267404 30 12 C29.67 13.32 29.34 14.64 29 16 C19.43 16 9.86 16 0 16 C-1.74917424 11.62706439 -2.1104131 10.30611092 -2 6 C-2.29044914 4.65667272 -2.60955794 3.31774196 -3 2 C-2.01 1.34 -1.02 0.68 0 0 Z " fill="#9E4170" transform="translate(141,144)"/>
<path d="M0 0 C0.33 0 0.66 0 1 0 C1.74030695 45.51938611 1.74030695 45.51938611 -4 57 C-4 54.03 -4 51.06 -4 48 C-3.34 48 -2.68 48 -2 48 C-2.01160156 46.95199219 -2.02320312 45.90398437 -2.03515625 44.82421875 C-2.04453655 43.44531428 -2.0536365 42.06640789 -2.0625 40.6875 C-2.07087891 39.99720703 -2.07925781 39.30691406 -2.08789062 38.59570312 C-2.10307906 35.4516975 -2.00193327 33.00579981 -1 30 C-1.66 30 -2.32 30 -3 30 C-2.67 29.01 -2.34 28.02 -2 27 C-1.67 27.33 -1.34 27.66 -1 28 C-0.67 18.76 -0.34 9.52 0 0 Z " fill="#7B387C" transform="translate(107,37)"/>
<path d="M0 0 C1.084021 0.00523682 2.16804199 0.01047363 3.28491211 0.01586914 C5.03964844 0.02070312 5.03964844 0.02070312 6.82983398 0.02563477 C8.0615332 0.03401367 9.29323242 0.04239258 10.56225586 0.05102539 C12.41560547 0.05779297 12.41560547 0.05779297 14.30639648 0.06469727 C17.37089703 0.07652931 20.43530307 0.09301366 23.49975586 0.11352539 C23.16975586 1.76352539 22.83975586 3.41352539 22.49975586 5.11352539 C22.16975586 3.79352539 21.83975586 2.47352539 21.49975586 1.11352539 C14.56975586 1.11352539 7.63975586 1.11352539 0.49975586 1.11352539 C-1.45240849 5.01785408 -2.00664405 7.83565791 -2.50024414 12.11352539 C-3.49024414 12.44352539 -4.48024414 12.77352539 -5.50024414 13.11352539 C-6.2334821 15.12860897 -6.2334821 15.12860897 -6.50024414 17.11352539 C-7.49024414 17.11352539 -8.48024414 17.11352539 -9.50024414 17.11352539 C-8.52437159 14.4664338 -7.54472269 11.82085092 -6.56274414 9.17602539 C-6.28495117 8.4212793 -6.0071582 7.6665332 -5.72094727 6.88891602 C-3.21117984 0.14580594 -3.21117984 0.14580594 0 0 Z " fill="#BF6546" transform="translate(234.500244140625,76.886474609375)"/>
<path d="M0 0 C4.69332083 -0.3332938 7.17006134 0.12474561 10.875 3.0625 C13.91996096 5.92834561 14.9056 7.46907154 15.64453125 11.625 C15.71577579 18.15359102 14.9507859 23.81322185 13 30 C12.34 30 11.68 30 11 30 C11.165 29.21625 11.33 28.4325 11.5 27.625 C12.61100443 19.57021786 12.91486776 12.84910604 8 6 C5.56391207 3.61611084 5.56391207 3.61611084 3 2 C2.01 1.34 1.02 0.68 0 0 Z " fill="#7C3683" transform="translate(81,54)"/>
<path d="M0 0 C1.32 0.66 2.64 1.32 4 2 C3.91621094 2.58007812 3.83242187 3.16015625 3.74609375 3.7578125 C3.13790579 8.42315303 2.92794335 12.35442117 4 17 C2.62437146 15.71034824 1.29233607 14.37310707 0 13 C0 12.34 0 11.68 0 11 C-0.99 10.67 -1.98 10.34 -3 10 C-3.73046875 7.93359375 -3.73046875 7.93359375 -4.1875 5.4375 C-4.34605469 4.61121094 -4.50460938 3.78492187 -4.66796875 2.93359375 C-4.83232422 1.97646484 -4.83232422 1.97646484 -5 1 C-3.68 1.33 -2.36 1.66 -1 2 C-0.67 1.34 -0.34 0.68 0 0 Z " fill="#993C7C" transform="translate(124,95)"/>
<path d="M0 0 C0.99 0.33 1.98 0.66 3 1 C-6.0386347 9.99081123 -16.66391269 16.59694143 -29 20 C-29 19.01 -29 18.02 -29 17 C-27.25093469 16.35163958 -25.50070781 15.70641216 -23.75 15.0625 C-22.77546875 14.70285156 -21.8009375 14.34320313 -20.796875 13.97265625 C-18.53542839 13.18620345 -16.33203448 12.52748399 -14 12 C-14 11.34 -14 10.68 -14 10 C-12.35 9.67 -10.7 9.34 -9 9 C-9 8.34 -9 7.68 -9 7 C-6.36107824 5.21694476 -4.02821137 4.00940379 -1 3 C-0.67 2.01 -0.34 1.02 0 0 Z " fill="#743985" transform="translate(80,132)"/>
<path d="M0 0 C2.77382754 4.1607413 4.74393928 8.58105118 6.8125 13.125 C7.48055664 14.49398437 7.48055664 14.49398437 8.16210938 15.890625 C10.32224092 20.69700328 11.53345145 23.8572659 9.8359375 28.98828125 C9.25380649 30.33878178 8.64457321 31.6781628 8 33 C7.608125 34.010625 7.21625 35.02125 6.8125 36.0625 C6.4103125 37.0215625 6.4103125 37.0215625 6 38 C4.62567543 34.18243176 5.32024961 30.92744671 6 27 C6.99 27 7.98 27 9 27 C8.67 26.2575 8.34 25.515 8 24.75 C7 22 7 22 7 18 C6.34 18 5.68 18 5 18 C4.73445313 17.25234375 4.46890625 16.5046875 4.1953125 15.734375 C3.84210938 14.74953125 3.48890625 13.7646875 3.125 12.75 C2.77695312 11.77546875 2.42890625 10.8009375 2.0703125 9.796875 C1.09298003 7.05137544 1.09298003 7.05137544 -0.1953125 4.828125 C-1 3 -1 3 0 0 Z " fill="#E0762F" transform="translate(338,62)"/>
<path d="M0 0 C1.52519276 0.08937803 3.04681929 0.24537146 4.5625 0.4375 C5.80193359 0.59025391 5.80193359 0.59025391 7.06640625 0.74609375 C7.70449219 0.82988281 8.34257813 0.91367188 9 1 C8.68804687 1.4846875 8.37609375 1.969375 8.0546875 2.46875 C5.59140176 6.58696366 5.59140176 6.58696366 5.25 11.2421875 C5.81410548 13.16719745 6.40543482 15.08417888 7 17 C6.34 17.66 5.68 18.32 5 19 C3.02 13.06 1.04 7.12 -1 1 C-0.67 0.67 -0.34 0.34 0 0 Z " fill="#7D3F77" transform="translate(113,77)"/>
<path d="M0 0 C8.58 0 17.16 0 26 0 C26.66 2.31 27.32 4.62 28 7 C27.32710937 6.01773438 27.32710937 6.01773438 26.640625 5.015625 C22.58841752 1.92251988 18.6960438 2.56989196 13.75 2.75 C12.34621094 2.77707031 12.34621094 2.77707031 10.9140625 2.8046875 C8.60832985 2.85174327 6.30469055 2.91746287 4 3 C3.67 3.66 3.34 4.32 3 5 C1.68 4.67 0.36 4.34 -1 4 C-0.67 2.68 -0.34 1.36 0 0 Z " fill="#AC5260" transform="translate(173,77)"/>
<path d="M0 0 C0.33 0 0.66 0 1 0 C1.09867858 4.14450038 0.77931727 7.93023205 0 12 C-0.165 12.86625 -0.33 13.7325 -0.5 14.625 C-0.95066066 16.76563812 -1.45106438 18.88267689 -2 21 C-2.99 20.67 -3.98 20.34 -5 20 C-5.2165625 20.86625 -5.2165625 20.86625 -5.4375 21.75 C-5.95833333 23.83333333 -6.47916667 25.91666667 -7 28 C-7.66 28 -8.32 28 -9 28 C-6.64500307 18.43540722 -3.35051831 9.24916544 0 0 Z " fill="#95395C" transform="translate(672,97)"/>
<path d="M0 0 C0.66 0 1.32 0 2 0 C-0.08852505 8.11593505 -3.35329853 15.47056459 -7 23 C-7.33 23 -7.66 23 -8 23 C-8.24915939 21.23186888 -8.47366632 19.46025018 -8.6875 17.6875 C-8.81511719 16.70136719 -8.94273437 15.71523437 -9.07421875 14.69921875 C-9 12 -9 12 -7.6484375 10.26171875 C-7.10445313 9.84535156 -6.56046875 9.42898437 -6 9 C-2.91751495 6.19774087 -1.32234183 3.9670255 0 0 Z " fill="#F58F12" transform="translate(401,98)"/>
<path d="M0 0 C0.66 0.33 1.32 0.66 2 1 C0.625 2.5 0.625 2.5 -1 4 C-1.66 4 -2.32 4 -3 4 C-2.34 5.32 -1.68 6.64 -1 8 C-2.28062485 9.7074998 -3.61767557 11.37373596 -5 13 C-5.66 13 -6.32 13 -7 13 C-10.81811028 14.39997377 -12.62518486 16.7770366 -15 20 C-13.30401599 11.3641274 -6.63588517 5.23797028 0 0 Z " fill="#F2A91F" transform="translate(487,83)"/>
<path d="M0 0 C5.75 -0.125 5.75 -0.125 8 1 C10.17674783 1.15469367 12.3578348 1.25002106 14.5390625 1.31640625 C15.84101563 1.35830078 17.14296875 1.40019531 18.484375 1.44335938 C19.86458045 1.48317299 21.24478883 1.52288522 22.625 1.5625 C24.01303415 1.60569407 25.40105528 1.64930865 26.7890625 1.69335938 C30.19260256 1.79972 33.59621778 1.90174714 37 2 C27.67774666 6.94365691 15.94693511 5.08191665 6 3 C3.9892192 2.36659253 1.98516296 1.70962839 0 1 C0 0.67 0 0.34 0 0 Z " fill="#DFA739" transform="translate(496,157)"/>
<path d="M0 0 C2.0625 0.4375 2.0625 0.4375 4 1 C3.58411954 7.19518473 2.39748106 12.26689311 0 18 C-2.09350689 14.5980513 -2.17942163 11.94727588 -2 8 C-1.34 7.67 -0.68 7.34 0 7 C-0.66 6.67 -1.32 6.34 -2 6 C-1.125 1.125 -1.125 1.125 0 0 Z " fill="#A3365D" transform="translate(682,128)"/>
<path d="M0 0 C2.49551158 2.49551158 3.07575992 4.66076626 4.1875 8 C4.55230469 9.0725 4.91710937 10.145 5.29296875 11.25 C6 14 6 14 5 16 C4.21625 15.34 3.4325 14.68 2.625 14 C0.28487188 11.79798559 0.28487188 11.79798559 -2 12 C-2.77321882 9.01758453 -3.41196203 6.02419525 -4 3 C-3.01 3 -2.02 3 -1 3 C-0.67 2.01 -0.34 1.02 0 0 Z " fill="#A54868" transform="translate(148,101)"/>
<path d="M0 0 C2.8914568 3.1712752 4.12515434 6.93420745 4.9375 11.125 C4.6075 12.115 4.2775 13.105 3.9375 14.125 C3.69 13.485625 3.4425 12.84625 3.1875 12.1875 C2.12341701 9.96859462 2.12341701 9.96859462 -0.0625 9.3125 C-2.13410124 8.94048911 -2.13410124 8.94048911 -4.0625 10.125 C-4.0625 8.475 -4.0625 6.825 -4.0625 5.125 C-3.4025 5.125 -2.7425 5.125 -2.0625 5.125 C-2.3925 4.465 -2.7225 3.805 -3.0625 3.125 C-4.0525 3.125 -5.0425 3.125 -6.0625 3.125 C-6.0625 2.135 -6.0625 1.145 -6.0625 0.125 C-3.59052821 -0.84613178 -2.47955862 -1.05193396 0 0 Z " fill="#BF5B45" transform="translate(588.0625,78.875)"/>
<path d="M0 0 C0.33 0 0.66 0 1 0 C1.3373021 4.04134567 1.66913834 8.08312237 2 12.125 C2.14308594 13.83816406 2.14308594 13.83816406 2.2890625 15.5859375 C2.37929688 16.69453125 2.46953125 17.803125 2.5625 18.9453125 C2.64628906 19.96125488 2.73007812 20.97719727 2.81640625 22.02392578 C3.0014882 25.0241239 3.03134371 27.99492147 3 31 C2.01 31 1.02 31 0 31 C0 20.77 0 10.54 0 0 Z " fill="#5C3F9C" transform="translate(19,48)"/>
<path d="M0 0 C1.5 1.1875 1.5 1.1875 3 3 C3 4.65 3 6.3 3 8 C11.25 8 19.5 8 28 8 C28 8.33 28 8.66 28 9 C18.76 9 9.52 9 0 9 C-2 5 -2 5 -2 1 C-1.34 0.67 -0.68 0.34 0 0 Z " fill="#AF5F4C" transform="translate(589,151)"/>
<path d="M0 0 C1.32 0.33 2.64 0.66 4 1 C4 3.33333333 4 5.66666667 4 8 C4.99 8.33 5.98 8.66 7 9 C6.01 9.495 6.01 9.495 5 10 C5.45375 10.639375 5.9075 11.27875 6.375 11.9375 C8.16042777 15.30234463 8.85902917 18.29931893 9.5703125 22.01171875 C9.9271032 24.06103089 9.9271032 24.06103089 11 26 C10.34 26.66 9.68 27.32 9 28 C7.49500991 23.71006667 5.99685363 19.41777842 4.5 15.125 C4.07074219 13.90167969 3.64148438 12.67835938 3.19921875 11.41796875 C2.79316406 10.25136719 2.38710937 9.08476562 1.96875 7.8828125 C1.59169922 6.80402832 1.21464844 5.72524414 0.82617188 4.61376953 C0 2 0 2 0 0 Z " fill="#87436C" transform="translate(129,125)"/>
<path d="M0 0 C1.69946788 2.54920182 2.56531331 4.32099564 3.5078125 7.16015625 C3.77207031 7.95357422 4.03632812 8.74699219 4.30859375 9.56445312 C4.57800781 10.38880859 4.84742188 11.21316406 5.125 12.0625 C5.40214844 12.89072266 5.67929687 13.71894531 5.96484375 14.57226562 C8 20.73287408 8 20.73287408 8 23 C7.34 23 6.68 23 6 23 C5.7525 22.195625 5.505 21.39125 5.25 20.5625 C4.27761141 17.828919 4.27761141 17.828919 1.875 17.1875 C0.946875 17.0946875 0.946875 17.0946875 0 17 C0 15.68 0 14.36 0 13 C0.66 13 1.32 13 2 13 C1.67 12.34 1.34 11.68 1 11 C-0.28687011 7.13938967 -0.13757618 4.05849717 0 0 Z " fill="#A13A5D" transform="translate(649,86)"/>
<path d="M0 0 C0.47179687 0.48984375 0.94359375 0.9796875 1.4296875 1.484375 C5.25445749 3.7397105 8.77130137 3.36004609 13.125 3.25 C13.94871094 3.24484375 14.77242187 3.2396875 15.62109375 3.234375 C19.94758046 3.28460938 19.94758046 3.28460938 24 2 C24 2.99 24 3.98 24 5 C19.59609075 7.23649509 15.67906253 7.15814749 10.875 6.8125 C10.15957031 6.78091797 9.44414063 6.74933594 8.70703125 6.71679688 C5.7319487 6.52494576 3.50174664 6.34335211 1.0078125 4.63671875 C0 3 0 3 0 0 Z " fill="#6F3681" transform="translate(64,87)"/>
<path d="M0 0 C0.495 0.99 0.495 0.99 1 2 C3.52733235 2.65555119 3.52733235 2.65555119 6 3 C6 3.66 6 4.32 6 5 C5.47535156 4.855625 4.95070312 4.71125 4.41015625 4.5625 C-7.46319955 1.71763605 -20.17208905 2.13882068 -32 5 C-31.67 4.34 -31.34 3.68 -31 3 C-25.2581677 1.21250909 -19.79779494 0.61581656 -13.8125 0.375 C-13.03197266 0.33632813 -12.25144531 0.29765625 -11.44726562 0.2578125 C-7.62875284 0.07644124 -3.82376892 -0.04597718 0 0 Z " fill="#613584" transform="translate(75,49)"/>
<path d="M0 0 C0.66 0 1.32 0 2 0 C1.38074535 3.4152027 0.53132639 6.59353472 -0.62890625 9.86328125 C-1.09780273 11.19262695 -1.09780273 11.19262695 -1.57617188 12.54882812 C-2.0644043 13.9168457 -2.0644043 13.9168457 -2.5625 15.3125 C-2.89185547 16.24384766 -3.22121094 17.17519531 -3.56054688 18.13476562 C-4.37067821 20.42426723 -5.18391683 22.71261458 -6 25 C-6.33 25 -6.66 25 -7 25 C-6.38487182 19.99109914 -5.7282448 14.99367864 -5 10 C-4.34 10 -3.68 10 -3 10 C-3.33 9.01 -3.66 8.02 -4 7 C-3.525625 6.5875 -3.05125 6.175 -2.5625 5.75 C-0.83733482 3.817815 -0.43415125 2.51807725 0 0 Z " fill="#8C335F" transform="translate(702,82)"/>
<path d="M0 0 C0.33 0 0.66 0 1 0 C1.25 6.625 1.25 6.625 -1 10 C7.91 10 16.82 10 26 10 C26 10.33 26 10.66 26 11 C16.43 11 6.86 11 -3 11 C-3.33 10.34 -3.66 9.68 -4 9 C-3.22265625 6.8359375 -3.22265625 6.8359375 -2.0625 4.375 C-1.68222656 3.55773437 -1.30195313 2.74046875 -0.91015625 1.8984375 C-0.60980469 1.27195313 -0.30945313 0.64546875 0 0 Z " fill="#E27B34" transform="translate(350,149)"/>
<path d="M0 0 C0.66 0 1.32 0 2 0 C2.02689216 1.47906892 2.04634621 2.95827483 2.0625 4.4375 C2.07410156 5.26121094 2.08570313 6.08492187 2.09765625 6.93359375 C2 9 2 9 1 10 C-1.14558827 10.08775605 -3.29404421 10.10695219 -5.44140625 10.09765625 C-6.74658203 10.09443359 -8.05175781 10.09121094 -9.39648438 10.08789062 C-10.7851569 10.07953401 -12.17382877 10.07106905 -13.5625 10.0625 C-14.95507656 10.05748666 -16.34765481 10.05292347 -17.74023438 10.04882812 C-21.1601987 10.03699434 -24.58007844 10.0205088 -28 10 C-28 9.67 -28 9.34 -28 9 C-19.09 9 -10.18 9 -1 9 C-0.67 6.03 -0.34 3.06 0 0 Z " fill="#F0A638" transform="translate(456,150)"/>
<path d="M0 0 C0.99 0.33 1.98 0.66 3 1 C0.03861789 10.82926829 0.03861789 10.82926829 -3 14 C-3.99 14.495 -3.99 14.495 -5 15 C-4.64989059 4.84682713 -4.64989059 4.84682713 -1.9375 1.3125 C-0.9784375 0.6628125 -0.9784375 0.6628125 0 0 Z " fill="#C0484D" transform="translate(622,79)"/>
<path d="M0 0 C0.66 0.66 1.32 1.32 2 2 C1.0378418 3.97558594 1.0378418 3.97558594 -1 6 C-3.99488276 6.35519237 -6.61642991 6.46627491 -9.60546875 6.390625 C-10.44467361 6.38496521 -11.28387848 6.37930542 -12.14851379 6.37347412 C-14.82875633 6.35108406 -17.50766163 6.30088453 -20.1875 6.25 C-22.00453798 6.22993832 -23.82159692 6.21168697 -25.63867188 6.1953125 C-30.09296312 6.15121086 -34.54625485 6.08216659 -39 6 C-39 5.67 -39 5.34 -39 5 C-37.92516357 4.9906543 -36.85032715 4.98130859 -35.74291992 4.97167969 C-31.75616972 4.93181586 -27.7701942 4.86606827 -23.78393555 4.79248047 C-22.05845082 4.76424969 -20.33283626 4.7430456 -18.60717773 4.72900391 C-16.12676426 4.70760258 -13.6479151 4.66097083 -11.16796875 4.609375 C-10.39599655 4.60814636 -9.62402435 4.60691772 -8.82865906 4.60565186 C-4.42029131 4.51146214 -4.42029131 4.51146214 -0.98950195 1.96191406 C-0.66296631 1.31448242 -0.33643066 0.66705078 0 0 Z " fill="#7C4686" transform="translate(96,34)"/>
<path d="M0 0 C2.33524782 2.25740623 4.18705073 4.2805761 6 7 C5.75 9.625 5.75 9.625 5 12 C4.01 12.495 4.01 12.495 3 13 C2.67 11.68 2.34 10.36 2 9 C0.68 8.67 -0.64 8.34 -2 8 C-1.33333333 5.33333333 -0.66666667 2.66666667 0 0 Z " fill="#6123AC" transform="translate(24,27)"/>
<path d="M0 0 C0.99 0.66 1.98 1.32 3 2 C2.57730231 5.41943506 2.08008783 8.72174346 1 12 C-1.625 13.625 -1.625 13.625 -4 14 C-3.125 9.25 -3.125 9.25 -2 7 C-2.66 7 -3.32 7 -4 7 C-4 6.34 -4 5.68 -4 5 C-3.34 5 -2.68 5 -2 5 C-1.34 3.35 -0.68 1.7 0 0 Z " fill="#CE5A42" transform="translate(229,90)"/>
<path d="M0 0 C17.07744875 -0.738041 17.07744875 -0.738041 23 4 C22.67 4.66 22.34 5.32 22 6 C21.071875 5.34 20.14375 4.68 19.1875 4 C14.32728366 1.23402322 9.44919904 1.15471762 4 2 C1.5582977 3.08035637 0.06908591 4.249235 -2 6 C-2.99 6.495 -2.99 6.495 -4 7 C-4 5.68 -4 4.36 -4 3 C-3.01 2.67 -2.02 2.34 -1 2 C-0.67 1.34 -0.34 0.68 0 0 Z " fill="#DEA03A" transform="translate(505,97)"/>
<path d="M0 0 C0.33 0.66 0.66 1.32 1 2 C1.66 2 2.32 2 3 2 C4.26798493 6.68684801 3.91105063 11.03294937 3.5625 15.8125 C3.51029297 16.60076172 3.45808594 17.38902344 3.40429688 18.20117188 C3.27540731 20.13451529 3.13850506 22.06732164 3 24 C2.67 24 2.34 24 2 24 C1.66148822 21.31306278 1.329064 18.62559711 1 15.9375 C0.90460937 15.18533203 0.80921875 14.43316406 0.7109375 13.65820312 C0.15428098 9.06578683 -0.09829028 4.6257865 0 0 Z " fill="#6C26A2" transform="translate(19,41)"/>
<path d="M0 0 C0.66 0 1.32 0 2 0 C2.66 1.32 3.32 2.64 4 4 C4.99 2.68 5.98 1.36 7 0 C6.67 3.3 6.34 6.6 6 10 C3.03 9.505 3.03 9.505 0 9 C0 6.03 0 3.06 0 0 Z " fill="#B6524C" transform="translate(600,118)"/>
<path d="M0 0 C1.1328125 1.67578125 1.1328125 1.67578125 2 4 C1.2421875 6.48046875 1.2421875 6.48046875 -0.125 9.1875 C-0.59550781 10.1465625 -1.06601562 11.105625 -1.55078125 12.09375 C-2.02902344 13.0528125 -2.50726563 14.011875 -3 15 C-3.78060955 16.72477538 -4.55251905 18.45353623 -5.3125 20.1875 C-5.63863281 20.92355469 -5.96476562 21.65960938 -6.30078125 22.41796875 C-6.53152344 22.94003906 -6.76226562 23.46210937 -7 24 C-7.93423645 20.98968256 -8.04449911 20.13349732 -7 17 C-6.34 17 -5.68 17 -5 17 C-4.34 13.7 -3.68 10.4 -3 7 C-2.34 7 -1.68 7 -1 7 C-1.33 5.35 -1.66 3.7 -2 2 C-1.34 2 -0.68 2 0 2 C0 1.34 0 0.68 0 0 Z " fill="#E9932A" transform="translate(416,62)"/>
<path d="M0 0 C1.32 1.32 2.64 2.64 4 4 C-2.22259874 11.8049778 -2.22259874 11.8049778 -7 14 C-7.99 14 -8.98 14 -10 14 C-10 13.34 -10 12.68 -10 12 C-8.88625 11.5875 -7.7725 11.175 -6.625 10.75 C-4.00679305 9.64453484 -3.16506911 9.25119213 -1.5625 6.8125 C-1.376875 6.214375 -1.19125 5.61625 -1 5 C-0.67 5 -0.34 5 0 5 C0 3.35 0 1.7 0 0 Z " fill="#E0A735" transform="translate(549,143)"/>
<path d="M0 0 C3 1 3 1 3.89135742 2.76586914 C4.12701416 3.51473389 4.3626709 4.26359863 4.60546875 5.03515625 C4.86650391 5.84404297 5.12753906 6.65292969 5.39648438 7.48632812 C5.78803711 8.7615332 5.78803711 8.7615332 6.1875 10.0625 C6.46013672 10.91650391 6.73277344 11.77050781 7.01367188 12.65039062 C7.68664255 14.76375469 8.34816676 16.88003968 9 19 C8.34 19 7.68 19 7 19 C6.54625 18.05125 6.0925 17.1025 5.625 16.125 C4.19761746 12.99686321 4.19761746 12.99686321 2 11 C2.020625 10.030625 2.04125 9.06125 2.0625 8.0625 C2.31075561 4.9985395 2.31075561 4.9985395 0.5 3.125 C0.005 2.75375 -0.49 2.3825 -1 2 C-0.67 1.34 -0.34 0.68 0 0 Z " fill="#BA5647" transform="translate(593,98)"/>
<path d="M0 0 C-2.72681111 0.84179395 -5.45601443 1.67363069 -8.1875 2.5 C-9.34088867 2.85771484 -9.34088867 2.85771484 -10.51757812 3.22265625 C-14.44356128 4.40213617 -17.85048821 5.3326262 -22 5 C-21.67 4.34 -21.34 3.68 -21 3 C-19.68 3 -18.36 3 -17 3 C-17 2.34 -17 1.68 -17 1 C-13.98595969 0.17481031 -11.04428458 -0.29698353 -7.9375 -0.625 C-7.08027344 -0.72039062 -6.22304688 -0.81578125 -5.33984375 -0.9140625 C-3 -1 -3 -1 0 0 Z " fill="#71377E" transform="translate(42,156)"/>
<path d="M0 0 C0.66 0.33 1.32 0.66 2 1 C0.68 4.96 -0.64 8.92 -2 13 C-3.65 13 -5.3 13 -7 13 C-7.33 11.35 -7.66 9.7 -8 8 C-5 7 -5 7 -3 7 C-2.01 4.69 -1.02 2.38 0 0 Z " fill="#BC6542" transform="translate(232,146)"/>
<path d="M0 0 C1.9375 0.375 1.9375 0.375 4 1 C5.35439668 3.70879335 5.06501451 6.00933268 5 9 C3.02 9.99 3.02 9.99 1 11 C0.12132271 7.26562152 -0.08912219 3.83225427 0 0 Z " fill="#DF602C" transform="translate(248,85)"/>
<path d="M0 0 C0.99 0.33 1.98 0.66 3 1 C3 4.3 3 7.6 3 11 C0.48916886 9.74458443 0.12874554 8.49936512 -1 6 C-2.98 6.99 -2.98 6.99 -5 8 C-3.62845496 5.04590299 -2.01136276 2.55991624 0 0 Z " fill="#7D4178" transform="translate(104,24)"/>
<path d="M0 0 C0.33 1.32 0.66 2.64 1 4 C-0.98 4.66 -2.96 5.32 -5 6 C-5.99 5.01 -6.98 4.02 -8 3 C-7.67 2.01 -7.34 1.02 -7 0 C-7.66 -0.33 -8.32 -0.66 -9 -1 C-5.79937313 -2.60031344 -3.27728194 -1.03173691 0 0 Z " fill="#EDA223" transform="translate(538,154)"/>
<path d="M0 0 C1.0828125 0.37125 1.0828125 0.37125 2.1875 0.75 C2.1875 1.41 2.1875 2.07 2.1875 2.75 C2.8475 3.08 3.5075 3.41 4.1875 3.75 C2.5375 3.42 0.8875 3.09 -0.8125 2.75 C-1.1425 3.41 -1.4725 4.07 -1.8125 4.75 C-2.4725 5.41 -3.1325 6.07 -3.8125 6.75 C-4.1425 7.41 -4.4725 8.07 -4.8125 8.75 C-5.4725 8.42 -6.1325 8.09 -6.8125 7.75 C-7.4375 5.6875 -7.4375 5.6875 -7.8125 3.75 C-3.50480769 -0.31153846 -3.50480769 -0.31153846 0 0 Z " fill="#F7A60C" transform="translate(491.8125,83.25)"/>
<path d="M0 0 C0.90878906 0.2165625 0.90878906 0.2165625 1.8359375 0.4375 C7.98654607 1.80009636 13.71013545 2.24088843 20 2 C15.47735251 5.01509833 10.15504619 5.55185437 4.7890625 4.61328125 C3.17025306 4.14746058 1.58004968 3.58393141 0 3 C0 2.01 0 1.02 0 0 Z " fill="#F1A92A" transform="translate(432,65)"/>
<path d="M0 0 C0.99 0.33 1.98 0.66 3 1 C3 2.98 3 4.96 3 7 C-1.75 8 -1.75 8 -4 8 C-3.50168276 4.31245243 -2.89932357 2.39509338 0 0 Z " fill="#A72F5F" transform="translate(677,88)"/>
<path d="M0 0 C2.82509509 1.71055336 4.39474749 3.0683811 5.4375 6.3125 C4.1175 6.3125 2.7975 6.3125 1.4375 6.3125 C1.1075 5.6525 0.7775 4.9925 0.4375 4.3125 C-1.8765622 3.58174352 -4.21078869 2.91111742 -6.5625 2.3125 C-6.5625 1.3225 -6.5625 0.3325 -6.5625 -0.6875 C-3.5625 -1.6875 -3.5625 -1.6875 0 0 Z " fill="#E09D2A" transform="translate(542.5625,83.6875)"/>
<path d="M0 0 C0.33 0 0.66 0 1 0 C1.04254356 1.99954746 1.04080783 4.00041636 1 6 C0.67 6.33 0.34 6.66 0 7 C-0.07148199 8.35243917 -0.08399454 9.70834367 -0.0625 11.0625 C-0.041875 12.361875 -0.02125 13.66125 0 15 C-0.99 15 -1.98 15 -3 15 C-3.35050464 9.158256 -3.16727335 5.1468192 0 0 Z " fill="#FB6F08" transform="translate(366,112)"/>
<path d="M0 0 C0.33 0.99 0.66 1.98 1 3 C0 4 0 4 -2.77563477 4.11352539 C-3.98533936 4.10828857 -5.19504395 4.10305176 -6.44140625 4.09765625 C-7.74658203 4.09443359 -9.05175781 4.09121094 -10.39648438 4.08789062 C-11.7851569 4.07953401 -13.17382877 4.07106905 -14.5625 4.0625 C-15.95507656 4.05748666 -17.34765481 4.05292347 -18.74023438 4.04882812 C-22.1601987 4.03699434 -25.58007844 4.0205088 -29 4 C-29 3.67 -29 3.34 -29 3 C-27.78884521 2.970271 -27.78884521 2.970271 -26.55322266 2.93994141 C-22.91014125 2.84494101 -19.26765314 2.73516088 -15.625 2.625 C-14.35398438 2.5940625 -13.08296875 2.563125 -11.7734375 2.53125 C-10.56171875 2.49257812 -9.35 2.45390625 -8.1015625 2.4140625 C-6.98088379 2.3826416 -5.86020508 2.3512207 -4.70556641 2.31884766 C-1.85289588 2.26588797 -1.85289588 2.26588797 0 0 Z " fill="#904960" transform="translate(170,156)"/>
<path d="M0 0 C0.99 0.33 1.98 0.66 3 1 C3.08114106 2.77007714 3.13925505 4.54122098 3.1875 6.3125 C3.23970703 7.79169922 3.23970703 7.79169922 3.29296875 9.30078125 C3 12 3 12 0 15 C0 10.05 0 5.1 0 0 Z " fill="#EF9F1D" transform="translate(457,47)"/>
<path d="M0 0 C0.66 0 1.32 0 2 0 C1.46515599 5.34844008 -0.46690767 9.35796103 -3 14 C-3.94314127 10.58389775 -4.08065117 7.54865136 -4 4 C-2.68 4 -1.36 4 0 4 C0 2.68 0 1.36 0 0 Z " fill="#E78221" transform="translate(381,144)"/>
<path d="M0 0 C1.9375 0.375 1.9375 0.375 4 1 C4.33 1.66 4.66 2.32 5 3 C4.01 3 3.02 3 2 3 C2 4.32 2 5.64 2 7 C-1.75 8.125 -1.75 8.125 -4 7 C-3.34 5.35 -2.68 3.7 -2 2 C-1.34 2 -0.68 2 0 2 C0 1.34 0 0.68 0 0 Z " fill="#A52C67" transform="translate(700,79)"/>
<path d="M0 0 C8.58 0 17.16 0 26 0 C25.67 0.66 25.34 1.32 25 2 C13.615 1.505 13.615 1.505 2 1 C1.67 1.99 1.34 2.98 1 4 C0.34 4 -0.32 4 -1 4 C-0.67 2.68 -0.34 1.36 0 0 Z " fill="#995B63" transform="translate(173,77)"/>
<path d="M0 0 C0.66 0.33 1.32 0.66 2 1 C2.75 3.875 2.75 3.875 3 7 C1 10 1 10 -1 11 C-1.12375 10.360625 -1.2475 9.72125 -1.375 9.0625 C-1.58125 8.381875 -1.7875 7.70125 -2 7 C-2.66 6.67 -3.32 6.34 -4 6 C-3.01 5.34 -2.02 4.68 -1 4 C-0.27617533 1.94074861 -0.27617533 1.94074861 0 0 Z " fill="#F76D0E" transform="translate(357,135)"/>
<path d="M0 0 C0.66 0 1.32 0 2 0 C0.65070536 3.83663072 -1.07751025 6.65172569 -3.625 9.8125 C-4.25664063 10.60269531 -4.88828125 11.39289063 -5.5390625 12.20703125 C-6.02117187 12.79871094 -6.50328125 13.39039063 -7 14 C-7.33 13.01 -7.66 12.02 -8 11 C-7.34 10.01 -6.68 9.02 -6 8 C-6 7.34 -6 6.68 -6 6 C-5.38125 5.7525 -4.7625 5.505 -4.125 5.25 C-1.64931313 3.79371361 -1.04874998 2.62187494 0 0 Z " fill="#733782" transform="translate(91,118)"/>
<path d="M0 0 C0.66 0.66 1.32 1.32 2 2 C1.9375 4.375 1.9375 4.375 1 7 C-1.5625 9.3125 -1.5625 9.3125 -4 11 C-4 10.01 -4 9.02 -4 8 C-4.66 7.67 -5.32 7.34 -6 7 C-5.34 7 -4.68 7 -4 7 C-3.71125 6.21625 -3.4225 5.4325 -3.125 4.625 C-2 2 -2 2 0 0 Z " fill="#F8AB09" transform="translate(477,96)"/>
<path d="M0 0 C0.66 0.33 1.32 0.66 2 1 C-1.11016455 4.28788824 -4.01618925 6.83735988 -8 9 C-8 6 -8 6 -5.6875 3.375 C-3 1 -3 1 0 0 Z " fill="#EB9024" transform="translate(435,38)"/>
<path d="M0 0 C1 2 1 2 0.56274414 3.78759766 C0.30614014 4.48933105 0.04953613 5.19106445 -0.21484375 5.9140625 C-0.48876953 6.67460937 -0.76269531 7.43515625 -1.04492188 8.21875 C-1.33947266 9.0128125 -1.63402344 9.806875 -1.9375 10.625 C-2.22818359 11.42679688 -2.51886719 12.22859375 -2.81835938 13.0546875 C-3.53882525 15.03892138 -4.26855138 17.01978837 -5 19 C-6.31409049 14.818803 -5.28449367 12.1557148 -4 8 C-4 7.01 -4 6.02 -4 5 C-3.34 5 -2.68 5 -2 5 C-1.855625 4.360625 -1.71125 3.72125 -1.5625 3.0625 C-1 1 -1 1 0 0 Z " fill="#A14553" transform="translate(629,125)"/>
<path d="M0 0 C0.99 0 1.98 0 3 0 C4.04449911 3.13349732 3.93423645 3.98968256 3 7 C4.32 7.33 5.64 7.66 7 8 C6.67 9.65 6.34 11.3 6 13 C3.47740939 11.02579865 3.0070192 10.03254358 2.3125 6.8125 C2.209375 5.884375 2.10625 4.95625 2 4 C1.34 4 0.68 4 0 4 C0 2.68 0 1.36 0 0 Z " fill="#F8AB0D" transform="translate(473,130)"/>
<path d="M0 0 C2 1.4375 2 1.4375 3 3 C3 3.66 3 4.32 3 5 C2.01 4.67 1.02 4.34 0 4 C0 3.34 0 2.68 0 2 C-3.96 2 -7.92 2 -12 2 C-9.74586321 -2.50827357 -4.12639879 -0.98861638 0 0 Z " fill="#64368E" transform="translate(52,63)"/>
<path d="M0 0 C2.97 0.495 2.97 0.495 6 1 C4.02 1.99 4.02 1.99 2 3 C1.67 8.61 1.34 14.22 1 20 C0.67 20 0.34 20 0 20 C-0.19421438 17.04196565 -0.38066186 14.08379837 -0.5625 11.125 C-0.61857422 10.28324219 -0.67464844 9.44148438 -0.73242188 8.57421875 C-0.78076172 7.76855469 -0.82910156 6.96289062 -0.87890625 6.1328125 C-0.9260376 5.38918457 -0.97316895 4.64555664 -1.02172852 3.87939453 C-1 2 -1 2 0 0 Z " fill="#F2A12D" transform="translate(428,76)"/>
<path d="M0 0 C-1.3125 2.9375 -1.3125 2.9375 -3 6 C-3.99 6.33 -4.98 6.66 -6 7 C-6.33 4.69 -6.66 2.38 -7 0 C-3.86650268 -1.04449911 -3.01031744 -0.93423645 0 0 Z " fill="#933982" transform="translate(122,79)"/>
<path d="M0 0 C-1.051875 0.556875 -2.10375 1.11375 -3.1875 1.6875 C-6.73953473 3.7017636 -9.24913686 5.9990584 -12 9 C-11.52153935 4.69385411 -10.34073619 2.75119451 -7 0 C-3.86650268 -1.04449911 -3.01031744 -0.93423645 0 0 Z " fill="#633094" transform="translate(43,55)"/>
<path d="M0 0 C3.24365795 -0.2211585 5.36959135 -0.35022703 8.25 1.25 C10.12891388 3.12891388 11.15935389 4.47806167 12 7 C11.625 9.25 11.625 9.25 11 11 C10.484375 10.0925 9.96875 9.185 9.4375 8.25 C6.96443733 4.48237384 3.98317039 2.9915852 0 1 C0 0.67 0 0.34 0 0 Z " fill="#773D7B" transform="translate(81,54)"/>
<path d="M0 0 C0.99 0.33 1.98 0.66 3 1 C2.38144369 2.6274637 1.75492695 4.25190356 1.125 5.875 C0.77695312 6.77992187 0.42890625 7.68484375 0.0703125 8.6171875 C-1 11 -1 11 -3 13 C-3 10.69 -3 8.38 -3 6 C-2.34 6 -1.68 6 -1 6 C-0.67 4.02 -0.34 2.04 0 0 Z " fill="#E98827" transform="translate(396,108)"/>
<path d="M0 0 C0.99 0 1.98 0 3 0 C3.66 2.31 4.32 4.62 5 7 C3.35 7.33 1.7 7.66 0 8 C-0.38063221 5.6739143 -0.71269945 3.33944736 -1 1 C-0.67 0.67 -0.34 0.34 0 0 Z " fill="#C75947" transform="translate(201,96)"/>
<path d="M0 0 C0.66 0.33 1.32 0.66 2 1 C1.67 1.33 1.34 1.66 1 2 C0.76807135 3.51469448 0.58784762 5.03754562 0.4375 6.5625 C0.35371094 7.38878906 0.26992187 8.21507813 0.18359375 9.06640625 C0.12300781 9.70449219 0.06242188 10.34257813 0 11 C-0.66 11 -1.32 11 -2 11 C-2.33 11.99 -2.66 12.98 -3 14 C-4.37095624 10.30962722 -3.60010967 8.29116165 -2.0625 4.75 C-1.68222656 3.85796875 -1.30195313 2.9659375 -0.91015625 2.046875 C-0.60980469 1.37140625 -0.30945313 0.6959375 0 0 Z " fill="#A5545F" transform="translate(171,83)"/>
<path d="M0 0 C1.32 0.66 2.64 1.32 4 2 C3.75 4.375 3.75 4.375 3 7 C0.9375 8.3125 0.9375 8.3125 -1 9 C-1.80967438 6.08517222 -2.21845993 4.53886783 -1.0625 1.6875 C-0.711875 1.130625 -0.36125 0.57375 0 0 Z " fill="#9A3C80" transform="translate(124,95)"/>
<path d="M0 0 C-0.99 0 -1.98 0 -3 0 C-3 0.66 -3 1.32 -3 2 C-4.53125 3.2890625 -4.53125 3.2890625 -6.5 4.625 C-7.1496875 5.07101563 -7.799375 5.51703125 -8.46875 5.9765625 C-8.9740625 6.31429687 -9.479375 6.65203125 -10 7 C-10.33 6.01 -10.66 5.02 -11 4 C-7.39987093 0.15158617 -5.25169925 -1.6298377 0 0 Z " fill="#783889" transform="translate(78,63)"/>
<path d="M0 0 C0.66 0.33 1.32 0.66 2 1 C1.52309796 2.62566606 1.04340334 4.25051311 0.5625 5.875 C0.29566406 6.77992188 0.02882813 7.68484375 -0.24609375 8.6171875 C-1 11 -1 11 -2 13 C-2.66 13 -3.32 13 -4 13 C-4 11.02 -4 9.04 -4 7 C-3.01 6.67 -2.02 6.34 -1 6 C-0.67 4.02 -0.34 2.04 0 0 Z " fill="#993F5D" transform="translate(679,146)"/>
<path d="M0 0 C1.37095624 3.69037278 0.60010967 5.70883835 -0.9375 9.25 C-1.31777344 10.14203125 -1.69804687 11.0340625 -2.08984375 11.953125 C-2.39019531 12.62859375 -2.69054687 13.3040625 -3 14 C-3.66 14 -4.32 14 -5 14 C-4.46515599 8.65155992 -2.53309233 4.64203897 0 0 Z " fill="#E77F25" transform="translate(372,98)"/>
<path d="M0 0 C0.99 0 1.98 0 3 0 C2.54554036 1.41791408 2.08625056 2.83428046 1.625 4.25 C1.36976563 5.03890625 1.11453125 5.8278125 0.8515625 6.640625 C0.04826333 8.86627958 -0.89711662 10.90931672 -2 13 C-2.66 12.67 -3.32 12.34 -4 12 C-2.68 8.04 -1.36 4.08 0 0 Z " fill="#B95E4D" transform="translate(224,97)"/>
<path d="M0 0 C4.92307692 4.18461538 4.92307692 4.18461538 5.3125 8.3125 C5.209375 9.199375 5.10625 10.08625 5 11 C5.66 11.33 6.32 11.66 7 12 C5.68 11.67 4.36 11.34 3 11 C2.87625 10.21625 2.7525 9.4325 2.625 8.625 C2.20882007 5.85942178 2.20882007 5.85942178 0 4 C0 2.68 0 1.36 0 0 Z " fill="#E69831" transform="translate(548,90)"/>
<path d="M0 0 C0.66 0 1.32 0 2 0 C2 0.66 2 1.32 2 2 C3.32 2.33 4.64 2.66 6 3 C5.67 5.64 5.34 8.28 5 11 C3.33167423 8.49751135 2.37618326 6.58850813 1.375 3.8125 C1.11460937 3.09707031 0.85421875 2.38164063 0.5859375 1.64453125 C0.39257812 1.10183594 0.19921875 0.55914062 0 0 Z " fill="#E76E28" transform="translate(303,58)"/>
<path d="M0 0 C1.0625 1.875 1.0625 1.875 2 4 C1.67 4.66 1.34 5.32 1 6 C1.66 6.66 2.32 7.32 3 8 C2.01 8.495 2.01 8.495 1 9 C0.01 8.67 -0.98 8.34 -2 8 C-2.33 6.02 -2.66 4.04 -3 2 C-2.01 1.34 -1.02 0.68 0 0 Z " fill="#AC4057" transform="translate(637,116)"/>
<path d="M0 0 C0.93423645 3.01031744 1.04449911 3.86650268 0 7 C-0.99 7.33 -1.98 7.66 -3 8 C-4.38576923 9.62332967 -5.72641268 11.28724465 -7 13 C-6.36610765 9.50155614 -4.94822306 7.15913124 -2.9375 4.25 C-2.38964844 3.45078125 -1.84179688 2.6515625 -1.27734375 1.828125 C-0.85582031 1.22484375 -0.43429687 0.6215625 0 0 Z " fill="#E6A634" transform="translate(479,90)"/>
<path d="M0 0 C3 1 3 1 4.3125 3.3125 C5 6 5 6 4.125 8.3125 C3.568125 9.1478125 3.568125 9.1478125 3 10 C2.34 10 1.68 10 1 10 C1.020625 9.278125 1.04125 8.55625 1.0625 7.8125 C1.00179441 5.08074862 0.60741465 2.65743909 0 0 Z " fill="#ED991C" transform="translate(545,89)"/>
<path d="M0 0 C1.2065625 0.0309375 1.2065625 0.0309375 2.4375 0.0625 C2.4375 1.0525 2.4375 2.0425 2.4375 3.0625 C-0.57574195 4.56912097 -3.24536377 4.24020373 -6.5625 4.0625 C-7.2225 3.4025 -7.8825 2.7425 -8.5625 2.0625 C-7.3559375 1.8459375 -7.3559375 1.8459375 -6.125 1.625 C-3.22295593 0.98796594 -2.96966232 0.07243079 0 0 Z " fill="#6C2F92" transform="translate(49.5625,77.9375)"/>
<path d="M0 0 C0.66 0.33 1.32 0.66 2 1 C2.33 1.99 2.66 2.98 3 4 C3.66 4.33 4.32 4.66 5 5 C5 6.65 5 8.3 5 10 C4.01 10.33 3.02 10.66 2 11 C2.2475 10.4225 2.495 9.845 2.75 9.25 C2.87375 8.13625 2.87375 8.13625 3 7 C1.14567913 4.72855926 1.14567913 4.72855926 -1 3 C-0.67 2.01 -0.34 1.02 0 0 Z " fill="#9A407B" transform="translate(130,120)"/>
<path d="M0 0 C1.5625 1.4375 1.5625 1.4375 3 4 C2.96846324 7.05380927 2.53266629 9.99653222 2 13 C1.01 13 0.02 13 -1 13 C-1 12.01 -1 11.02 -1 10 C-0.34 10 0.32 10 1 10 C1.33 8.35 1.66 6.7 2 5 C1.34 5 0.68 5 0 5 C0 3.35 0 1.7 0 0 Z " fill="#70367F" transform="translate(83,65)"/>
<path d="M0 0 C0.66 0 1.32 0 2 0 C2 6.27 2 12.54 2 19 C1.34 18.67 0.68 18.34 0 18 C-0.34077348 15.32418734 -0.55977321 12.74940712 -0.6875 10.0625 C-0.73455078 9.32064453 -0.78160156 8.57878906 -0.83007812 7.81445312 C-1.13653699 2.27307398 -1.13653699 2.27307398 0 0 Z " fill="#5E2C87" transform="translate(29,64)"/>
<path d="M0 0 C0.66666667 2.66666667 1.33333333 5.33333333 2 8 C1.34 8 0.68 8 0 8 C-0.33 8.99 -0.66 9.98 -1 11 C-1.66 11 -2.32 11 -3 11 C-2.67 8.03 -2.34 5.06 -2 2 C-1.34 2 -0.68 2 0 2 C0 1.34 0 0.68 0 0 Z " fill="#CD5842" transform="translate(222,108)"/>
<path d="M0 0 C0.66 0.33 1.32 0.66 2 1 C1.46274105 4.37705625 0.88935377 7.696686 0 11 C-0.99 10.67 -1.98 10.34 -3 10 C-2.01 6.7 -1.02 3.4 0 0 Z " fill="#AF325E" transform="translate(670,107)"/>
<path d="M0 0 C0.91058531 3.07322544 1.08886184 5.80097361 1 9 C0.01 9.33 -0.98 9.66 -2 10 C-1.67 11.32 -1.34 12.64 -1 14 C-1.99 14 -2.98 14 -4 14 C-3.52188823 12.22888156 -3.0424722 10.45811517 -2.5625 8.6875 C-2.29566406 7.70136719 -2.02882813 6.71523437 -1.75390625 5.69921875 C-1.21920575 3.78482474 -0.62855462 1.88566385 0 0 Z " fill="#A55854" transform="translate(617,86)"/>
<path d="M0 0 C0.99 0.33 1.98 0.66 3 1 C3.33 2.98 3.66 4.96 4 7 C2.35 7 0.7 7 -1 7 C-0.67 4.69 -0.34 2.38 0 0 Z " fill="#FB8F08" transform="translate(409,66)"/>
<path d="M0 0 C0.66 0.33 1.32 0.66 2 1 C-0.475 6.94 -0.475 6.94 -3 13 C-3.33 13 -3.66 13 -4 13 C-3.50269348 8.02693484 -2.44697666 4.36200187 0 0 Z " fill="#E58029" transform="translate(391,122)"/>
<path d="M0 0 C1.32 0 2.64 0 4 0 C3.01 2.97 2.02 5.94 1 9 C0.34 8.67 -0.32 8.34 -1 8 C-0.67 5.36 -0.34 2.72 0 0 Z " fill="#A84957" transform="translate(171,146)"/>
<path d="M0 0 C0.99 0 1.98 0 3 0 C2.44894091 3.9492568 1.61064629 7.34920174 0 11 C-1.37432457 7.18243176 -0.67975039 3.92744671 0 0 Z " fill="#E97524" transform="translate(344,89)"/>
<path d="M0 0 C0.66 0.33 1.32 0.66 2 1 C1.57316368 2.27445454 1.13302798 3.54445882 0.6875 4.8125 C0.44386719 5.52019531 0.20023438 6.22789063 -0.05078125 6.95703125 C-1.06724258 9.14472373 -2.20820594 10.40896718 -4 12 C-3.52309796 10.37433394 -3.04340334 8.74948689 -2.5625 7.125 C-2.29566406 6.22007813 -2.02882813 5.31515625 -1.75390625 4.3828125 C-1 2 -1 2 0 0 Z " fill="#90365D" transform="translate(679,78)"/>
<path d="M0 0 C5.19209404 -0.21192221 9.126739 0.4087311 14 2 C14 2.33 14 2.66 14 3 C4.58997722 3.3690205 4.58997722 3.3690205 0 1 C0 0.67 0 0.34 0 0 Z " fill="#DDA03D" transform="translate(518,76)"/>
<path d="M0 0 C0.33 0 0.66 0 1 0 C1.25 6.625 1.25 6.625 -1 10 C-1.99 9.67 -2.98 9.34 -4 9 C-2.68 6.03 -1.36 3.06 0 0 Z " fill="#E26F26" transform="translate(350,149)"/>
<path d="M0 0 C3.36720387 1.39332574 4.9859524 2.9789286 7 6 C6.01 6 5.02 6 4 6 C3.67 5.34 3.34 4.68 3 4 C0.69 4 -1.62 4 -4 4 C-2.68 2.68 -1.36 1.36 0 0 Z " fill="#D9A33F" transform="translate(536,131)"/>
<path d="M0 0 C2 2 2 2 2.125 4.625 C2.08375 5.40875 2.0425 6.1925 2 7 C2.66 7 3.32 7 4 7 C4 8.32 4 9.64 4 11 C3.34 11 2.68 11 2 11 C-0.32590854 7.36576791 -0.16265833 4.22911669 0 0 Z " fill="#F0B525" transform="translate(471,127)"/>
<path d="M0 0 C0.99 0.33 1.98 0.66 3 1 C3 1.66 3 2.32 3 3 C1.04783565 4.95216435 -0.53199953 5.84826645 -3 7 C-3 3.48283697 -2.17554415 2.62878252 0 0 Z " fill="#733985" transform="translate(61,84)"/>
<path d="M0 0 C0.33 0 0.66 0 1 0 C1.52955234 1.78910903 2.0483937 3.58139148 2.5625 5.375 C2.85253906 6.37273438 3.14257812 7.37046875 3.44140625 8.3984375 C4 11 4 11 3 13 C-0.36055646 8.51925805 -0.27429625 5.39449293 0 0 Z " fill="#DA9136" transform="translate(424,50)"/>
<path d="M0 0 C1.65 0 3.3 0 5 0 C5.33 0.66 5.66 1.32 6 2 C8.52733235 2.65555119 8.52733235 2.65555119 11 3 C11 3.66 11 4.32 11 5 C7.7 4.34 4.4 3.68 1 3 C0.67 2.01 0.34 1.02 0 0 Z " fill="#6F357C" transform="translate(70,49)"/>
<path d="M0 0 C0.66 0 1.32 0 2 0 C2 0.66 2 1.32 2 2 C3.32 2.66 4.64 3.32 6 4 C5.34 4.66 4.68 5.32 4 6 C2.68 6 1.36 6 0 6 C0 4.02 0 2.04 0 0 Z " fill="#D05A43" transform="translate(210,122)"/>
<path d="M0 0 C0.66 0.33 1.32 0.66 2 1 C1.34 2.98 0.68 4.96 0 7 C-1.32 6.67 -2.64 6.34 -4 6 C-2.84826645 3.53199953 -1.95216435 1.95216435 0 0 Z " fill="#A73064" transform="translate(692,104)"/>
<path d="M0 0 C1.13643966 3.40931897 0.86747764 4.00335456 -0.4375 7.1875 C-0.86869141 8.26064453 -0.86869141 8.26064453 -1.30859375 9.35546875 C-1.53675781 9.89816406 -1.76492187 10.44085938 -2 11 C-2.33 11 -2.66 11 -3 11 C-3.36923077 3.49230769 -3.36923077 3.49230769 -1.5 1 C-1.005 0.67 -0.51 0.34 0 0 Z " fill="#C96941" transform="translate(251,94)"/>
<path d="M0 0 C1.66611905 -0.042721 3.33382885 -0.04063832 5 0 C6 1 6 1 6.0625 4.0625 C6.041875 5.031875 6.02125 6.00125 6 7 C5.34 7 4.68 7 4 7 C4 5.35 4 3.7 4 2 C2.68 2 1.36 2 0 2 C0 1.34 0 0.68 0 0 Z " fill="#F3A537" transform="translate(452,77)"/>
<path d="M0 0 C0.66 0.33 1.32 0.66 2 1 C2 1.66 2 2.32 2 3 C3.65 3 5.3 3 7 3 C4.36095629 4.41377341 1.92879371 5.37240135 -1 6 C-0.67 4.02 -0.34 2.04 0 0 Z " fill="#6D27AC" transform="translate(41,48)"/>
<path d="M0 0 C1.65 0 3.3 0 5 0 C5.33 0.66 5.66 1.32 6 2 C4.625 3.5 4.625 3.5 3 5 C2.34 5 1.68 5 1 5 C0.67 3.35 0.34 1.7 0 0 Z " fill="#F15E18" transform="translate(322,102)"/>
<path d="M0 0 C0.99 0 1.98 0 3 0 C3 1.98 3 3.96 3 6 C1.68 5.67 0.36 5.34 -1 5 C-0.67 3.35 -0.34 1.7 0 0 Z " fill="#A8436E" transform="translate(138,82)"/>
<path d="M0 0 C0.99 0.33 1.98 0.66 3 1 C5.28070175 7.15789474 5.28070175 7.15789474 4 11 C3.32880451 9.5437455 2.66318193 8.08492133 2 6.625 C1.62875 5.81289062 1.2575 5.00078125 0.875 4.1640625 C0 2 0 2 0 0 Z " fill="#E0712D" transform="translate(310,74)"/>
<path d="M0 0 C-0.56371414 3.26954202 -1.49962266 4.82575883 -4 7 C-4.33 5.35 -4.66 3.7 -5 2 C-2 0 -2 0 0 0 Z " fill="#EE661C" transform="translate(313,67)"/>
<path d="M0 0 C0.66 0 1.32 0 2 0 C2.33 1.65 2.66 3.3 3 5 C1.35 5.66 -0.3 6.32 -2 7 C-1.34 4.69 -0.68 2.38 0 0 Z " fill="#E77521" transform="translate(353,142)"/>
<path d="M0 0 C0.33 0 0.66 0 1 0 C0.93993922 1.45947705 0.8511311 2.91779272 0.75 4.375 C0.70359375 5.18710938 0.6571875 5.99921875 0.609375 6.8359375 C0 9 0 9 -2.046875 10.2890625 C-3.01367188 10.64097656 -3.01367188 10.64097656 -4 11 C-3.71125 10.29875 -3.4225 9.5975 -3.125 8.875 C-1.97866412 5.94547497 -0.97374346 2.99078347 0 0 Z " fill="#9F5058" transform="translate(159,116)"/>
<path d="M0 0 C0.33 0 0.66 0 1 0 C1.25 5.625 1.25 5.625 -1 9 C-1.66 9 -2.32 9 -3 9 C-2.30058404 5.85262818 -1.23921302 2.97411124 0 0 Z " fill="#E87227" transform="translate(366,112)"/>
<path d="M0 0 C1.98 0.99 1.98 0.99 4 2 C4 6 4 6 3 9 C0.87491756 5.81237635 0.4979837 3.73487777 0 0 Z " fill="#824172" transform="translate(119,96)"/>
<path d="M0 0 C0.66 0 1.32 0 2 0 C1.67 1.65 1.34 3.3 1 5 C-0.32 5.33 -1.64 5.66 -3 6 C-2.42655063 3.13275314 -2.1385485 2.1385485 0 0 Z " fill="#F58C19" transform="translate(380,82)"/>
<path d="M0 0 C0.66 0.33 1.32 0.66 2 1 C2 3.97 2 6.94 2 10 C1.34 10 0.68 10 0 10 C-1.231394 6.30581799 -0.64432764 3.7943739 0 0 Z " fill="#712BA6" transform="translate(27,71)"/>
<path d="M0 0 C1.5 1.3125 1.5 1.3125 3 3 C3 3.99 3 4.98 3 6 C1.68 5.67 0.36 5.34 -1 5 C-1.33 3.68 -1.66 2.36 -2 1 C-1.34 0.67 -0.68 0.34 0 0 Z " fill="#D25E38" transform="translate(226,153)"/>
<path d="M0 0 C0.66 0 1.32 0 2 0 C2 0.99 2 1.98 2 3 C2.66 3 3.32 3 4 3 C4 2.01 4 1.02 4 0 C4.66 0 5.32 0 6 0 C5.34 1.98 4.68 3.96 4 6 C2.62437146 4.71034824 1.29233607 3.37310707 0 2 C0 1.34 0 0.68 0 0 Z " fill="#D67340" transform="translate(329,119)"/>
<path d="M0 0 C0.66 0.33 1.32 0.66 2 1 C0.68 4.3 -0.64 7.6 -2 11 C-2.33 11 -2.66 11 -3 11 C-3.39253254 6.55129785 -2.15305957 3.85756507 0 0 Z " fill="#DD6C2C" transform="translate(340,103)"/>
<path d="M0 0 C2.475 0.99 2.475 0.99 5 2 C4.34 3.32 3.68 4.64 3 6 C2.34 6 1.68 6 1 6 C0.67 4.02 0.34 2.04 0 0 Z " fill="#C24849" transform="translate(610,106)"/>
<path d="M0 0 C0.66 1.32 1.32 2.64 2 4 C0.625 6 0.625 6 -1 8 C-1.66 8 -2.32 8 -3 8 C-1.125 1.125 -1.125 1.125 0 0 Z " fill="#EA921E" transform="translate(376,89)"/>
<path d="M0 0 C2 2 2 2 2 5 C-0.97 4.505 -0.97 4.505 -4 4 C-4 3.01 -4 2.02 -4 1 C-2.125 0.375 -2.125 0.375 0 0 Z " fill="#CB5B3C" transform="translate(586,78)"/>
<path d="M0 0 C1.65 0 3.3 0 5 0 C5.33 1.65 5.66 3.3 6 5 C5.01 5.33 4.02 5.66 3 6 C2 4 1 2 0 0 Z " fill="#8B3196" transform="translate(82,49)"/>
<path d="M0 0 C2.475 0.495 2.475 0.495 5 1 C4.6875 2.9375 4.6875 2.9375 4 5 C3.01 5.33 2.02 5.66 1 6 C0.67 4.02 0.34 2.04 0 0 Z " fill="#AD395D" transform="translate(657,121)"/>
<path d="M0 0 C0.99 0.33 1.98 0.66 3 1 C3 3.31 3 5.62 3 8 C0.9375 6.25 0.9375 6.25 -1 4 C-0.75 1.75 -0.75 1.75 0 0 Z " fill="#A35A5B" transform="translate(185,116)"/>
<path d="M0 0 C1.98 0.495 1.98 0.495 4 1 C3.505 1.61875 3.01 2.2375 2.5 2.875 C0.80777227 4.83880904 0.80777227 4.83880904 1 7 C0.34 7 -0.32 7 -1 7 C-0.67 4.69 -0.34 2.38 0 0 Z " fill="#D96D30" transform="translate(564,79)"/>
<path d="M0 0 C1.32 0.33 2.64 0.66 4 1 C3.34 3.31 2.68 5.62 2 8 C-0.1519437 4.77208445 -0.20086443 3.71599191 0 0 Z " fill="#D27E3D" transform="translate(561,78)"/>
</svg>
