<?xml version="1.0" encoding="UTF-8"?>
<svg version="1.1" xmlns="http://www.w3.org/2000/svg" width="827" height="171">
<path d="M0 0 C272.91 0 545.82 0 827 0 C827 56.43 827 112.86 827 171 C554.09 171 281.18 171 0 171 C0 114.57 0 58.14 0 0 Z " fill="#FBFBFA" transform="translate(0,0)"/>
<path d="M0 0 C10.67658613 9.08174339 17.70401406 20.57533538 19.26367188 34.60620117 C19.41999682 37.46284165 19.46831464 40.29158658 19.44921875 43.15234375 C19.44349854 44.15676514 19.43777832 45.16118652 19.43188477 46.19604492 C19.13155048 58.71604104 14.85835873 68.05892339 6.94921875 77.77734375 C6.45035156 78.40125 5.95148438 79.02515625 5.4375 79.66796875 C-3.3684791 89.5164693 -17.98931385 96.08865594 -31.0859375 96.90405273 C-49.01729427 97.52271617 -63.01916695 94.79841995 -78.05078125 84.77734375 C-78.05078125 84.11734375 -78.05078125 83.45734375 -78.05078125 82.77734375 C-78.92089844 82.41382813 -78.92089844 82.41382813 -79.80859375 82.04296875 C-88.59992356 77.08061534 -92.85443039 65.83551452 -96.05078125 56.77734375 C-99.86054298 42.76950032 -97.26228683 26.89337909 -90.23828125 14.46484375 C-89.20492632 12.88291768 -88.14325564 11.3190351 -87.05078125 9.77734375 C-86.57253906 9.0915625 -86.09429687 8.40578125 -85.6015625 7.69921875 C-65.41799345 -18.1276152 -24.8867556 -18.13132386 0 0 Z " fill="#EC741B" transform="translate(206.05078125,53.22265625)"/>
<path d="M0 0 C3.37643535 3.37643535 5.79214948 5.85161768 8.3125 9.6875 C8.82425781 10.45449219 9.33601563 11.22148437 9.86328125 12.01171875 C11 14 11 14 11 16 C18.92897475 16.14793592 26.85485697 16.23013785 34.785079 16.23059464 C38.46853769 16.23282652 42.14904612 16.25689667 45.83178711 16.33251953 C49.39264175 16.4048088 52.94938274 16.4175832 56.51082039 16.39070892 C58.51677142 16.39062671 60.52243727 16.45069481 62.52745056 16.51202393 C68.17733088 16.42497462 71.61286407 16.33936643 75.79055786 12.30554199 C77.4551448 10.1940394 78.81835048 8.0677495 80.24598694 5.77142334 C82 3 82 3 85 1 C94.67055566 20.34111133 86.37849333 58.39117113 80 78 C78.58139658 81.83255483 76.93018516 85.40106686 75 89 C74.28263672 90.42119141 74.28263672 90.42119141 73.55078125 91.87109375 C61.95953912 113.4538182 41.7969019 124.85103884 19 132 C5.48361382 136 5.48361382 136 0 136 C0 91.12 0 46.24 0 0 Z " fill="#F8AE14" transform="translate(10,13)"/>
<path d="M0 0 C8.91 0 17.82 0 27 0 C29.14047955 6.20993887 31.27815599 12.42069626 33.40869141 18.6340332 C34.13458103 20.74820702 34.86211302 22.86181767 35.59130859 24.97485352 C36.63809802 28.00911866 37.67899804 31.04534852 38.71875 34.08203125 C39.04685669 35.02899368 39.37496338 35.97595612 39.7130127 36.95161438 C40.01332397 37.83230087 40.31363525 38.71298737 40.62304688 39.62036133 C41.02275696 40.78285149 41.02275696 40.78285149 41.43054199 41.96882629 C42 44 42 44 42 47 C44.3882948 46.08909336 44.3882948 46.08909336 45.2265625 42.73828125 C45.69901263 41.26502767 46.16462243 39.78957066 46.625 38.3125 C49.3159252 29.94567158 52.25077054 21.6872053 55.28369141 13.4387207 C55.60772949 12.55659912 55.93176758 11.67447754 56.265625 10.765625 C56.55211914 9.98993164 56.83861328 9.21423828 57.13378906 8.41503906 C58.1342263 5.62577043 59.06293575 2.81119276 60 0 C68.25 0 76.5 0 85 0 C85.89203125 2.55492188 86.7840625 5.10984375 87.703125 7.7421875 C88.57970699 10.24790867 89.45705411 12.75336072 90.33447266 15.25878906 C90.93846124 16.98474683 91.54166848 18.71097824 92.14404297 20.4375 C96.79492272 33.82282698 96.79492272 33.82282698 102 47 C102.235979 46.31711914 102.47195801 45.63423828 102.71508789 44.93066406 C105.07001246 38.1175312 107.42853094 31.30565189 109.78955078 24.49462891 C110.90221405 21.28231305 112.01184279 18.06896401 113.12109375 14.85546875 C113.74720377 13.04941257 114.37349432 11.24341897 115 9.4375 C115.29011963 8.59413086 115.58023926 7.75076172 115.87915039 6.88183594 C117.88601997 1.11398003 117.88601997 1.11398003 119 0 C120.78071246 -0.08726223 122.5648314 -0.10699041 124.34765625 -0.09765625 C125.42724609 -0.09443359 126.50683594 -0.09121094 127.61914062 -0.08789062 C129.32360352 -0.07532227 129.32360352 -0.07532227 131.0625 -0.0625 C132.77276367 -0.05573242 132.77276367 -0.05573242 134.51757812 -0.04882812 C137.34510351 -0.03699747 140.1725264 -0.0205141 143 0 C141.66019984 6.71260285 139.72293296 12.91361395 137.3125 19.3125 C136.58749871 21.27044746 135.86356123 23.22878912 135.140625 25.1875 C134.77904297 26.16460937 134.41746094 27.14171875 134.04492188 28.1484375 C132.50395497 32.35369299 131.02983285 36.58110151 129.5625 40.8125 C126.81742547 48.70438874 124.01568003 56.57501196 121.1875 64.4375 C120.60947632 66.04685425 120.60947632 66.04685425 120.01977539 67.6887207 C119.6561792 68.69765381 119.29258301 69.70658691 118.91796875 70.74609375 C118.59594482 71.63997803 118.2739209 72.5338623 117.94213867 73.45483398 C117.00501435 75.98645385 116.00256919 78.49357702 115 81 C105.76 81 96.52 81 87 81 C79.03338902 59.29785284 79.03338902 59.29785284 75.5 48.75 C75.24524902 47.99477051 74.99049805 47.23954102 74.72802734 46.46142578 C73 41.24828092 73 41.24828092 73 39 C70.89045904 39.79393851 70.89045904 39.79393851 70.25732422 41.61621094 C69.90951904 42.66470215 69.90951904 42.66470215 69.5546875 43.734375 C69.28599854 44.52682617 69.01730957 45.31927734 68.74047852 46.13574219 C68.45487061 46.99844727 68.1692627 47.86115234 67.875 48.75 C64.18606217 59.61115497 60.1226294 70.29562892 56 81 C46.76 81 37.52 81 28 81 C22.26127436 65.48935088 16.58024626 49.97074934 11.22509766 34.32250977 C8.40118001 26.08960518 5.44520838 17.91017367 2.38598633 9.76171875 C2.07169678 8.91351563 1.75740723 8.0653125 1.43359375 7.19140625 C1.15572021 6.45092041 0.87784668 5.71043457 0.59155273 4.94750977 C0 3 0 3 0 0 Z " fill="#EF801E" transform="translate(231,67)"/>
<path d="M0 0 C8.91 0 17.82 0 27 0 C29.53580282 6.33950706 31.99356753 12.63190597 34.234375 19.0703125 C34.65870819 20.28096878 34.65870819 20.28096878 35.09161377 21.51608276 C35.97980949 24.0516708 36.86496147 26.58830847 37.75 29.125 C38.35787027 30.86205009 38.96594154 32.59902987 39.57421875 34.3359375 C41.0517983 38.55648426 42.52665241 42.77797414 44 47 C45.31113866 43.33386955 46.6218627 39.66759112 47.93215942 36.00115967 C48.39278014 34.71228193 48.85345286 33.42342277 49.31417847 32.13458252 C52.32938033 23.69874354 55.33616215 15.26012492 58.28564453 6.80102539 C59.10121048 4.47365645 59.89580945 2.2083811 61 0 C69.25 0 77.5 0 86 0 C91.28 15.51 96.56 31.02 102 47 C105.02758452 39.73379716 107.95638731 32.60819061 110.5 25.1875 C110.79334229 24.3409082 111.08668457 23.49431641 111.38891602 22.62207031 C113.98663512 15.10135152 116.50656562 7.55586176 119 0 C127.25 0 135.5 0 144 0 C143.30122093 4.19267444 142.70854677 7.17430355 141.25 11 C139.64436964 15.27781663 138.08351111 19.56626821 136.5625 23.875 C135.00237701 28.25752731 133.3875485 32.60751071 131.6875 36.9375 C128.5494293 45.01530975 125.76679326 53.21636839 122.9375 61.40625 C120.67447211 67.95571895 118.34451986 74.47930413 116 81 C106.76 81 97.52 81 88 81 C85.6059883 75.01497075 83.26892905 69.11236704 81.203125 63.0234375 C80.84537994 61.97925156 80.84537994 61.97925156 80.48040771 60.91397095 C79.73452776 58.73512916 78.99219267 56.55510019 78.25 54.375 C77.7385178 52.87882536 77.22680076 51.38273098 76.71484375 49.88671875 C75.47385616 46.2587311 74.23604136 42.62967564 73 39 C68.70409181 47.5175579 65.69833872 56.56699108 62.5625 65.55859375 C60.74689293 70.71945685 58.86964806 75.85846782 57 81 C47.76 81 38.52 81 29 81 C24.07544394 68.52236688 19.454384 55.98590081 15.0625 43.3125 C14.45129921 41.55653962 13.83980554 39.80068116 13.22802734 38.04492188 C11.74879434 33.79751541 10.27304347 29.54891009 8.79852295 25.29986572 C7.28516341 20.94116354 5.7663431 16.58436463 4.24829102 12.22729492 C2.82995308 8.15230923 1.41529312 4.07604419 0 0 Z " fill="#FBC629" transform="translate(678,67)"/>
<path d="M0 0 C0.9384375 -0.01611328 1.876875 -0.03222656 2.84375 -0.04882812 C12.91655855 -0.05578448 21.08208108 2.43018095 29.25 8.3125 C30.260625 9.01375 31.27125 9.715 32.3125 10.4375 C39.31960672 16.544787 43.44264089 25.38201968 45.25 34.3125 C45.25 39.2625 45.25 44.2125 45.25 49.3125 C25.78 49.3125 6.31 49.3125 -13.75 49.3125 C-12.76 51.2925 -11.77 53.2725 -10.75 55.3125 C-10.75 55.9725 -10.75 56.6325 -10.75 57.3125 C-2.19858851 60.94037154 5.8289186 63.37538938 14.78125 59.96875 C17.97556058 58.49658947 21.11754026 56.91205391 24.25 55.3125 C29.2 60.2625 34.15 65.2125 39.25 70.3125 C30.15166602 79.41083398 20.92516063 83.7649577 8.00244141 83.86889648 C6.94976074 83.85028564 5.89708008 83.8316748 4.8125 83.8125 C3.71083496 83.79968994 2.60916992 83.78687988 1.47412109 83.77368164 C-6.17824749 83.58234404 -12.88836552 82.94197176 -19.75 79.3125 C-20.70777344 78.81492187 -21.66554688 78.31734375 -22.65234375 77.8046875 C-32.67893584 72.01752696 -39.11011269 63.59523305 -42.28051758 52.44702148 C-44.44408143 42.61028784 -44.12842235 29.94961355 -38.75 21.3125 C-33.05405783 12.71219128 -26.34220549 6.25695833 -16.75 2.3125 C-15.90050781 1.95285156 -15.05101562 1.59320313 -14.17578125 1.22265625 C-9.42163341 -0.04041838 -4.89803895 -0.01654743 0 0 Z " fill="#F9B828" transform="translate(630.75,65.6875)"/>
<path d="M0 0 C9.24 0 18.48 0 28 0 C28 36.63 28 73.26 28 111 C18.76 111 9.52 111 0 111 C0 74.37 0 37.74 0 0 Z " fill="#F18E1F" transform="translate(384,37)"/>
<path d="M0 0 C9.9 0 19.8 0 30 0 C23.29457232 16.16322099 16.49598982 32.28200985 9.59594727 48.36303711 C8.06541423 51.93070693 6.5374693 55.49947723 5.00976562 59.06835938 C-1.56844671 74.42015715 -8.25230659 89.72188925 -15 105 C-24.57 105 -34.14 105 -44 105 C-42.02492145 99.07476436 -40.01316218 93.31298693 -37.625 87.5625 C-37.31973389 86.82241699 -37.01446777 86.08233398 -36.69995117 85.31982422 C-34.70413769 80.53636572 -32.50291586 75.91664747 -30.11328125 71.31640625 C-28.47233586 67.9020883 -27.27822188 64.35694078 -26.02734375 60.78515625 C-24.28749246 56.06837309 -22.12969556 51.55068688 -20 47 C-15.06502764 36.31524676 -10.5088538 25.52916755 -6.40625 14.49609375 C-4.43480971 9.59487415 -2.18605991 4.8093318 0 0 Z " fill="#F49C22" transform="translate(509,43)"/>
<path d="M0 0 C1.067948 0.00241699 1.067948 0.00241699 2.1574707 0.00488281 C7.77158743 0.13605677 11.68667288 1.07132383 16.1875 4.375 C17.05375 4.931875 17.92 5.48875 18.8125 6.0625 C25.93860477 13.00107569 29.06829375 20.39603872 29.5625 30.1875 C29.30626104 39.46904471 25.76302231 46.91606749 19.29296875 53.4921875 C12.36699352 59.68573122 5.4149394 60.21959567 -3.671875 59.8125 C-10.34900728 59.26866117 -15.12910205 57.06350918 -19.86328125 52.3203125 C-27.23954263 43.49323366 -28.61683485 35.75268205 -27.8125 24.375 C-26.5358487 16.84275732 -22.48806702 8.97863898 -16.25 4.375 C-10.71420399 1.15417323 -6.40851577 -0.01497842 0 0 Z " fill="#FBFAFA" transform="translate(166.8125,65.625)"/>
<path d="M0 0 C5.07173547 5.1408955 7.16312926 8.28224885 7.3125 15.625 C7.25090481 23.13961319 6.10624083 27.75971876 0.91796875 33.171875 C-3.10258882 35.69077854 -6.34518039 35.66278263 -11 35.625 C-11.7940625 35.65722656 -12.588125 35.68945312 -13.40625 35.72265625 C-19.12583983 35.7321889 -19.12583983 35.7321889 -21.60546875 33.65527344 C-22.8198956 32.16751151 -23.91773769 30.58649816 -25 29 C-25.99 28.505 -25.99 28.505 -27 28 C-27.28875 28.78375 -27.5775 29.5675 -27.875 30.375 C-29 33 -29 33 -31 35 C-34.2702109 35.47515885 -37.57415592 35.37037049 -40.875 35.375 C-41.78636719 35.39949219 -42.69773437 35.42398438 -43.63671875 35.44921875 C-50.34106925 35.47866685 -50.34106925 35.47866685 -53.52734375 33.1640625 C-58.16665772 26.34660908 -59.75874037 20.13921483 -59 12 C-56.86377893 5.36647142 -53.47165821 0.10202659 -47.25 -3.25 C-32.80843638 -9.68038083 -13.08771117 -9.42315204 0 0 Z " fill="#FBF9F5" transform="translate(77,46)"/>
<path d="M0 0 C9.24 0 18.48 0 28 0 C28 26.73 28 53.46 28 81 C18.76 81 9.52 81 0 81 C0 54.27 0 27.54 0 0 Z " fill="#F7AA23" transform="translate(546,67)"/>
<path d="M0 0 C10.56 0 21.12 0 32 0 C34.475 5.94 34.475 5.94 37 12 C38.05788684 14.48113866 39.11947343 16.96070916 40.1875 19.4375 C41.12979883 21.62293712 42.06778175 23.81024393 43 26 C43.40863281 26.81597656 43.81726563 27.63195312 44.23828125 28.47265625 C46.05026744 34.4847335 43.31442202 40.22740341 40.83984375 45.68359375 C40.53051407 46.38396255 40.22118439 47.08433136 39.90248108 47.80592346 C38.92229438 50.02017185 37.93014417 52.22881251 36.9375 54.4375 C36.26677711 55.94690994 35.5968472 57.45667252 34.92773438 58.96679688 C33.2942958 62.64867161 31.65011328 66.32557002 30 70 C28.39907767 67.59861651 27.29662761 65.57044026 26.17163086 62.95361328 C25.82043686 62.14070831 25.46924286 61.32780334 25.10740662 60.49026489 C24.73036087 59.6091806 24.35331512 58.72809631 23.96484375 57.8203125 C23.56729385 56.89773651 23.16974396 55.97516052 22.76014709 55.02462769 C21.48314414 52.05927551 20.21027999 49.09216684 18.9375 46.125 C18.10769058 44.19649894 17.27761505 42.26811236 16.44726562 40.33984375 C14.79221587 36.49517786 13.14074498 32.64900245 11.49169922 28.80175781 C9.79447037 24.84381979 8.0865917 20.89069437 6.37158203 16.94042969 C5.95268204 15.97225311 5.53378204 15.00407654 5.10218811 14.00656128 C4.3025058 12.15858084 3.50007819 10.31178532 2.69456482 8.46633911 C2.16235069 7.23365799 2.16235069 7.23365799 1.61938477 5.97607422 C1.30558365 5.25394745 0.99178253 4.53182068 0.66847229 3.78781128 C0 2 0 2 0 0 Z " fill="#F49C22" transform="translate(420,43)"/>
<path d="M0 0 C3.64622337 2.11138148 5.95369889 5.30974152 7.828125 9.05859375 C8.20194354 14.66587192 8.01303327 18.22631913 4.828125 23.05859375 C0.49223441 27.16627958 -3.10406166 28.89183461 -9.046875 29.37109375 C-14.6519668 29.19198367 -19.21218877 27.10248328 -23.609375 23.68359375 C-26.52666385 20.57025054 -26.6892923 17.67729338 -26.859375 13.49609375 C-26.65729678 9.16373384 -26.49603382 7.50881434 -23.921875 3.93359375 C-23.014375 3.31484375 -22.106875 2.69609375 -21.171875 2.05859375 C-20.470625 1.48109375 -19.769375 0.90359375 -19.046875 0.30859375 C-13.25431032 -3.55311604 -6.11725504 -2.51674469 0 0 Z " fill="#F7AB26" transform="translate(569.171875,28.94140625)"/>
<path d="M0 0 C4.66235714 1.73724772 7.32449534 3.94452398 10 8.125 C11 11 11 11 11 14 C0.11 14 -10.78 14 -22 14 C-21.04118476 8.24710854 -20.80167397 6.90727602 -17 3 C-11.53045153 -0.8746544 -6.50578293 -0.89328108 0 0 Z " fill="#FBF8F0" transform="translate(638,86)"/>
<path d="M0 0 C3.68435029 1.04736571 5.06058191 3.38348198 6.9375 6.55078125 C7.67240789 10.55194642 7.32564018 11.96857099 5.0625 15.36328125 C2.13812465 18.37366764 1.35900539 18.50999041 -2.9375 18.92578125 C-6.21475968 18.86619471 -6.87937595 18.69728049 -9.5625 16.55078125 C-11.48316167 12.70945791 -12.02154265 9.76038438 -11.0625 5.55078125 C-8.07693748 1.07243747 -5.2422333 -0.34749653 0 0 Z " fill="#F8B01A" transform="translate(38.0625,51.44921875)"/>
<path d="M0 0 C4.63235294 2.26470588 4.63235294 2.26470588 6 5 C6.41338646 8.05905981 6.46661171 10.94532102 6 14 C3.88102174 16.7149409 2.41370088 17.67792702 -0.9375 18.44140625 C-5.18472262 18.81947341 -6.66488417 18.27356394 -10.0625 15.5 C-11.87255905 12.91069519 -12.31939064 11.02059403 -12.125 7.875 C-11.50411245 4.84599717 -10.93679592 3.92776676 -8.8125 1.5 C-5.4774656 -0.27868501 -3.72950417 -0.54388602 0 0 Z " fill="#F8B019" transform="translate(68,52)"/>
</svg>
