<?xml version="1.0" encoding="UTF-8"?>
<svg version="1.1" xmlns="http://www.w3.org/2000/svg" width="625" height="201">
<path d="M0 0 C0.99 0.33 1.98 0.66 3 1 C3.64744079 2.6602353 4.29431768 4.32069413 4.93748474 5.98258972 C6.63702387 9.80049678 8.51017443 12.62179239 12 15 C20.28478571 17.46068948 29.19700818 16.9826394 37.7644043 16.77026367 C41.23977303 16.68488303 44.70145836 16.72146621 48.17671776 16.791502 C63.05294564 17.71412686 63.05294564 17.71412686 76.00048828 12.02197266 C78.60060087 8.95119193 80.22713056 5.58921689 82 2 C82.99 1.67 83.98 1.34 85 1 C89.16209807 34.1852998 89.00217621 71.33438425 69.1875 99.9375 C67.82810639 101.65449038 66.43094368 103.34216795 65 105 C64.21238281 105.92167969 63.42476562 106.84335938 62.61328125 107.79296875 C48.83011415 122.72988377 25.88385732 132.69176724 6 136 C4.02 136 2.04 136 0 136 C0 91.12 0 46.24 0 0 Z M13.48828125 37.21875 C9.26648885 42.27160389 9.59187354 47.09988282 9.671875 53.5 C10.19328185 59.06167303 12.00235962 63.00235962 16 67 C19.26911171 67.50094447 22.57183207 67.41665252 25.875 67.4375 C26.78636719 67.47037109 27.69773437 67.50324219 28.63671875 67.53710938 C34.17395603 67.64689233 34.17395603 67.64689233 38.6328125 64.59765625 C40.15524881 62.19427327 40.15524881 62.19427327 40 60 C42.33333333 62.33333333 44.66666667 64.66666667 47 67 C49.98451903 67.27989073 52.82555939 67.41634936 55.8125 67.4375 C56.62009766 67.47037109 57.42769531 67.50324219 58.25976562 67.53710938 C62.61921474 67.57638369 64.4284856 67.44937016 67.9609375 64.671875 C72.12185417 59.21963936 73.57822877 54.2651728 73.3515625 47.49609375 C72.6218598 42.3152046 70.4326033 38.51687408 66.875 34.75 C51.03206721 25.10647569 27.62337016 23.90089321 13.48828125 37.21875 Z " fill="#000000" transform="translate(15,22)"/>
<path d="M0 0 C1.03125 0.5775 2.0625 1.155 3.125 1.75 C10.00149065 7.13160138 15.03377443 13.36722266 17 22 C18.11580133 32.55985174 17.24404864 41.82683834 11.15234375 50.6875 C5.28636871 57.84164742 -2.71670937 63.38998281 -12 65 C-24.81089202 65.87119779 -35.24948749 64.39392391 -45.99609375 56.76171875 C-49.51007847 53.67242614 -51.79735198 50.09466619 -54 46 C-54.3403125 45.39671875 -54.680625 44.7934375 -55.03125 44.171875 C-58.83435217 36.07267593 -58.13890566 25.46394189 -55.5 17.125 C-51.50453177 7.78836765 -45.16372503 2.27992626 -36 -1.84375 C-24.19848117 -6.39225205 -11.12903698 -6.44191145 0 0 Z M-33.8125 18 C-37.89890357 23.6042106 -37.48021822 29.29473083 -37 36 C-35.2931915 41.2152482 -32.45098136 43.85813081 -28 47 C-22.9333632 49.47702243 -18.37702033 49.30322755 -13 48 C-8.29144307 45.77898258 -5.77520697 43.08554928 -3.6953125 38.41015625 C-1.96665786 32.41813427 -1.72670114 25.61947539 -4.6875 20 C-7.70495758 16.08546043 -10.2846585 13.5717805 -15 12 C-22.69708812 11.31110399 -28.50036305 11.93329814 -33.8125 18 Z " fill="#000000" transform="translate(204,64)"/>
<path d="M0 0 C5.61 0 11.22 0 17 0 C19.95280213 6.42169135 22.46424316 12.87690651 24.75 19.5625 C25.06582031 20.47580078 25.38164063 21.38910156 25.70703125 22.33007812 C26.47488372 24.55219664 27.23914024 26.77547959 28 29 C28.25692627 28.22809326 28.51385254 27.45618652 28.77856445 26.66088867 C29.94735822 23.16660832 31.1297473 19.6770789 32.3125 16.1875 C32.71662109 14.97255859 33.12074219 13.75761719 33.53710938 12.50585938 C34.13168945 10.76079102 34.13168945 10.76079102 34.73828125 8.98046875 C35.09962158 7.90692139 35.46096191 6.83337402 35.83325195 5.72729492 C36.95695743 3.10061279 37.70886858 1.67198382 40 0 C43.35546875 -0.29296875 43.35546875 -0.29296875 47.1875 -0.1875 C49.09595703 -0.14689453 49.09595703 -0.14689453 51.04296875 -0.10546875 C52.50669922 -0.05326172 52.50669922 -0.05326172 54 0 C57.70403552 8.8678968 60.84252933 17.92753428 64 27 C66.34457737 24.65542263 66.81995448 22.98220178 67.83984375 19.84375 C68.3512793 18.31041016 68.3512793 18.31041016 68.87304688 16.74609375 C69.58230398 14.58318494 70.28803878 12.4191179 70.99023438 10.25390625 C71.33248047 9.23167969 71.67472656 8.20945312 72.02734375 7.15625 C72.33406006 6.21587891 72.64077637 5.27550781 72.95678711 4.30664062 C74 2 74 2 77 0 C80.35546875 -0.1953125 80.35546875 -0.1953125 84.1875 -0.125 C85.45980469 -0.10695313 86.73210937 -0.08890625 88.04296875 -0.0703125 C89.01878906 -0.04710938 89.99460937 -0.02390625 91 0 C92 2 92 2 91.32250977 4.54003906 C90.76261353 6.1367041 90.76261353 6.1367041 90.19140625 7.765625 C89.77745605 8.95647705 89.36350586 10.1473291 88.93701172 11.37426758 C88.47909147 12.66626713 88.02091573 13.95817616 87.5625 15.25 C87.10381447 16.55930864 86.64564689 17.86879885 86.18798828 19.1784668 C82.22485166 30.48802642 78.1455311 41.75611536 74 53 C67.73 53 61.46 53 55 53 C50.545 40.625 50.545 40.625 46 28 C43.08013323 35.85228157 43.08013323 35.85228157 40.16625977 43.70678711 C39.80330811 44.6788208 39.44035645 45.65085449 39.06640625 46.65234375 C38.69459229 47.65257568 38.32277832 48.65280762 37.93969727 49.68334961 C37 52 37 52 36 53 C34.65732587 53.08631874 33.31025678 53.10706473 31.96484375 53.09765625 C31.15595703 53.09443359 30.34707031 53.09121094 29.51367188 53.08789062 C28.66353516 53.07951172 27.81339844 53.07113281 26.9375 53.0625 C26.08349609 53.05798828 25.22949219 53.05347656 24.34960938 53.04882812 C22.23304337 53.03700373 20.11651315 53.01906769 18 53 C13.24879766 40.44046226 8.54268208 27.86387138 3.9375 15.25 C3.54377197 14.18595947 3.15004395 13.12191895 2.74438477 12.02563477 C2.38401123 11.03233154 2.0236377 10.03902832 1.65234375 9.015625 C1.33257568 8.14196289 1.01280762 7.26830078 0.68334961 6.36816406 C0 4 0 4 0 0 Z " fill="#FCC628" transform="translate(506,75)"/>
<path d="M0 0 C5.94 0 11.88 0 18 0 C21.66739436 8.88637863 24.8412567 17.9238776 28 27 C29.88966795 24.16549807 30.82839591 21.9104949 31.91015625 18.7109375 C32.26013672 17.68742187 32.61011719 16.66390625 32.97070312 15.609375 C33.33099609 14.54203125 33.69128906 13.4746875 34.0625 12.375 C34.77995179 10.25692993 35.4998695 8.13969297 36.22265625 6.0234375 C36.53984619 5.08419434 36.85703613 4.14495117 37.18383789 3.17724609 C38 1 38 1 39 0 C41.69654854 -0.07319621 44.36691458 -0.09242537 47.0625 -0.0625 C47.82111328 -0.05798828 48.57972656 -0.05347656 49.36132812 -0.04882812 C51.24091871 -0.0370068 53.12046899 -0.01907078 55 0 C58.90216223 9.13565041 61.91697676 18.56594888 65 28 C67.91325329 20.95812503 70.50620048 13.83292689 72.98095703 6.62719727 C74.8950807 1.1049193 74.8950807 1.1049193 76 0 C78.69654854 -0.07319621 81.36691458 -0.09242537 84.0625 -0.0625 C84.82111328 -0.05798828 85.57972656 -0.05347656 86.36132812 -0.04882812 C88.24091871 -0.0370068 90.12046899 -0.01907078 92 0 C91.32556448 5.51565836 89.57061435 10.43925491 87.69140625 15.6328125 C87.36462387 16.54707001 87.03784149 17.46132751 86.70115662 18.40328979 C86.01175198 20.3288041 85.31989371 22.25344148 84.62573242 24.17724609 C83.56430097 27.12000691 82.51103217 30.0655919 81.45898438 33.01171875 C80.7869367 34.8855883 80.1144264 36.75929201 79.44140625 38.6328125 C79.12675919 39.51204376 78.81211212 40.39127502 78.4879303 41.29714966 C78.19099777 42.11835297 77.89406525 42.93955627 77.58813477 43.78564453 C77.19961082 44.86436325 77.19961082 44.86436325 76.80323792 45.96487427 C75.98890376 48.02811402 74.99197766 50.01604468 74 52 C68.06 52 62.12 52 56 52 C52.75855582 44.07646979 49.83888084 36.07452174 47 28 C45.20996089 30.68505867 44.17887291 32.894935 43.0546875 35.88671875 C42.70019531 36.82451172 42.34570312 37.76230469 41.98046875 38.72851562 C41.61566406 39.70498047 41.25085938 40.68144531 40.875 41.6875 C40.50246094 42.67556641 40.12992187 43.66363281 39.74609375 44.68164062 C38.82735729 47.11982585 37.91323575 49.55974912 37 52 C31.06 52 25.12 52 19 52 C16.13884022 45.74111435 13.62261902 39.45466005 11.328125 32.96875 C11.00084412 32.05162231 10.67356323 31.13449463 10.33636475 30.1895752 C9.65243963 28.27085236 8.97018682 26.35153267 8.28955078 24.43164062 C7.24256875 21.47904311 6.19006033 18.52845901 5.13671875 15.578125 C4.47103356 13.70844745 3.80565758 11.83865978 3.140625 9.96875 C2.82506653 9.08344604 2.50950806 8.19814209 2.18438721 7.28601074 C1.89698669 6.47426392 1.60958618 5.66251709 1.31347656 4.82617188 C1.05906799 4.10941284 0.80465942 3.39265381 0.5425415 2.6541748 C0 1 0 1 0 0 Z " fill="#0D1E33" transform="translate(223,76)"/>
<path d="M0 0 C0.70108887 0.00684814 1.40217773 0.01369629 2.12451172 0.02075195 C7.90852177 0.19945256 12.30085858 1.27649941 17.125 4.4375 C17.69605469 4.81132813 18.26710938 5.18515625 18.85546875 5.5703125 C24.02593005 9.42581698 26.5794121 14.25514838 28.125 20.4375 C28.125 24.3975 28.125 28.3575 28.125 32.4375 C16.245 32.7675 4.365 33.0975 -7.875 33.4375 C-3.24172428 38.07077572 -1.71035623 38.17408556 4.43359375 38.55859375 C7.88733715 38.40320036 10.17156441 37.16634035 13.125 35.4375 C16.98542745 35.74792613 18.78423554 37.77969732 21.375 40.5 C22.43460937 41.60021484 22.43460937 41.60021484 23.515625 42.72265625 C24.04671875 43.28855469 24.5778125 43.85445312 25.125 44.4375 C21.536548 49.48376062 18.30941246 52.12331235 12.125 53.4375 C0.43274665 55.09206415 -8.49217416 54.66246463 -18.5703125 48.2890625 C-23.10480583 44.64609667 -26.04727541 39.92067376 -27.875 34.4375 C-28.65177722 25.28262567 -28.7347168 16.99568543 -22.875 9.4375 C-16.49580454 3.16506932 -8.98829802 -0.13533332 0 0 Z M-6.875 16.4375 C-7.535 18.0875 -8.195 19.7375 -8.875 21.4375 C-2.605 21.4375 3.665 21.4375 10.125 21.4375 C8.67753414 16.2259594 8.67753414 16.2259594 4.5625 14.625 C-0.39113569 12.91374403 -2.10714624 14.01174984 -6.875 16.4375 Z " fill="#FBA716" transform="translate(476.875,74.5625)"/>
<path d="M0 0 C6.27 0 12.54 0 19 0 C19 23.43 19 46.86 19 71 C12.73 71 6.46 71 0 71 C0 47.57 0 24.14 0 0 Z " fill="#343E4F" transform="translate(320,57)"/>
<path d="M0 0 C6.6 0 13.2 0 20 0 C14.55030635 13.81818472 8.84855202 27.49400712 2.90649414 41.10717773 C1.53578671 44.24872463 0.1709661 47.39278635 -1.19335938 50.53710938 C-2.06476405 52.53921057 -2.93649577 54.54116946 -3.80859375 56.54296875 C-4.21581161 57.48126022 -4.62302948 58.4195517 -5.04258728 59.38627625 C-5.41710526 60.24260147 -5.79162323 61.0989267 -6.17749023 61.98120117 C-6.50643784 62.73584152 -6.83538544 63.49048187 -7.17430115 64.26799011 C-8 66 -8 66 -9 67 C-10.41570123 67.08651611 -11.835595 67.10704904 -13.25390625 67.09765625 C-14.10791016 67.09443359 -14.96191406 67.09121094 -15.84179688 67.08789062 C-16.73962891 67.07951172 -17.63746094 67.07113281 -18.5625 67.0625 C-19.46419922 67.05798828 -20.36589844 67.05347656 -21.29492188 67.04882812 C-23.53001314 67.03700225 -25.76497437 67.0205222 -28 67 C-25.82981331 60.10064428 -23.15473557 53.59116765 -20.1875 47 C-15.44814142 36.35953908 -10.85050878 25.665049 -6.3125 14.9375 C-5.99687103 14.19169678 -5.68124207 13.44589355 -5.35604858 12.67749023 C-3.56841076 8.45262044 -1.78382185 4.22648592 0 0 Z " fill="#9C6127" transform="translate(399,61)"/>
<path d="M0 0 C0 17.49 0 34.98 0 53 C-6.27 53 -12.54 53 -19 53 C-19 35.84 -19 18.68 -19 1 C-4 0 -4 0 0 0 Z " fill="#FC8708" transform="translate(441,75)"/>
<path d="M0 0 C6.93 0 13.86 0 21 0 C26.16216216 10.32432432 26.16216216 10.32432432 27.875 14.125 C28.32617188 15.09695312 28.77734375 16.06890625 29.2421875 17.0703125 C30.22812407 20.88192294 29.5574926 22.39501713 28 26 C27.54294678 27.06903564 27.54294678 27.06903564 27.07666016 28.15966797 C26.03216342 30.57553452 24.95777316 32.97606442 23.875 35.375 C23.50246094 36.20644531 23.12992187 37.03789063 22.74609375 37.89453125 C21.83326454 39.93084255 20.91784402 41.96594539 20 44 C19.34 44 18.68 44 18 44 C15.91392846 39.18230493 13.83282588 34.36250403 11.75610352 29.54077148 C11.05040161 27.90412994 10.34339536 26.26805012 9.63500977 24.63256836 C8.61122456 22.26826667 7.59230172 19.90191802 6.57421875 17.53515625 C6.26159592 16.81602554 5.94897308 16.09689484 5.62687683 15.35597229 C3.44932766 10.2761204 1.76204022 5.28612066 0 0 Z " fill="#9C6228" transform="translate(343,61)"/>
<path d="M0 0 C2.93423195 1.79646854 4.47205355 2.9441071 6 6 C6.12272016 10.5406461 5.86358012 13.98402339 2.875 17.5 C-2.01822948 20.0529893 -5.42577997 20.44602901 -10.75 18.9375 C-14.58450825 16.65154316 -15.67158672 15.23431733 -17 11 C-16.92466446 7.23322325 -16.48892935 5.58356084 -14.0625 2.6875 C-9.77453721 -0.82083319 -5.36121525 -0.63221878 0 0 Z " fill="#F98609" transform="translate(437,51)"/>
<path d="M0 0 C2.71627978 2.18811426 3.47800355 3.41571561 4.25 6.8125 C4.25 11.50002281 3.75738987 13.25791108 0.5625 16.75 C-3.11402773 19.03915878 -4.53157423 19.6913387 -8.75 18.8125 C-12.70364129 16.35079882 -14.42678008 14.8582115 -15.8125 10.375 C-15.74077767 6.28682693 -15.02796642 4.19017434 -12.75 0.8125 C-8.8042692 -2.18081302 -4.40911848 -1.90393753 0 0 Z " fill="#010101" transform="translate(46.75,62.1875)"/>
<path d="M0 0 C2.63016161 2.1727422 4.47336894 3.94673788 6 7 C6.41204834 11.63554388 5.87454146 14.30416098 3 18 C0.38808467 20.12822731 -1.7576561 20.11561921 -5 19.875 C-7.77307382 19.42056705 -9.04255814 18.97162791 -11.4375 17.375 C-13.54867565 14.16601302 -13.93282489 11.82898112 -14 8 C-11.14134205 1.37995002 -7.18239013 -1.00805476 0 0 Z " fill="#010101" transform="translate(74,61)"/>
<path d="M0 0 C0.33 0 0.66 0 1 0 C1 1.65 1 3.3 1 5 C-10.88 5.33 -22.76 5.66 -35 6 C-35 6.66 -35 7.32 -35 8 C-35.66 8 -36.32 8 -37 8 C-37.5625 6.0625 -37.5625 6.0625 -38 4 C-37 3 -37 3 -33.48999023 2.88647461 C-31.92951578 2.88663374 -30.36903607 2.89232858 -28.80859375 2.90234375 C-27.57883568 2.90446617 -27.57883568 2.90446617 -26.32423401 2.90663147 C-23.69528618 2.91224711 -21.06642227 2.92480221 -18.4375 2.9375 C-16.65950643 2.94251299 -14.88151154 2.94707624 -13.10351562 2.95117188 C-8.73564455 2.96222161 -4.36783652 2.97949669 0 3 C0 2.01 0 1.02 0 0 Z " fill="#EDA93A" transform="translate(504,102)"/>
<path d="M0 0 C3.86471061 0.39487261 5.64247863 2.32460256 8.25 5.0625 C8.95640625 5.79597656 9.6628125 6.52945313 10.390625 7.28515625 C10.92171875 7.85105469 11.4528125 8.41695312 12 9 C6.57954545 15.92613636 6.57954545 15.92613636 3 17 C2.01 16.67 1.02 16.34 0 16 C1.32 14.35 2.64 12.7 4 11 C3.34 10.67 2.68 10.34 2 10 C2.66 10 3.32 10 4 10 C4.33 9.01 4.66 8.02 5 7 C5.33 6.34 5.66 5.68 6 5 C5.01 5 4.02 5 3 5 C3 4.34 3 3.68 3 3 C1.68 2.34 0.36 1.68 -1 1 C-0.67 0.67 -0.34 0.34 0 0 Z " fill="#FCA718" transform="translate(490,110)"/>
<path d="M0 0 C0.52207031 0.22816406 1.04414063 0.45632812 1.58203125 0.69140625 C8.02381355 3.20719864 13.22301487 3.05138274 20 2 C19.67 2.99 19.34 3.98 19 5 C16.69 5.33 14.38 5.66 12 6 C12 6.99 12 7.98 12 9 C11.34 9 10.68 9 10 9 C9.67 8.01 9.34 7.02 9 6 C6.90280128 4.97718482 6.90280128 4.97718482 4.4375 4.3125 C3.61121094 4.06113281 2.78492188 3.80976562 1.93359375 3.55078125 C1.29550781 3.36902344 0.65742188 3.18726562 0 3 C0 2.01 0 1.02 0 0 Z " fill="#F6AE23" transform="translate(469,110)"/>
<path d="M0 0 C1.34999674 3.37499186 0.57192522 5.3784537 -0.51953125 8.71875 C-1.57032608 13.70788966 -1.13731555 18.92695311 -1 24 C-3.49398079 20.25902881 -3.29925803 18.15004478 -3.3125 13.6875 C-3.33763672 11.74423828 -3.33763672 11.74423828 -3.36328125 9.76171875 C-2.98295287 5.82347973 -1.98910745 3.38515647 0 0 Z " fill="#F0A632" transform="translate(452,88)"/>
<path d="M0 0 C1.65 1.65 3.3 3.3 5 5 C-2.11389522 11.70387244 -2.11389522 11.70387244 -7 12 C-6.34 10.68 -5.68 9.36 -5 8 C-4.01 8.33 -3.02 8.66 -2 9 C-2 8.34 -2 7.68 -2 7 C-1.01 7 -0.02 7 1 7 C0.67 4.69 0.34 2.38 0 0 Z " fill="#F2B426" transform="translate(497,115)"/>
<path d="M0 0 C0.66 0.33 1.32 0.66 2 1 C2 2.32 2 3.64 2 5 C6.95 5 11.9 5 17 5 C17 5.33 17 5.66 17 6 C10.73 6 4.46 6 -2 6 C-1.34 4.02 -0.68 2.04 0 0 Z " fill="#96673B" transform="translate(373,122)"/>
<path d="M0 0 C0.66 0 1.32 0 2 0 C2 1.32 2 2.64 2 4 C4.43787385 3.8590651 6.87517853 3.71245458 9.3125 3.5625 C10.00279297 3.52318359 10.69308594 3.48386719 11.40429688 3.44335938 C14.47161535 3.25072585 17.06968152 2.97677283 20 2 C19.67 2.99 19.34 3.98 19 5 C13.06 5 7.12 5 1 5 C0.67 3.35 0.34 1.7 0 0 Z " fill="#F2C74B" transform="translate(523,123)"/>
<path d="M0 0 C1.32 1.32 2.64 2.64 4 4 C3.67 4.99 3.34 5.98 3 7 C3.99 7.33 4.98 7.66 6 8 C5.67 10.31 5.34 12.62 5 15 C3.39282229 12.58923344 2.38457485 10.71900755 1.375 8.0625 C0.98441406 7.05896484 0.98441406 7.05896484 0.5859375 6.03515625 C0 4 0 4 0 0 Z " fill="#F4C646" transform="translate(506,75)"/>
<path d="M0 0 C0.66 0 1.32 0 2 0 C1.55005243 1.79379098 1.08975857 3.58498928 0.625 5.375 C0.36976563 6.37273437 0.11453125 7.37046875 -0.1484375 8.3984375 C-1 11 -1 11 -3 13 C-3.66 11.68 -4.32 10.36 -5 9 C-4.0409375 7.88625 -4.0409375 7.88625 -3.0625 6.75 C-1.21666593 4.2888879 -0.43930826 2.96533074 0 0 Z " fill="#F6C63B" transform="translate(590,92)"/>
<path d="M0 0 C0.66 1.32 1.32 2.64 2 4 C1.01 4.495 1.01 4.495 0 5 C-0.65555119 7.52733235 -0.65555119 7.52733235 -1 10 C-1.66 10 -2.32 10 -3 10 C-3 11.32 -3 12.64 -3 14 C-3.66 14 -4.32 14 -5 14 C-3.45730076 9.27934033 -1.92205381 4.58335908 0 0 Z " fill="#946436" transform="translate(390,82)"/>
<path d="M0 0 C2.96052484 3.36423277 3.92289822 6.69159287 5 11 C4.34 11.66 3.68 12.32 3 13 C2.49242138 11.58603098 1.99425075 10.16868271 1.5 8.75 C1.08234375 7.56664063 1.08234375 7.56664063 0.65625 6.359375 C0 4 0 4 0 0 Z " fill="#8F6235" transform="translate(368,72)"/>
<path d="M0 0 C0.66 0 1.32 0 2 0 C1.33501617 4.38889325 -0.18757677 7.9811485 -2 12 C-2.33 12 -2.66 12 -3 12 C-2.14285714 3.42857143 -2.14285714 3.42857143 0 0 Z " fill="#926334" transform="translate(397,106)"/>
<path d="M0 0 C0.91007812 0.00902344 1.82015625 0.01804688 2.7578125 0.02734375 C3.45648438 0.03894531 4.15515625 0.05054688 4.875 0.0625 C5.205 0.7225 5.535 1.3825 5.875 2.0625 C4.823125 2.041875 3.77125 2.02125 2.6875 2 C-0.45204904 2.05146802 -3.09383396 2.32767187 -6.125 3.0625 C-6.455 2.4025 -6.785 1.7425 -7.125 1.0625 C-4.60024538 -0.19987731 -2.81299534 -0.03606404 0 0 Z " fill="#EF8F24" transform="translate(432.125,50.9375)"/>
<path d="M0 0 C0.33 1.32 0.66 2.64 1 4 C1.99 3.67 2.98 3.34 4 3 C3.34 4.65 2.68 6.3 2 8 C0.68 7.67 -0.64 7.34 -2 7 C-1.34 4.69 -0.68 2.38 0 0 Z " fill="#F9C137" transform="translate(537,96)"/>
<path d="M0 0 C3 1 3 1 4 3 C4.039992 4.99960012 4.04346799 7.00047242 4 9 C3.67 8.01 3.34 7.02 3 6 C2.01 6 1.02 6 0 6 C0 4.02 0 2.04 0 0 Z " fill="#F8A626" transform="translate(501,92)"/>
<path d="M0 0 C0.66 0.33 1.32 0.66 2 1 C-0.36595933 3.61500768 -2.86049226 5.38999603 -6 7 C-6.66 6.67 -7.32 6.34 -8 6 C-5.36 4.02 -2.72 2.04 0 0 Z " fill="#F5BB1B" transform="translate(462,78)"/>
<path d="M0 0 C2.72107452 2.3500189 3.96702492 4.55674975 5 8 C4.67 8.99 4.34 9.98 4 11 C3.13341385 9.73760288 2.28207941 8.46472499 1.4375 7.1875 C0.72400391 6.12595703 0.72400391 6.12595703 -0.00390625 5.04296875 C-1 3 -1 3 0 0 Z " fill="#8E643A" transform="translate(363,61)"/>
<path d="M0 0 C1.15957207 3.47871621 0.77456651 4.34219645 -0.4375 7.6875 C-0.86869141 8.89986328 -0.86869141 8.89986328 -1.30859375 10.13671875 C-1.53675781 10.75160156 -1.76492188 11.36648437 -2 12 C-2.66 12 -3.32 12 -4 12 C-3.33501617 7.61110675 -1.81242323 4.0188515 0 0 Z " fill="#936436" transform="translate(378,110)"/>
<path d="M0 0 C2.64 0 5.28 0 8 0 C8.33 0.66 8.66 1.32 9 2 C8.01 3.485 8.01 3.485 7 5 C7 4.01 7 3.02 7 2 C4.36 2 1.72 2 -1 2 C-0.67 1.34 -0.34 0.68 0 0 Z " fill="#F6DB29" transform="translate(589,75)"/>
<path d="M0 0 C1.65 1.65 3.3 3.3 5 5 C3.68 5.99 2.36 6.98 1 8 C0.67 5.36 0.34 2.72 0 0 Z " fill="#ECAD34" transform="translate(497,115)"/>
<path d="M0 0 C1.485 0.99 1.485 0.99 3 2 C3.1875 4.625 3.1875 4.625 3 7 C3.66 7 4.32 7 5 7 C5.33 7.99 5.66 8.98 6 10 C3.13367003 8.94901234 2.16993357 8.33137046 0.75 5.5625 C0 3 0 3 0 0 Z " fill="#EA8A24" transform="translate(420,59)"/>
<path d="M0 0 C2.91387197 0.2913872 3.82565583 0.79452294 5.75 3.0625 C6.1625 3.701875 6.575 4.34125 7 5 C5.68 5 4.36 5 3 5 C3 4.34 3 3.68 3 3 C1.68 2.34 0.36 1.68 -1 1 C-0.67 0.67 -0.34 0.34 0 0 Z " fill="#F0AA36" transform="translate(490,110)"/>
<path d="M0 0 C2.72727273 4.09090909 2.72727273 4.09090909 3 7 C1.5625 8.75 1.5625 8.75 0 10 C-1.2380014 6.42355152 -0.74926071 3.66305234 0 0 Z " fill="#F9C43B" transform="translate(531,99)"/>
<path d="M0 0 C2 4 2 4 1.3125 6.1875 C0 8 0 8 -3 9 C-2.01 6.03 -1.02 3.06 0 0 Z " fill="#946332" transform="translate(397,66)"/>
<path d="M0 0 C1.65 0 3.3 0 5 0 C5 0.33 5 0.66 5 1 C6.65 1.33 8.3 1.66 10 2 C10 2.33 10 2.66 10 3 C7.03 3 4.06 3 1 3 C0.67 2.01 0.34 1.02 0 0 Z " fill="#FDD11D" transform="translate(507,75)"/>
<path d="M0 0 C0.99 0.33 1.98 0.66 3 1 C2.34 4.3 1.68 7.6 1 11 C0.67 11 0.34 11 0 11 C0 7.37 0 3.74 0 0 Z " fill="#090909" transform="translate(15,22)"/>
</svg>
